<svg width="101" height="33" viewBox="0 0 101 33" fill="none" xmlns="http://www.w3.org/2000/svg">
<path d="M15.9119 10.2338C14.2156 10.2312 12.5471 10.6676 11.0659 11.5014V6.03154L5.94775 2.69531V20.2824C5.94729 22.7603 6.85473 25.151 8.49571 26.9951C10.1367 28.8393 12.3955 30.0068 14.838 30.2733H16.9857C19.5161 29.9902 21.8432 28.7412 23.4894 26.7825C25.1357 24.8238 25.9764 22.304 25.8391 19.7399C25.7017 17.1759 24.5967 14.7621 22.7507 12.9937C20.9047 11.2254 18.4578 10.2366 15.9119 10.2302V10.2338ZM15.9119 25.2631C14.7659 25.2621 13.6559 24.8593 12.7719 24.1238C11.8879 23.3883 11.2848 22.3657 11.0659 21.2312C10.9452 20.6061 10.9452 19.9635 11.0659 19.3384C11.2437 18.4111 11.6792 17.554 12.3217 16.8669C12.9642 16.1798 13.7872 15.6913 14.6947 15.4581C15.6021 15.225 16.5566 15.257 17.4467 15.5503C18.3368 15.8437 19.1258 16.3863 19.7217 17.1148C20.3176 17.8434 20.6958 18.7278 20.8121 19.6649C20.9285 20.6021 20.7781 21.5533 20.3787 22.4075C19.9793 23.2617 19.3473 23.9838 18.5564 24.4894C17.7655 24.995 16.8483 25.2634 15.9119 25.2631Z" fill="#40196D"/>
<path d="M37.5661 10.2624V15.6489C37.0313 15.6489 35.8711 15.8892 35.7362 15.9333C35.0448 16.1653 34.4116 16.546 33.8803 17.0489C33.2611 17.6372 32.8087 18.3813 32.5694 19.2046C32.3361 20.0057 32.4242 20.8706 32.4382 21.6937C32.4546 22.6334 32.4886 23.5712 32.5026 24.5132C32.5289 26.4293 32.521 28.3459 32.4789 30.2632C32.0383 30.2694 27.1778 30.2792 27.1778 30.2736C27.1778 27.3469 27.1577 24.4127 27.2081 21.4902C27.2318 20.1712 27.0593 18.9049 27.3589 17.5956C27.5344 16.8536 27.8112 16.1397 28.1811 15.4742C29.168 13.6738 30.6723 12.2169 32.4959 11.2952C33.8798 10.6008 35.4048 10.2403 36.9504 10.2422C37.1559 10.2422 37.3613 10.2483 37.5661 10.2624Z" fill="#40196D"/>
<path d="M76.4273 11.4782C75.1353 10.7589 73.7009 10.338 72.2279 10.2458C70.7549 10.1537 69.28 10.3927 67.9097 10.9455C66.5394 11.4983 65.3079 12.3512 64.3042 13.4425C63.3005 14.5338 62.5497 15.8363 62.1058 17.2559C61.662 18.6755 61.5364 20.1769 61.7379 21.6514C61.9394 23.126 62.4631 24.5371 63.2712 25.7826C64.0793 27.0282 65.1515 28.0772 66.4105 28.854C67.6695 29.6307 69.0839 30.1157 70.5513 30.274H72.699C74.0078 30.1341 75.2755 29.7313 76.4273 29.0892V30.274H81.5473V19.3416C81.3958 17.7088 80.8498 16.1383 79.9573 14.7675C79.0647 13.3967 77.8527 12.2673 76.4273 11.4782ZM71.6264 25.2638C70.6991 25.264 69.7904 25.0009 69.0045 24.5044C68.2187 24.008 67.5873 23.2983 67.1827 22.4568C66.7781 21.6152 66.6167 20.6757 66.717 19.7459C66.8173 18.8161 67.1751 17.9336 67.7496 17.1994C68.3241 16.4652 69.092 15.9091 69.9653 15.5946C70.8386 15.2802 71.7821 15.2202 72.6877 15.4215C73.5933 15.6228 74.4244 16.0772 75.0857 16.7328C75.7471 17.3884 76.2121 18.2186 76.4273 19.1283C76.6097 19.8888 76.6097 20.6822 76.4273 21.4427C76.1684 22.5309 75.5539 23.4995 74.6828 24.1926C73.8117 24.8858 72.7347 25.2631 71.6252 25.2638H71.6264Z" fill="#40196D"/>
<path d="M62.7838 10.2532L56.7291 28.512L56.7206 28.5378C56.5537 29.0361 56.2357 29.4689 55.8116 29.775C55.3875 30.0811 54.8787 30.245 54.3572 30.2436H53.5751C53.0838 30.2445 52.6032 30.099 52.1938 29.8253C51.7843 29.5515 51.4642 29.1618 51.2736 28.7051L45.6219 15.0286H44.4472V30.2712H39.3296V10.2826H39.4092V10.2422H47.8935V10.2532H49.188L53.7367 21.269L57.3903 10.2532H62.7838Z" fill="#40196D"/>
<path d="M91.7576 18.1199C89.4251 17.2967 88.6868 16.826 88.6868 15.9231C88.6868 14.9424 89.5035 14.3552 90.9414 14.3552C92.4716 14.3552 94.0019 14.9069 94.8915 15.3617V10.8474C93.5478 10.4369 92.151 10.2304 90.7469 10.2344C86.0414 10.2344 83.0071 12.9399 83.0071 16.5477C82.9688 18.7831 84.485 20.9388 88.4121 22.2732C90.6302 23.0179 91.2137 23.4886 91.2137 24.4699C91.2137 25.4512 90.4735 26.0783 88.6855 26.0783C86.9341 26.0783 84.6801 25.2937 83.5899 24.6262L83.5479 24.7985V29.3704C84.9244 29.9098 86.7214 30.2775 88.6868 30.2775C94.1307 30.2775 96.9298 27.61 96.9298 24.0403C96.8915 21.2189 95.3753 19.3752 91.7576 18.1199Z" fill="#40196D"/>
<path d="M46.1088 4.824C46.109 5.50021 45.9105 6.1613 45.5382 6.72368C45.1659 7.28606 44.6366 7.72447 44.0173 7.98347C43.398 8.24247 42.7164 8.31042 42.0588 8.17874C41.4012 8.04705 40.7971 7.72165 40.3228 7.24367C39.8486 6.76569 39.5255 6.1566 39.3945 5.49343C39.2634 4.83026 39.3303 4.1428 39.5867 3.51797C39.843 2.89314 40.2773 2.35901 40.8346 1.98313C41.392 1.60725 42.0473 1.40649 42.7177 1.40625C43.1629 1.40609 43.6037 1.49436 44.0151 1.66603C44.4264 1.83771 44.8002 2.08941 45.1151 2.40678C45.43 2.72414 45.6798 3.10096 45.8503 3.51571C46.0208 3.93045 46.1086 4.37501 46.1088 4.824Z" fill="#A4031F"/>
</svg>
