<svg width="42" height="42" viewBox="0 0 42 42" fill="none" xmlns="http://www.w3.org/2000/svg">
<g filter="url(#filter0_d_11314_3926)">
<rect x="4" width="34" height="34" rx="8" fill="white"/>
<path d="M21 6.5C14.3719 6.5 9 10.8641 9 16.25C9 18.575 10.0031 20.7031 11.6719 22.3766C11.0859 24.7391 9.12656 26.8438 9.10313 26.8672C9 26.975 8.97188 27.1344 9.03281 27.275C9.09375 27.4156 9.225 27.5 9.375 27.5C12.4828 27.5 14.8125 26.0094 15.9656 25.0906C17.4984 25.6672 19.2 26 21 26C27.6281 26 33 21.6359 33 16.25C33 10.8641 27.6281 6.5 21 6.5ZM15.0094 19.25H14.4375C14.2312 19.25 14.0625 19.0813 14.0625 18.875V18.125C14.0625 17.9187 14.2312 17.75 14.4375 17.75H15.0141C15.2953 17.75 15.5016 17.5859 15.5016 17.4406C15.5016 17.3797 15.4641 17.3141 15.4031 17.2625L14.3766 16.3813C13.9781 16.0437 13.7531 15.5609 13.7531 15.0641C13.7531 14.0656 14.6438 13.2547 15.7406 13.2547H16.3125C16.5188 13.2547 16.6875 13.4234 16.6875 13.6297V14.3797C16.6875 14.5859 16.5188 14.7547 16.3125 14.7547H15.7359C15.4547 14.7547 15.2484 14.9187 15.2484 15.0641C15.2484 15.125 15.2859 15.1906 15.3469 15.2422L16.3734 16.1234C16.7719 16.4609 16.9969 16.9437 16.9969 17.4406C17.0016 18.4391 16.1062 19.25 15.0094 19.25ZM24 18.875C24 19.0813 23.8313 19.25 23.625 19.25H22.875C22.6687 19.25 22.5 19.0813 22.5 18.875V15.6781L21.3375 18.2938C21.2016 18.5703 20.8031 18.5703 20.6672 18.2938L19.5 15.6781V18.875C19.5 19.0813 19.3313 19.25 19.125 19.25H18.375C18.1687 19.25 18 19.0813 18 18.875V14C18 13.5875 18.3375 13.25 18.75 13.25H19.5C19.7859 13.25 20.0437 13.4094 20.1703 13.6625L21 15.3219L21.8297 13.6625C21.9563 13.4094 22.2188 13.25 22.5 13.25H23.25C23.6625 13.25 24 13.5875 24 14V18.875ZM26.2641 19.25H25.6875C25.4813 19.25 25.3125 19.0813 25.3125 18.875V18.125C25.3125 17.9187 25.4813 17.75 25.6875 17.75H26.2641C26.5453 17.75 26.7516 17.5859 26.7516 17.4406C26.7516 17.3797 26.7141 17.3141 26.6531 17.2625L25.6266 16.3813C25.2281 16.0437 25.0031 15.5609 25.0031 15.0641C25.0031 14.0656 25.8937 13.2547 26.9906 13.2547H27.5625C27.7687 13.2547 27.9375 13.4234 27.9375 13.6297V14.3797C27.9375 14.5859 27.7687 14.7547 27.5625 14.7547H26.9859C26.7047 14.7547 26.4984 14.9187 26.4984 15.0641C26.4984 15.125 26.5359 15.1906 26.5969 15.2422L27.6234 16.1234C28.0219 16.4609 28.2469 16.9437 28.2469 17.4406C28.2516 18.4391 27.3609 19.25 26.2641 19.25Z" fill="#40196D"/>
</g>
<defs>
<filter id="filter0_d_11314_3926" x="0" y="0" width="42" height="42" filterUnits="userSpaceOnUse" color-interpolation-filters="sRGB">
<feFlood flood-opacity="0" result="BackgroundImageFix"/>
<feColorMatrix in="SourceAlpha" type="matrix" values="0 0 0 0 0 0 0 0 0 0 0 0 0 0 0 0 0 0 127 0" result="hardAlpha"/>
<feOffset dy="4"/>
<feGaussianBlur stdDeviation="2"/>
<feComposite in2="hardAlpha" operator="out"/>
<feColorMatrix type="matrix" values="0 0 0 0 0 0 0 0 0 0 0 0 0 0 0 0 0 0 0.06 0"/>
<feBlend mode="normal" in2="BackgroundImageFix" result="effect1_dropShadow_11314_3926"/>
<feBlend mode="normal" in="SourceGraphic" in2="effect1_dropShadow_11314_3926" result="shape"/>
</filter>
</defs>
</svg>
