<svg width="42" height="42" viewBox="0 0 42 42" fill="none" xmlns="http://www.w3.org/2000/svg">
<g filter="url(#filter0_d_11322_4394)">
<rect x="4" width="34" height="34" rx="8" fill="white"/>
<path d="M26 23C26.5304 23 27.0391 23.2107 27.4142 23.5858C27.7893 23.9609 28 24.4696 28 25C28 25.5304 27.7893 26.0391 27.4142 26.4142C27.0391 26.7893 26.5304 27 26 27C25.4696 27 24.9609 26.7893 24.5858 26.4142C24.2107 26.0391 24 25.5304 24 25C24 23.89 24.89 23 26 23ZM10 7H13.27L14.21 9H29C29.2652 9 29.5196 9.10536 29.7071 9.29289C29.8946 9.48043 30 9.73478 30 10C30 10.17 29.95 10.34 29.88 10.5L26.3 16.97C25.96 17.58 25.3 18 24.55 18H17.1L16.2 19.63L16.17 19.75C16.17 19.8163 16.1963 19.8799 16.2432 19.9268C16.2901 19.9737 16.3537 20 16.42 20H28V22H16C15.4696 22 14.9609 21.7893 14.5858 21.4142C14.2107 21.0391 14 20.5304 14 20C14 19.65 14.09 19.32 14.24 19.04L15.6 16.59L12 9H10V7ZM16 23C16.5304 23 17.0391 23.2107 17.4142 23.5858C17.7893 23.9609 18 24.4696 18 25C18 25.5304 17.7893 26.0391 17.4142 26.4142C17.0391 26.7893 16.5304 27 16 27C15.4696 27 14.9609 26.7893 14.5858 26.4142C14.2107 26.0391 14 25.5304 14 25C14 23.89 14.89 23 16 23ZM25 16L27.78 11H15.14L17.5 16H25Z" fill="#40196D"/>
</g>
<defs>
<filter id="filter0_d_11322_4394" x="0" y="0" width="42" height="42" filterUnits="userSpaceOnUse" color-interpolation-filters="sRGB">
<feFlood flood-opacity="0" result="BackgroundImageFix"/>
<feColorMatrix in="SourceAlpha" type="matrix" values="0 0 0 0 0 0 0 0 0 0 0 0 0 0 0 0 0 0 127 0" result="hardAlpha"/>
<feOffset dy="4"/>
<feGaussianBlur stdDeviation="2"/>
<feComposite in2="hardAlpha" operator="out"/>
<feColorMatrix type="matrix" values="0 0 0 0 0 0 0 0 0 0 0 0 0 0 0 0 0 0 0.06 0"/>
<feBlend mode="normal" in2="BackgroundImageFix" result="effect1_dropShadow_11322_4394"/>
<feBlend mode="normal" in="SourceGraphic" in2="effect1_dropShadow_11322_4394" result="shape"/>
</filter>
</defs>
</svg>
