<svg width="42" height="42" viewBox="0 0 42 42" fill="none" xmlns="http://www.w3.org/2000/svg">
<g filter="url(#filter0_d_11322_4430)">
<rect x="4" width="34" height="34" rx="8" fill="white"/>
<g clip-path="url(#clip0_11322_4430)">
<path fill-rule="evenodd" clip-rule="evenodd" d="M9.85974 11.1475C9.60238 11.2686 9.38478 11.4604 9.23237 11.7005C9.07996 11.9406 8.99902 12.2191 8.99902 12.5035C8.99902 12.7879 9.07996 13.0665 9.23237 13.3066C9.38478 13.5467 9.60238 13.7385 9.85974 13.8595L12.0047 14.872V20.752C12.0047 21.865 12.3662 23.107 13.4207 23.872C14.7497 24.832 17.1707 26.002 21.0107 26.002C24.8507 26.002 27.2657 24.8245 28.6007 23.872C29.6552 23.11 30.0167 21.877 30.0167 20.752V14.872L31.5167 14.1625V20.7475C31.5167 20.9464 31.5958 21.1372 31.7364 21.2779C31.8771 21.4185 32.0678 21.4975 32.2667 21.4975C32.4657 21.4975 32.6564 21.4185 32.7971 21.2779C32.9377 21.1372 33.0167 20.9464 33.0167 20.7475V12.4975C33.0168 12.2135 32.9362 11.9352 32.7843 11.6952C32.6324 11.4551 32.4155 11.2631 32.1587 11.1415L23.5787 7.09153C22.7768 6.71231 21.9008 6.51562 21.0137 6.51562C20.1267 6.51562 19.2507 6.71231 18.4487 7.09153L9.86874 11.1415L9.85974 11.1475ZM13.5047 20.7475V15.5725L18.4397 17.9125C19.2417 18.2918 20.1177 18.4884 21.0047 18.4884C21.8918 18.4884 22.7678 18.2918 23.5697 17.9125L28.5047 15.5725V20.7475C28.5047 21.5815 28.2347 22.2625 27.7097 22.6375C26.6237 23.422 24.5147 24.4975 21.0047 24.4975C17.4947 24.4975 15.3797 23.4295 14.2997 22.6375C13.7762 22.2595 13.5047 21.574 13.5047 20.7475ZM19.0847 8.44753C19.6849 8.16325 20.3407 8.01578 21.0047 8.01578C21.6688 8.01578 22.3246 8.16325 22.9247 8.44753L31.5047 12.4975L22.9247 16.5475C22.3246 16.8318 21.6688 16.9793 21.0047 16.9793C20.3407 16.9793 19.6849 16.8318 19.0847 16.5475L10.5047 12.4975L19.0847 8.44753Z" fill="#40196D"/>
</g>
</g>
<defs>
<filter id="filter0_d_11322_4430" x="0" y="0" width="42" height="42" filterUnits="userSpaceOnUse" color-interpolation-filters="sRGB">
<feFlood flood-opacity="0" result="BackgroundImageFix"/>
<feColorMatrix in="SourceAlpha" type="matrix" values="0 0 0 0 0 0 0 0 0 0 0 0 0 0 0 0 0 0 127 0" result="hardAlpha"/>
<feOffset dy="4"/>
<feGaussianBlur stdDeviation="2"/>
<feComposite in2="hardAlpha" operator="out"/>
<feColorMatrix type="matrix" values="0 0 0 0 0 0 0 0 0 0 0 0 0 0 0 0 0 0 0.06 0"/>
<feBlend mode="normal" in2="BackgroundImageFix" result="effect1_dropShadow_11322_4430"/>
<feBlend mode="normal" in="SourceGraphic" in2="effect1_dropShadow_11322_4430" result="shape"/>
</filter>
<clipPath id="clip0_11322_4430">
<rect width="24" height="24" fill="white" transform="translate(9 5)"/>
</clipPath>
</defs>
</svg>
