<svg width="42" height="42" viewBox="0 0 42 42" fill="none" xmlns="http://www.w3.org/2000/svg">
<g filter="url(#filter0_d_11320_4054)">
<rect x="4" width="34" height="34" rx="8" fill="white"/>
<path d="M21 20.5C21.55 20.5 22.021 20.3043 22.413 19.913C22.805 19.5217 23.0007 19.0507 23 18.5C22.9993 17.9493 22.8037 17.4787 22.413 17.088C22.0223 16.6973 21.5513 16.5013 21 16.5C20.4487 16.4987 19.978 16.6947 19.588 17.088C19.198 17.4813 19.002 17.952 19 18.5C18.998 19.048 19.194 19.519 19.588 19.913C19.982 20.307 20.4527 20.5027 21 20.5ZM13 26C12.45 26 11.9793 25.8043 11.588 25.413C11.1967 25.0217 11.0007 24.5507 11 24V13C11 12.45 11.196 11.9793 11.588 11.588C11.98 11.1967 12.4507 11.0007 13 11H17V9C17 8.45 17.196 7.97933 17.588 7.588C17.98 7.19667 18.4507 7.00067 19 7H23C23.55 7 24.021 7.196 24.413 7.588C24.805 7.98 25.0007 8.45067 25 9V11H29C29.55 11 30.021 11.196 30.413 11.588C30.805 11.98 31.0007 12.4507 31 13V24C31 24.55 30.8043 25.021 30.413 25.413C30.0217 25.805 29.5507 26.0007 29 26H13ZM13 24H29V13H13V24ZM19 11H23V9H19V11Z" fill="#40196D"/>
</g>
<defs>
<filter id="filter0_d_11320_4054" x="0" y="0" width="42" height="42" filterUnits="userSpaceOnUse" color-interpolation-filters="sRGB">
<feFlood flood-opacity="0" result="BackgroundImageFix"/>
<feColorMatrix in="SourceAlpha" type="matrix" values="0 0 0 0 0 0 0 0 0 0 0 0 0 0 0 0 0 0 127 0" result="hardAlpha"/>
<feOffset dy="4"/>
<feGaussianBlur stdDeviation="2"/>
<feComposite in2="hardAlpha" operator="out"/>
<feColorMatrix type="matrix" values="0 0 0 0 0 0 0 0 0 0 0 0 0 0 0 0 0 0 0.06 0"/>
<feBlend mode="normal" in2="BackgroundImageFix" result="effect1_dropShadow_11320_4054"/>
<feBlend mode="normal" in="SourceGraphic" in2="effect1_dropShadow_11320_4054" result="shape"/>
</filter>
</defs>
</svg>
