<svg width="42" height="42" viewBox="0 0 42 42" fill="none" xmlns="http://www.w3.org/2000/svg">
<g filter="url(#filter0_d_11317_3978)">
<rect x="4" width="34" height="34" rx="8" fill="white"/>
<path fill-rule="evenodd" clip-rule="evenodd" d="M26 7.74868C25.2763 7.74845 24.5645 7.93304 23.932 8.28496C23.2996 8.63688 22.7676 9.14448 22.3863 9.75963C22.005 10.3748 21.7871 11.0771 21.7533 11.8001C21.7195 12.523 21.8708 13.2426 22.193 13.8907C22.353 14.2107 22.418 14.6007 22.313 14.9927L22.06 15.9387L23.006 15.6857C23.3757 15.5901 23.7676 15.6327 24.108 15.8057C24.6817 16.0904 25.3124 16.2418 25.9528 16.2484C26.5933 16.2551 27.227 16.117 27.8065 15.8443C28.3861 15.5717 28.8965 15.1715 29.2997 14.6738C29.7028 14.1762 29.9883 13.5938 30.1347 12.9703C30.2811 12.3467 30.2847 11.6982 30.1452 11.0731C30.0057 10.448 29.7268 9.86245 29.3291 9.36032C28.9315 8.85819 28.4256 8.45243 27.8491 8.17335C27.2726 7.89427 26.6405 7.7491 26 7.74868ZM20.25 11.9987C20.2503 10.7483 20.6582 9.53202 21.4118 8.53426C22.1655 7.53651 23.2239 6.81162 24.4266 6.46946C25.6293 6.1273 26.9107 6.18652 28.0767 6.63813C29.2428 7.08975 30.2298 7.90915 30.8882 8.97216C31.5467 10.0352 31.8406 11.2838 31.7256 12.529C31.6106 13.7741 31.0928 14.9478 30.2508 15.8721C29.4087 16.7965 28.2883 17.4212 27.0593 17.6516C25.8303 17.8819 24.5597 17.7054 23.44 17.1487C23.4275 17.1421 23.414 17.1377 23.4 17.1357H23.393L22.281 17.4327C22.0437 17.4963 21.7938 17.4964 21.5564 17.4328C21.319 17.3693 21.1026 17.2444 20.9288 17.0707C20.755 16.897 20.63 16.6806 20.5663 16.4433C20.5026 16.206 20.5025 15.9561 20.566 15.7187L20.864 14.6057V14.5987C20.8616 14.5847 20.8569 14.5711 20.85 14.5587C20.4543 13.7634 20.2489 12.887 20.25 11.9987ZM12.718 9.09068C13.944 7.80068 15.972 8.04168 16.986 9.47568L18.246 11.2587C19.057 12.4057 18.989 13.9987 18.021 15.0187L17.776 15.2757C17.776 15.2777 17.776 15.2797 17.774 15.2817C17.761 15.3187 17.729 15.4337 17.761 15.6537C17.828 16.1097 18.179 17.0347 19.607 18.5377C21.039 20.0457 21.907 20.4017 22.31 20.4667C22.4071 20.4884 22.508 20.486 22.604 20.4597L23.012 20.0297C23.886 19.1097 25.248 18.9287 26.347 19.5607L28.257 20.6607C29.89 21.6007 30.27 23.8997 28.965 25.2737L27.545 26.7687C27.102 27.2357 26.497 27.6347 25.75 27.7087C23.926 27.8887 19.701 27.6537 15.272 22.9907C11.138 18.6387 10.353 14.8537 10.254 13.0047C10.205 12.0907 10.612 11.3077 11.148 10.7437L12.718 9.09068ZM15.761 10.3407C15.249 9.61668 14.328 9.57368 13.805 10.1237L12.235 11.7767C11.905 12.1257 11.73 12.5247 11.752 12.9247C11.832 14.4347 12.483 17.8767 16.359 21.9577C20.423 26.2367 24.168 26.3577 25.603 26.2157C25.886 26.1877 26.178 26.0297 26.457 25.7357L27.877 24.2407C28.491 23.5957 28.33 22.4327 27.509 21.9607L25.599 20.8607C25.086 20.5657 24.485 20.6567 24.1 21.0627L23.645 21.5427L23.101 21.0257C23.644 21.5427 23.644 21.5427 23.643 21.5437L23.642 21.5457L23.639 21.5487L23.632 21.5547L23.618 21.5687C23.576 21.6099 23.5305 21.6474 23.482 21.6807C23.402 21.7377 23.296 21.8007 23.161 21.8527C22.885 21.9627 22.521 22.0207 22.07 21.9477C21.192 21.8047 20.042 21.1747 18.52 19.5707C16.992 17.9627 16.407 16.7637 16.277 15.8707C16.21 15.4167 16.263 15.0537 16.361 14.7787C16.4154 14.6254 16.493 14.4814 16.591 14.3517L16.621 14.3147L16.635 14.2997L16.641 14.2937L16.644 14.2907L16.646 14.2887C16.646 14.2887 16.647 14.2877 17.191 14.8037L16.647 14.2877L16.934 13.9857C17.379 13.5157 17.444 12.7217 17.022 12.1257L15.761 10.3407ZM26 9.24868C26.1989 9.24868 26.3897 9.3277 26.5303 9.46835C26.671 9.609 26.75 9.79977 26.75 9.99868V11.2487H28C28.1989 11.2487 28.3897 11.3277 28.5303 11.4684C28.671 11.609 28.75 11.7998 28.75 11.9987C28.75 12.1976 28.671 12.3884 28.5303 12.529C28.3897 12.6697 28.1989 12.7487 28 12.7487H26.75V13.9987C26.75 14.1976 26.671 14.3884 26.5303 14.529C26.3897 14.6697 26.1989 14.7487 26 14.7487C25.8011 14.7487 25.6103 14.6697 25.4697 14.529C25.329 14.3884 25.25 14.1976 25.25 13.9987V12.7487H24C23.8011 12.7487 23.6103 12.6697 23.4697 12.529C23.329 12.3884 23.25 12.1976 23.25 11.9987C23.25 11.7998 23.329 11.609 23.4697 11.4684C23.6103 11.3277 23.8011 11.2487 24 11.2487H25.25V9.99868C25.25 9.79977 25.329 9.609 25.4697 9.46835C25.6103 9.3277 25.8011 9.24868 26 9.24868Z" fill="#40196D"/>
</g>
<defs>
<filter id="filter0_d_11317_3978" x="0" y="0" width="42" height="42" filterUnits="userSpaceOnUse" color-interpolation-filters="sRGB">
<feFlood flood-opacity="0" result="BackgroundImageFix"/>
<feColorMatrix in="SourceAlpha" type="matrix" values="0 0 0 0 0 0 0 0 0 0 0 0 0 0 0 0 0 0 127 0" result="hardAlpha"/>
<feOffset dy="4"/>
<feGaussianBlur stdDeviation="2"/>
<feComposite in2="hardAlpha" operator="out"/>
<feColorMatrix type="matrix" values="0 0 0 0 0 0 0 0 0 0 0 0 0 0 0 0 0 0 0.06 0"/>
<feBlend mode="normal" in2="BackgroundImageFix" result="effect1_dropShadow_11317_3978"/>
<feBlend mode="normal" in="SourceGraphic" in2="effect1_dropShadow_11317_3978" result="shape"/>
</filter>
</defs>
</svg>
