<svg width="42" height="42" viewBox="0 0 42 42" fill="none" xmlns="http://www.w3.org/2000/svg">
<g filter="url(#filter0_d_11322_4437)">
<rect x="4" width="34" height="34" rx="8" fill="white"/>
<path d="M27 25L30.824 21.176C30.9366 21.0636 30.9999 20.9111 31 20.752V15.5C31 15.1022 30.842 14.7206 30.5607 14.4393C30.2794 14.158 29.8978 14 29.5 14C29.1022 14 28.7206 14.158 28.4393 14.4393C28.158 14.7206 28 15.1022 28 15.5V20" stroke="#40196D" stroke-width="1.5" stroke-linecap="round" stroke-linejoin="round"/>
<path d="M27 21L27.858 20.142C27.9033 20.0971 27.9391 20.0437 27.9635 19.9848C27.9879 19.9259 28.0003 19.8627 28 19.799C27.9993 19.7092 27.9739 19.6213 27.9267 19.545C27.8794 19.4686 27.8121 19.4067 27.732 19.366L27.289 19.145C26.9137 18.9573 26.4889 18.8925 26.0747 18.9596C25.6604 19.0267 25.2778 19.2224 24.981 19.519L24.086 20.414C23.7109 20.789 23.5001 21.2976 23.5 21.828V25M15 25L11.176 21.176C11.0634 21.0636 11.0001 20.9111 11 20.752V15.5C11 15.1022 11.158 14.7206 11.4393 14.4393C11.7206 14.158 12.1022 14 12.5 14C12.8978 14 13.2794 14.158 13.5607 14.4393C13.842 14.7206 14 15.1022 14 15.5V20" stroke="#40196D" stroke-width="1.5" stroke-linecap="round" stroke-linejoin="round"/>
<path d="M15 21L14.142 20.142C14.0524 20.0501 14.0016 19.9273 14 19.799C14 19.616 14.104 19.449 14.268 19.366L14.711 19.145C15.0863 18.9573 15.5111 18.8925 15.9253 18.9596C16.3396 19.0267 16.7222 19.2224 17.019 19.519L17.914 20.414C18.2891 20.789 18.4999 21.2976 18.5 21.828V25M22.667 17H19.333V14.667H17V11.333H19.333V9H22.667V11.333H25V14.667H22.667V17Z" stroke="#40196D" stroke-width="1.5" stroke-linecap="round" stroke-linejoin="round"/>
</g>
<defs>
<filter id="filter0_d_11322_4437" x="0" y="0" width="42" height="42" filterUnits="userSpaceOnUse" color-interpolation-filters="sRGB">
<feFlood flood-opacity="0" result="BackgroundImageFix"/>
<feColorMatrix in="SourceAlpha" type="matrix" values="0 0 0 0 0 0 0 0 0 0 0 0 0 0 0 0 0 0 127 0" result="hardAlpha"/>
<feOffset dy="4"/>
<feGaussianBlur stdDeviation="2"/>
<feComposite in2="hardAlpha" operator="out"/>
<feColorMatrix type="matrix" values="0 0 0 0 0 0 0 0 0 0 0 0 0 0 0 0 0 0 0.06 0"/>
<feBlend mode="normal" in2="BackgroundImageFix" result="effect1_dropShadow_11322_4437"/>
<feBlend mode="normal" in="SourceGraphic" in2="effect1_dropShadow_11322_4437" result="shape"/>
</filter>
</defs>
</svg>
