<svg width="42" height="42" viewBox="0 0 42 42" fill="none" xmlns="http://www.w3.org/2000/svg">
<g filter="url(#filter0_d_11320_4076)">
<rect x="4" width="34" height="34" rx="8" fill="white"/>
<path d="M21.7498 8.9425C22.7498 8.2225 23.9098 7.8625 25.2198 7.8625C25.9398 7.8625 26.7298 8.0525 27.5898 8.4525C28.4498 8.8425 29.1298 9.3025 29.6298 9.8325C30.6598 11.1125 31.0898 12.6025 30.9398 14.3025C30.7798 16.0025 30.2198 17.3325 29.2498 18.2725L21.6598 25.8625C21.4698 26.0525 21.2298 26.1425 20.9498 26.1425C20.6698 26.1425 20.4398 26.0525 20.2498 25.8625C20.1573 25.7715 20.0847 25.6623 20.0366 25.5418C19.9884 25.4213 19.9656 25.2922 19.9698 25.1625C19.9698 24.8825 20.0598 24.6425 20.2498 24.4525L24.8398 19.8625C25.0898 19.6425 25.0898 19.4125 24.8398 19.1625C24.5898 18.9125 24.3598 18.9125 24.1398 19.1625L19.5498 23.7525C19.4572 23.8457 19.3464 23.9187 19.2242 23.9669C19.102 24.0151 18.9711 24.0375 18.8398 24.0325C18.5598 24.0325 18.3298 23.9425 18.1398 23.7525C18.0473 23.6615 17.9747 23.5523 17.9266 23.4318C17.8784 23.3113 17.8556 23.1822 17.8598 23.0525C17.8598 22.7725 17.9498 22.5325 18.1398 22.3425L22.7298 17.7525C22.9998 17.5025 22.9998 17.2525 22.7298 17.0025C22.4998 16.7525 22.2798 16.7525 22.0298 17.0025L17.4398 21.6425C17.3462 21.7343 17.2351 21.8064 17.1132 21.8545C16.9912 21.9026 16.8609 21.9257 16.7298 21.9225C16.4498 21.9225 16.2098 21.8325 15.9998 21.6425C15.7998 21.4525 15.6998 21.2225 15.6998 20.9425C15.6998 20.6625 15.8098 20.4125 16.0298 20.1925L20.6298 15.5925C20.8798 15.3425 20.8798 15.1125 20.6298 14.8925C20.3798 14.6725 20.1398 14.6725 19.9198 14.8925L15.2798 19.5025C15.0598 19.7025 14.8298 19.8125 14.5798 19.8125C14.2998 19.8125 14.0598 19.7125 13.8798 19.5025C13.6898 19.3025 13.5898 19.0625 13.5898 18.7825C13.5898 18.5025 13.6898 18.2725 13.8798 18.0825C16.9398 15.0025 18.8298 13.1425 19.5498 12.4525L23.1098 15.9725C23.4998 16.3425 23.9498 16.5325 24.4998 16.5325C25.1998 16.5325 25.7498 16.2525 26.1598 15.6925C26.4398 15.2825 26.5398 14.8325 26.4598 14.3325C26.3798 13.8325 26.1698 13.4125 25.8298 13.0625L21.7498 8.9425ZM23.8098 15.2725L19.5498 11.0025L12.4698 18.0825C11.6298 17.2325 11.1498 15.9325 11.0398 14.1625C10.9298 12.4025 11.4098 10.8725 12.4698 9.5925C13.6598 8.4125 15.0798 7.8125 16.7298 7.8125C18.3898 7.8125 19.7998 8.4125 20.9498 9.5925L25.2198 13.8625C25.4098 14.0525 25.4998 14.2825 25.4998 14.5625C25.4998 14.8425 25.4098 15.0825 25.2198 15.2725C25.0298 15.4525 24.7998 15.5525 24.4998 15.5525C24.2298 15.5525 23.9998 15.4525 23.8098 15.2725Z" fill="#40196D"/>
</g>
<defs>
<filter id="filter0_d_11320_4076" x="0" y="0" width="42" height="42" filterUnits="userSpaceOnUse" color-interpolation-filters="sRGB">
<feFlood flood-opacity="0" result="BackgroundImageFix"/>
<feColorMatrix in="SourceAlpha" type="matrix" values="0 0 0 0 0 0 0 0 0 0 0 0 0 0 0 0 0 0 127 0" result="hardAlpha"/>
<feOffset dy="4"/>
<feGaussianBlur stdDeviation="2"/>
<feComposite in2="hardAlpha" operator="out"/>
<feColorMatrix type="matrix" values="0 0 0 0 0 0 0 0 0 0 0 0 0 0 0 0 0 0 0.06 0"/>
<feBlend mode="normal" in2="BackgroundImageFix" result="effect1_dropShadow_11320_4076"/>
<feBlend mode="normal" in="SourceGraphic" in2="effect1_dropShadow_11320_4076" result="shape"/>
</filter>
</defs>
</svg>
