<svg width="40" height="40" viewBox="0 0 40 40" fill="none" xmlns="http://www.w3.org/2000/svg">
<path d="M13.5966 20.0026L16.59 17.0093C16.7522 16.847 16.8372 16.6554 16.845 16.4343C16.8527 16.2132 16.7677 16.0115 16.59 15.8293C16.4055 15.6459 16.2072 15.5526 15.995 15.5493C15.7827 15.5459 15.5844 15.6359 15.4 15.8193L12.16 19.0593C11.8911 19.3293 11.7566 19.6437 11.7566 20.0026C11.7566 20.3615 11.8911 20.6754 12.16 20.9443L15.4 24.1859C15.5622 24.3493 15.755 24.4343 15.9783 24.4409C16.2016 24.4476 16.4055 24.3598 16.59 24.1776C16.7677 23.9943 16.8577 23.7976 16.86 23.5876C16.8622 23.3776 16.7722 23.1809 16.59 22.9976L13.5966 20.0026ZM26.4033 20.0026L23.41 22.9959C23.2477 23.1582 23.1627 23.3498 23.155 23.5709C23.1472 23.792 23.2322 23.9937 23.41 24.1759C23.5944 24.3593 23.7927 24.4526 24.005 24.4559C24.2172 24.4593 24.4155 24.3693 24.6 24.1859L27.84 20.9459C28.1088 20.6759 28.2433 20.3615 28.2433 20.0026C28.2433 19.6437 28.1088 19.3298 27.84 19.0609L24.5983 15.8193C24.4361 15.6559 24.2433 15.5709 24.02 15.5643C23.7966 15.5576 23.5933 15.6454 23.41 15.8276C23.2322 16.0109 23.1422 16.2076 23.14 16.4176C23.1377 16.6276 23.2277 16.8243 23.41 17.0076L26.4033 20.0026ZM9.35996 33.3359C8.61329 33.3359 7.97774 33.0737 7.45329 32.5493C6.92885 32.0248 6.66663 31.3898 6.66663 30.6443V9.36094C6.66663 8.61649 6.92885 7.98149 7.45329 7.45594C7.97774 6.93149 8.61329 6.66927 9.35996 6.66927H17.1933C17.0411 5.81816 17.2444 5.04983 17.8033 4.36427C18.3611 3.67872 19.0933 3.33594 20 3.33594C20.9277 3.33594 21.6711 3.67872 22.23 4.36427C22.7888 5.04983 22.9816 5.81816 22.8083 6.66927H30.6416C31.3861 6.66927 32.0211 6.93149 32.5466 7.45594C33.0711 7.98038 33.3333 8.61594 33.3333 9.3626V30.6443C33.3333 31.3887 33.0711 32.0237 32.5466 32.5493C32.0222 33.0737 31.3872 33.3359 30.6416 33.3359H9.35996ZM9.35996 31.6693H30.6416C30.8972 31.6693 31.1322 31.5626 31.3466 31.3493C31.5611 31.1359 31.6677 30.9004 31.6666 30.6426V9.3626C31.6666 9.10594 31.56 8.87038 31.3466 8.65594C31.1333 8.44149 30.8977 8.33483 30.64 8.33594H9.35996C9.10329 8.33594 8.86774 8.4426 8.65329 8.65594C8.43885 8.86927 8.33218 9.10483 8.33329 9.3626V30.6443C8.33329 30.8998 8.43996 31.1348 8.65329 31.3493C8.86663 31.5637 9.10163 31.6704 9.35829 31.6693M20 7.40594C20.3611 7.40594 20.66 7.28816 20.8966 7.0526C21.1333 6.81705 21.2511 6.51816 21.25 6.15594C21.2488 5.79372 21.1305 5.49538 20.895 5.26094C20.6594 5.02649 20.3611 4.90816 20 4.90594C19.6388 4.90372 19.3405 5.02205 19.105 5.26094C18.8694 5.49983 18.7511 5.79816 18.75 6.15594C18.7488 6.51372 18.8672 6.8126 19.105 7.0526C19.3427 7.2926 19.6411 7.41038 20 7.40594Z" fill="#C8C8C8"/>
</svg>
