<svg width="40" height="40" viewBox="0 0 40 40" fill="none" xmlns="http://www.w3.org/2000/svg">
<path d="M12.51 25.4449C12.5538 25.6032 12.6283 25.7512 12.7293 25.8807C12.8303 26.0101 12.9558 26.1184 13.0986 26.1994C13.2415 26.2803 13.3989 26.3323 13.5618 26.3524C13.7248 26.3725 13.8901 26.3604 14.0483 26.3166C14.2066 26.2728 14.3547 26.1983 14.4841 26.0973C14.6135 25.9963 14.7218 25.8708 14.8028 25.728C14.8837 25.5851 14.9357 25.4277 14.9558 25.2648C14.976 25.1018 14.9638 24.9365 14.92 24.7783L12.51 25.4449ZM5.33334 7.87826C5.17448 7.83186 5.00798 7.81747 4.84351 7.83592C4.67904 7.85437 4.51987 7.9053 4.37524 7.98576C4.2306 8.06621 4.10339 8.17458 4.00097 8.30459C3.89855 8.4346 3.82297 8.58365 3.77861 8.7431C3.73426 8.90255 3.722 9.06922 3.74257 9.23344C3.76313 9.39766 3.8161 9.55616 3.8984 9.69975C3.98071 9.84333 4.09071 9.96915 4.22202 10.0699C4.35333 10.1706 4.50334 10.2443 4.66334 10.2866L5.33334 7.87826ZM33.6467 26.2116C33.8094 26.174 33.963 26.1041 34.0983 26.0061C34.2336 25.9081 34.3479 25.784 34.4344 25.6411C34.5209 25.4982 34.5779 25.3394 34.602 25.174C34.6261 25.0087 34.6168 24.8403 34.5747 24.6786C34.5326 24.5169 34.4585 24.3654 34.3568 24.2328C34.2551 24.1003 34.1279 23.9895 33.9826 23.9069C33.8374 23.8244 33.6771 23.7718 33.5112 23.7523C33.3453 23.7328 33.1771 23.7467 33.0167 23.7933L33.6467 26.2116ZM16.995 29.2683C17.5117 31.1349 16.3783 33.1066 14.3717 33.6283L15 36.0466C18.295 35.1916 20.3083 31.8766 19.405 28.6016L16.995 29.2683ZM14.3717 33.6283C12.3517 34.1533 10.325 32.9799 9.80501 31.0966L7.39501 31.7633C8.29501 35.0216 11.7183 36.8999 15 36.0466L14.3717 33.6283ZM9.80501 31.0966C9.28834 29.2299 10.4217 27.2583 12.4283 26.7366L11.8 24.3199C8.50501 25.1749 6.49001 28.4883 7.39501 31.7633L9.80501 31.0966ZM12.4283 26.7366C14.4483 26.2116 16.475 27.3849 16.995 29.2683L19.405 28.6016C18.505 25.3433 15.0817 23.4649 11.8 24.3183L12.4283 26.7366ZM14.92 24.7783L11.3333 11.7949L8.92334 12.4616L12.51 25.4449L14.92 24.7783ZM8.17334 8.66493L5.33334 7.87826L4.66334 10.2866L7.50501 11.0749L8.17334 8.66493ZM11.3333 11.7949C11.1214 11.0449 10.7191 10.3625 10.1653 9.814C9.61159 9.26552 8.92536 8.86967 8.17334 8.66493L7.50834 11.0749C8.21668 11.2716 8.74334 11.8099 8.92334 12.4616L11.3333 11.7949ZM18.5167 30.1449L33.6467 26.2116L33.0183 23.7933L17.8867 27.7266L18.5167 30.1449Z" fill="#C8C8C8"/>
<path opacity="0.5" d="M15.9417 14.5497C15.1333 11.6247 14.73 10.1613 15.4167 9.00967C16.1017 7.85633 17.61 7.46467 20.6267 6.67967L23.8267 5.84967C26.8433 5.06633 28.3517 4.673 29.54 5.338C30.7283 6.00467 31.1333 7.46633 31.94 10.393L32.7983 13.4963C33.6067 16.4213 34.0117 17.8847 33.325 19.038C32.6383 20.1897 31.13 20.583 28.1133 21.3663L24.9133 22.198C21.8967 22.9813 20.3883 23.373 19.2 22.708C18.0117 22.0413 17.6083 20.5797 16.8 17.6547L15.9417 14.5497Z" stroke="#C8C8C8" stroke-width="2.5"/>
</svg>
