<svg width="40" height="40" viewBox="0 0 40 40" fill="none" xmlns="http://www.w3.org/2000/svg">
<path d="M16.8 3.33594C9.11665 4.89594 3.33331 11.6893 3.33331 19.8343C3.33331 29.1326 10.87 36.6693 20.1683 36.6693C28.3133 36.6693 35.1066 30.8859 36.6666 23.2026" stroke="#C8C8C8" stroke-width="2.5" stroke-linecap="round" stroke-linejoin="round"/>
<path d="M31.5633 30C32.1831 29.8692 32.7797 29.6462 33.3333 29.3383M24.48 28.9017C25.4744 29.335 26.4283 29.6572 27.3417 29.8683M18.0917 24.9133C18.78 25.3967 19.5167 25.9767 20.2333 26.4767M5 23.0433C5.53667 22.7817 6.11667 22.48 6.77167 22.2217M10.75 21.6667C11.6867 21.77 12.7367 22.0383 13.9267 22.5383M30 12.5C30 11.837 29.7366 11.2011 29.2678 10.7322C28.7989 10.2634 28.163 10 27.5 10C26.837 10 26.2011 10.2634 25.7322 10.7322C25.2634 11.2011 25 11.837 25 12.5C25 13.163 25.2634 13.7989 25.7322 14.2678C26.2011 14.7366 26.837 15 27.5 15C28.163 15 28.7989 14.7366 29.2678 14.2678C29.7366 13.7989 30 13.163 30 12.5Z" stroke="#C8C8C8" stroke-width="2.5" stroke-linecap="round" stroke-linejoin="round"/>
<path d="M29.1466 22.7026C28.6963 23.1123 28.1088 23.3382 27.5 23.3359C26.8912 23.3382 26.3036 23.1123 25.8533 22.7026C21.8083 18.9626 16.3883 14.7826 19.0316 8.71594C20.4616 5.43427 23.8916 3.33594 27.5 3.33594C31.1083 3.33594 34.5383 5.43594 35.9666 8.71594C38.6083 14.7759 33.2 18.9743 29.1466 22.7026Z" stroke="#C8C8C8" stroke-width="2.5" stroke-linecap="round" stroke-linejoin="round"/>
</svg>
