<svg width="40" height="40" viewBox="0 0 40 40" fill="none" xmlns="http://www.w3.org/2000/svg">
<g clip-path="url(#clip0_10598_5272)">
<path d="M20.5 2.50281H12C9.85751 2.50281 8.40001 2.50281 7.27501 2.59781C6.18001 2.68531 5.61751 2.84781 5.22751 3.04781C4.28674 3.52717 3.52187 4.29204 3.04251 5.23281C2.84251 5.62281 2.68001 6.18281 2.59251 7.28031C2.50001 8.40281 2.49751 9.85281 2.49751 12.0028V25.5028C2.49751 27.6453 2.50001 29.1028 2.59251 30.2278C2.68251 31.3228 2.84501 31.8853 3.04251 32.2753C3.52251 33.2153 4.28751 33.9803 5.22751 34.4603C5.61751 34.6603 6.18001 34.8228 7.27501 34.9103C7.90001 34.9603 8.62501 34.9853 9.51251 34.9953C9.83751 35.8953 10.3325 36.7503 11.0025 37.4953C7.45251 37.4903 5.57751 37.4278 4.10251 36.6778C2.69267 35.959 1.54632 34.8127 0.82751 33.4028C0.0100098 31.7953 0.0100098 29.7028 0.0100098 25.5028V12.0028C0.0100098 7.80281 0.0100098 5.70281 0.82751 4.10281C1.54911 2.69499 2.69469 1.54941 4.10251 0.827813C5.70751 0.0078125 7.80251 0.0078125 12.0025 0.0078125H20.5025C24.7025 0.0078125 26.8025 0.0078125 28.4025 0.825312C29.8103 1.54691 30.9559 2.6925 31.6775 4.10031C32.2775 5.27781 32.4375 6.72531 32.48 9.07531C32.1803 9.0707 31.8806 9.08406 31.5825 9.11531C31.1059 8.53145 30.5467 8.02024 29.9225 7.59781L29.9 7.29781C29.81 6.20281 29.65 5.64031 29.45 5.24781C28.9702 4.30797 28.2054 3.54402 27.265 3.06531C26.875 2.86531 26.315 2.70281 25.2175 2.61531C24.0925 2.52281 22.6425 2.52031 20.4925 2.52031L20.5 2.50281Z" fill="#C8C8C8"/>
<path d="M20.175 7.5H6.24999C5.91847 7.5 5.60053 7.6317 5.36611 7.86612C5.13169 8.10054 4.99999 8.41848 4.99999 8.75C4.99999 9.08152 5.13169 9.39946 5.36611 9.63388C5.60053 9.8683 5.91847 10 6.24999 10H13.925C15.2992 9.25086 16.868 8.93535 18.425 9.095C18.93 8.4775 19.5275 7.9375 20.2 7.5H20.175ZM6.24999 15H9.52499C9.23138 15.8012 9.07666 16.6467 9.06749 17.5H6.26749C5.93597 17.5 5.61803 17.3683 5.38361 17.1339C5.14919 16.8995 5.01749 16.5815 5.01749 16.25C5.01749 15.9185 5.14919 15.6005 5.38361 15.3661C5.61803 15.1317 5.93597 15 6.26749 15H6.24999ZM6.47499 22.5H6.23999C5.90847 22.5 5.59053 22.6317 5.35611 22.8661C5.12169 23.1005 4.98999 23.4185 4.98999 23.75C4.98999 24.0815 5.12169 24.3995 5.35611 24.6339C5.59053 24.8683 5.90847 25 6.23999 25V24.405C6.23999 23.7467 6.31832 23.1117 6.47499 22.5Z" fill="#C8C8C8"/>
<path fill-rule="evenodd" clip-rule="evenodd" d="M25 30C27.75 30 30 27.7625 30 25C30 22.25 27.7625 20 25 20C22.25 20 20 22.2375 20 25C20 27.75 22.2375 30 25 30ZM25 27.5C25.663 27.5 26.2989 27.2366 26.7678 26.7678C27.2366 26.2989 27.5 25.663 27.5 25C27.5 24.337 27.2366 23.7011 26.7678 23.2322C26.2989 22.7634 25.663 22.5 25 22.5C24.337 22.5 23.7011 22.7634 23.2322 23.2322C22.7634 23.7011 22.5 24.337 22.5 25C22.5 25.663 22.7634 26.2989 23.2322 26.7678C23.7011 27.2366 24.337 27.5 25 27.5Z" fill="#C8C8C8"/>
<path fill-rule="evenodd" clip-rule="evenodd" d="M25.5 10.0019H24.315C22.34 10.0019 20.69 11.4394 20.39 13.3269C20.2125 13.3954 20.0367 13.4679 19.8625 13.5444C19.0955 12.9976 18.1593 12.7409 17.2206 12.8201C16.282 12.8993 15.402 13.3093 14.7375 13.9769L13.895 14.8194C13.2292 15.4849 12.8204 16.3647 12.7413 17.3028C12.6621 18.2409 12.9176 19.1767 13.4625 19.9444C13.3858 20.1194 13.3133 20.2952 13.245 20.4719C12.3168 20.6288 11.474 21.1088 10.8656 21.8271C10.2571 22.5453 9.92218 23.4556 9.92001 24.3969V25.5819C9.92001 27.5644 11.3625 29.2069 13.245 29.5319C13.3117 29.7052 13.3825 29.8769 13.4575 30.0469C12.9082 30.8172 12.6497 31.7573 12.728 32.7002C12.8062 33.6431 13.2162 34.5277 13.885 35.1969L14.71 36.0219C16.115 37.4269 18.31 37.5719 19.885 36.4419C20.0483 36.5169 20.2133 36.5861 20.38 36.6494C20.5342 37.5855 21.0161 38.4364 21.7396 39.05C22.4632 39.6637 23.3813 40.0002 24.33 39.9994H25.475C27.475 39.9994 29.125 38.5394 29.45 36.6244C29.6133 36.5594 29.775 36.4919 29.935 36.4219C31.505 37.5569 33.71 37.4169 35.135 36.0044L35.9375 35.2019C37.35 33.7894 37.49 31.5769 36.355 30.0019C36.4259 29.8417 36.4934 29.68 36.5575 29.5169C37.5003 29.3626 38.3574 28.8781 38.9757 28.1498C39.5941 27.4216 39.9332 26.4972 39.9325 25.5419V24.3969C39.9325 22.4044 38.48 20.7469 36.5825 20.4469C36.5178 20.2788 36.4494 20.1121 36.3775 19.9469C37.5025 18.3844 37.3625 16.1969 35.9525 14.7719L35.1325 13.9519C34.4633 13.2831 33.5787 12.8731 32.6358 12.7949C31.6929 12.7166 30.7528 12.9751 29.9825 13.5244C29.8125 13.4489 29.6408 13.3772 29.4675 13.3094C29.3099 12.377 28.8263 11.5309 28.1028 10.9219C27.3794 10.3129 26.4631 9.98066 25.5175 9.98441L25.5 10.0019ZM22.825 14.0019C22.825 13.1794 23.49 12.5144 24.3125 12.5144H25.4975C26.3225 12.5144 26.9925 13.1844 26.9925 14.0094C26.9925 14.7144 27.49 15.3119 28.1575 15.5419C28.5508 15.6769 28.9325 15.8361 29.3025 16.0194C29.9375 16.3319 30.7175 16.2619 31.2175 15.7619C31.4987 15.4818 31.8794 15.3245 32.2763 15.3245C32.6732 15.3245 33.0539 15.4818 33.335 15.7619L34.1575 16.5844C34.4396 16.867 34.5981 17.2501 34.5981 17.6494C34.5981 18.0487 34.4396 18.4318 34.1575 18.7144C33.655 19.2169 33.5825 19.9969 33.8925 20.6344C34.0675 20.9961 34.2208 21.3686 34.3525 21.7519C34.585 22.4269 35.1875 22.9319 35.9 22.9319C36.7325 22.9319 37.4075 23.6069 37.4075 24.4394V25.5844C37.4075 25.9862 37.2479 26.3716 36.9638 26.6557C36.6797 26.9398 36.2943 27.0994 35.8925 27.0994C35.1775 27.0994 34.5725 27.6044 34.3375 28.2769C34.2075 28.6536 34.0558 29.0194 33.8825 29.3744C33.57 30.0169 33.64 30.8044 34.1475 31.3094C34.2885 31.4499 34.4003 31.6169 34.4767 31.8007C34.553 31.9845 34.5923 32.1816 34.5923 32.3807C34.5923 32.5797 34.553 32.7768 34.4767 32.9606C34.4003 33.1444 34.2885 33.3114 34.1475 33.4519L33.345 34.2544C33.2045 34.3954 33.0375 34.5072 32.8537 34.5836C32.6699 34.6599 32.4728 34.6992 32.2738 34.6992C32.0747 34.6992 31.8776 34.6599 31.6938 34.5836C31.51 34.5072 31.343 34.3954 31.2025 34.2544C30.6975 33.7494 29.91 33.6769 29.2675 33.9894C28.9125 34.1627 28.5467 34.3144 28.17 34.4444C27.495 34.6794 26.99 35.2844 26.99 35.9994C26.99 36.4012 26.8304 36.7866 26.5463 37.0707C26.2622 37.3548 25.8768 37.5144 25.475 37.5144H24.33C23.9302 37.5144 23.5468 37.3556 23.264 37.0729C22.9813 36.7902 22.8225 36.4067 22.8225 36.0069C22.8225 35.2944 22.3175 34.6894 21.6425 34.4594C21.2611 34.3287 20.8879 34.1751 20.525 33.9994C19.8875 33.6894 19.1075 33.7619 18.605 34.2619C18.3224 34.544 17.9394 34.7025 17.54 34.7025C17.1407 34.7025 16.7576 34.544 16.475 34.2619L15.6525 33.4394C15.3724 33.1583 15.2151 32.7775 15.2151 32.3807C15.2151 31.9838 15.3724 31.6031 15.6525 31.3219C16.1525 30.8219 16.2225 30.0419 15.91 29.4069C15.7273 29.0355 15.5678 28.6531 15.4325 28.2619C15.2025 27.5944 14.605 27.0969 13.9 27.0969C13.5039 27.0956 13.1244 26.9377 12.8443 26.6576C12.5643 26.3775 12.4063 25.998 12.405 25.6019V24.4169C12.405 23.5944 13.07 22.9294 13.8925 22.9294C14.5975 22.9294 15.1925 22.4319 15.42 21.7644C15.5562 21.3663 15.7173 20.9772 15.9025 20.5994C16.2125 19.9694 16.1425 19.1969 15.645 18.6994C15.3662 18.4201 15.2097 18.0415 15.2097 17.6469C15.2097 17.2523 15.3662 16.8737 15.645 16.5944L16.4875 15.7519C16.7669 15.4731 17.1454 15.3166 17.54 15.3166C17.9347 15.3166 18.3132 15.4731 18.5925 15.7519C19.09 16.2494 19.8625 16.3194 20.4925 16.0094C20.8675 15.8261 21.2558 15.6652 21.6575 15.5269C22.325 15.3019 22.8225 14.7044 22.8225 13.9994L22.825 14.0019Z" fill="#C8C8C8"/>
</g>
<defs>
<clipPath id="clip0_10598_5272">
<rect width="40" height="40" fill="white"/>
</clipPath>
</defs>
</svg>
