<svg width="40" height="40" viewBox="0 0 40 40" fill="none" xmlns="http://www.w3.org/2000/svg">
<path d="M31.6666 34.1693C32.375 33.8509 32.9833 33.4376 33.515 32.9026C35.8333 30.5659 35.8333 26.8059 35.8333 19.2859C35.8333 11.7676 35.8333 8.0076 33.515 5.6726C31.195 3.33594 27.465 3.33594 20 3.33594C12.5366 3.33594 8.80329 3.33594 6.48496 5.6726C4.16663 8.00927 4.16663 11.7676 4.16663 19.2859C4.16663 26.8043 4.16663 30.5643 6.48496 32.9009C7.01829 33.4359 7.62496 33.8493 8.33329 34.1676M4.16663 14.1693H35.8333M11.6666 9.16927H11.6816M18.3333 9.16927H18.3483" stroke="#C8C8C8" stroke-width="2.5" stroke-linecap="round" stroke-linejoin="round"/>
<path d="M17.0999 27.302C15.2999 27.302 14.5283 28.602 14.3283 29.402C14.1283 30.2004 14.1283 33.0987 14.2483 34.2987C14.6483 35.797 15.6483 36.4154 16.6283 36.6154C17.5283 36.697 21.3283 36.6654 22.4283 36.6654C24.0283 36.697 25.2283 36.097 25.7283 34.2987C25.8283 33.6987 25.9283 30.3987 25.6783 29.4004C25.1483 27.8004 23.9333 27.302 22.9333 27.302M17.0999 27.302H22.9333M17.0999 27.302C17.0999 27.202 17.0966 25.9254 17.0999 25.202C17.0999 24.5387 17.0433 23.902 17.3599 23.3187C18.5433 20.9637 21.9433 21.202 22.7833 23.602C22.9283 23.997 22.9383 24.622 22.9333 25.202C22.9283 25.9387 22.9333 27.302 22.9333 27.302" stroke="#C8C8C8" stroke-width="2.5" stroke-linecap="round" stroke-linejoin="round"/>
</svg>
