<svg width="42" height="42" viewBox="0 0 42 42" fill="none" xmlns="http://www.w3.org/2000/svg">
<g filter="url(#filter0_d_11322_4404)">
<rect x="4" width="34" height="34" rx="8" fill="white"/>
<path d="M16.5005 21.5C16.8983 21.5 17.2798 21.342 17.5611 21.0607C17.8424 20.7794 18.0005 20.3978 18.0005 20C18.0005 19.6022 17.8424 19.2206 17.5611 18.9393C17.2798 18.658 16.8983 18.5 16.5005 18.5C16.1027 18.5 15.7211 18.658 15.4398 18.9393C15.1585 19.2206 15.0005 19.6022 15.0005 20C15.0005 20.3978 15.1585 20.7794 15.4398 21.0607C15.7211 21.342 16.1027 21.5 16.5005 21.5ZM22.5005 20C22.5005 20.3978 22.3424 20.7794 22.0611 21.0607C21.7798 21.342 21.3983 21.5 21.0005 21.5C20.6027 21.5 20.2211 21.342 19.9398 21.0607C19.6585 20.7794 19.5005 20.3978 19.5005 20C19.5005 19.6022 19.6585 19.2206 19.9398 18.9393C20.2211 18.658 20.6027 18.5 21.0005 18.5C21.3983 18.5 21.7798 18.658 22.0611 18.9393C22.3424 19.2206 22.5005 19.6022 22.5005 20ZM25.5005 21.5C25.8983 21.5 26.2798 21.342 26.5611 21.0607C26.8424 20.7794 27.0005 20.3978 27.0005 20C27.0005 19.6022 26.8424 19.2206 26.5611 18.9393C26.2798 18.658 25.8983 18.5 25.5005 18.5C25.1027 18.5 24.7211 18.658 24.4398 18.9393C24.1585 19.2206 24.0005 19.6022 24.0005 20C24.0005 20.3978 24.1585 20.7794 24.4398 21.0607C24.7211 21.342 25.1027 21.5 25.5005 21.5ZM13.598 8.06525C13.8091 7.81021 14.0739 7.6049 14.3735 7.46398C14.6731 7.32306 15.0001 7.24999 15.3312 7.25H26.6705C27.0017 7.24988 27.3289 7.32289 27.6286 7.46382C27.9283 7.60474 28.1933 7.81011 28.4045 8.06525L31.9032 12.2938C32.7125 13.2718 32.0165 14.75 30.7475 14.75H30.0005V24.3125C30.0005 24.6326 29.9374 24.9496 29.8149 25.2453C29.6924 25.541 29.5129 25.8097 29.2866 26.0361C29.0602 26.2624 28.7915 26.442 28.4958 26.5645C28.2 26.687 27.8831 26.75 27.563 26.75H14.438C13.7915 26.75 13.1715 26.4932 12.7144 26.0361C12.2573 25.579 12.0005 24.959 12.0005 24.3125V14.75H11.255C9.98523 14.75 9.28998 13.2718 10.0992 12.2938L13.598 8.06525ZM13.5005 14.75V24.3125C13.5005 24.83 13.9205 25.25 14.438 25.25H27.563C28.0805 25.25 28.5005 24.83 28.5005 24.3125V14.75H13.5005ZM15.3312 8.75C15.2209 8.75 15.112 8.77434 15.0122 8.82127C14.9123 8.8682 14.8241 8.93656 14.7537 9.0215L11.255 13.25H30.7467L27.248 9.0215C27.1776 8.93656 27.0894 8.8682 26.9895 8.82127C26.8897 8.77434 26.7808 8.75 26.6705 8.75H15.3312Z" fill="#40196D"/>
</g>
<defs>
<filter id="filter0_d_11322_4404" x="0" y="0" width="42" height="42" filterUnits="userSpaceOnUse" color-interpolation-filters="sRGB">
<feFlood flood-opacity="0" result="BackgroundImageFix"/>
<feColorMatrix in="SourceAlpha" type="matrix" values="0 0 0 0 0 0 0 0 0 0 0 0 0 0 0 0 0 0 127 0" result="hardAlpha"/>
<feOffset dy="4"/>
<feGaussianBlur stdDeviation="2"/>
<feComposite in2="hardAlpha" operator="out"/>
<feColorMatrix type="matrix" values="0 0 0 0 0 0 0 0 0 0 0 0 0 0 0 0 0 0 0.06 0"/>
<feBlend mode="normal" in2="BackgroundImageFix" result="effect1_dropShadow_11322_4404"/>
<feBlend mode="normal" in="SourceGraphic" in2="effect1_dropShadow_11322_4404" result="shape"/>
</filter>
</defs>
</svg>
