<svg width="42" height="42" viewBox="0 0 42 42" fill="none" xmlns="http://www.w3.org/2000/svg">
<g filter="url(#filter0_d_11320_4083)">
<rect x="4" width="34" height="34" rx="8" fill="white"/>
<path d="M27.0002 25H25.0002C24.7169 25 24.4795 24.904 24.2882 24.712C24.0969 24.52 24.0009 24.2827 24.0002 24C23.9995 23.7173 24.0955 23.48 24.2882 23.288C24.4809 23.096 24.7182 23 25.0002 23H27.0002V21C27.0002 20.7167 27.0962 20.4793 27.2882 20.288C27.4802 20.0967 27.7175 20.0007 28.0002 20C28.2829 19.9993 28.5205 20.0953 28.7132 20.288C28.9059 20.4807 29.0015 20.718 29.0002 21V23H31.0002C31.2835 23 31.5212 23.096 31.7132 23.288C31.9052 23.48 32.0009 23.7173 32.0002 24C31.9995 24.2827 31.9035 24.5203 31.7122 24.713C31.5209 24.9057 31.2835 25.0013 31.0002 25H29.0002V27C29.0002 27.2833 28.9042 27.521 28.7122 27.713C28.5202 27.905 28.2829 28.0007 28.0002 28C27.7175 27.9993 27.4802 27.9033 27.2882 27.712C27.0962 27.5207 27.0002 27.2833 27.0002 27V25ZM12.0002 25C11.7169 25 11.4795 24.904 11.2882 24.712C11.0969 24.52 11.0009 24.2827 11.0002 24V19H10.8252C10.5085 19 10.2502 18.879 10.0502 18.637C9.8502 18.395 9.78353 18.116 9.8502 17.8L10.8502 12.8C10.9002 12.5667 11.0169 12.375 11.2002 12.225C11.3835 12.075 11.5919 12 11.8252 12H25.1752C25.4085 12 25.6169 12.075 25.8002 12.225C25.9835 12.375 26.1002 12.5667 26.1502 12.8L27.1502 17.8C27.2169 18.1167 27.1502 18.396 26.9502 18.638C26.7502 18.88 26.4919 19.0007 26.1752 19H26.0002V21C26.0002 21.2833 25.9042 21.521 25.7122 21.713C25.5202 21.905 25.2829 22.0007 25.0002 22C24.7175 21.9993 24.4802 21.9033 24.2882 21.712C24.0962 21.5207 24.0002 21.2833 24.0002 21V19H20.0002V24C20.0002 24.2833 19.9042 24.521 19.7122 24.713C19.5202 24.905 19.2829 25.0007 19.0002 25H12.0002ZM13.0002 23H18.0002V19H13.0002V23ZM12.0002 11C11.7169 11 11.4795 10.904 11.2882 10.712C11.0969 10.52 11.0009 10.2827 11.0002 10C10.9995 9.71733 11.0955 9.48 11.2882 9.288C11.4809 9.096 11.7182 9 12.0002 9H25.0002C25.2835 9 25.5212 9.096 25.7132 9.288C25.9052 9.48 26.0009 9.71733 26.0002 10C25.9995 10.2827 25.9035 10.5203 25.7122 10.713C25.5209 10.9057 25.2835 11.0013 25.0002 11H12.0002ZM12.0502 17H24.9502L24.3502 14H12.6502L12.0502 17Z" fill="#40196D"/>
</g>
<defs>
<filter id="filter0_d_11320_4083" x="0" y="0" width="42" height="42" filterUnits="userSpaceOnUse" color-interpolation-filters="sRGB">
<feFlood flood-opacity="0" result="BackgroundImageFix"/>
<feColorMatrix in="SourceAlpha" type="matrix" values="0 0 0 0 0 0 0 0 0 0 0 0 0 0 0 0 0 0 127 0" result="hardAlpha"/>
<feOffset dy="4"/>
<feGaussianBlur stdDeviation="2"/>
<feComposite in2="hardAlpha" operator="out"/>
<feColorMatrix type="matrix" values="0 0 0 0 0 0 0 0 0 0 0 0 0 0 0 0 0 0 0.06 0"/>
<feBlend mode="normal" in2="BackgroundImageFix" result="effect1_dropShadow_11320_4083"/>
<feBlend mode="normal" in="SourceGraphic" in2="effect1_dropShadow_11320_4083" result="shape"/>
</filter>
</defs>
</svg>
