<svg width="42" height="42" viewBox="0 0 42 42" fill="none" xmlns="http://www.w3.org/2000/svg">
<g filter="url(#filter0_d_11317_3951)">
<rect x="4" width="34" height="34" rx="8" fill="white"/>
<path d="M24.2901 13.85L19.5601 18.59L17.7101 16.73C17.5218 16.5417 17.2664 16.4359 17.0001 16.4359C16.7338 16.4359 16.4784 16.5417 16.2901 16.73C16.1018 16.9183 15.996 17.1737 15.996 17.44C15.996 17.5719 16.022 17.7024 16.0725 17.8242C16.1229 17.9461 16.1969 18.0568 16.2901 18.15L18.8501 20.71C18.9431 20.8037 19.0537 20.8781 19.1755 20.9289C19.2974 20.9797 19.4281 21.0058 19.5601 21.0058C19.6921 21.0058 19.8228 20.9797 19.9447 20.9289C20.0665 20.8781 20.1771 20.8037 20.2701 20.71L25.7101 15.27C25.8033 15.1768 25.8773 15.0661 25.9278 14.9442C25.9782 14.8224 26.0042 14.6919 26.0042 14.56C26.0042 14.4281 25.9782 14.2976 25.9278 14.1758C25.8773 14.0539 25.8033 13.9432 25.7101 13.85C25.6169 13.7568 25.5062 13.6828 25.3844 13.6323C25.2625 13.5819 25.132 13.5559 25.0001 13.5559C24.8683 13.5559 24.7377 13.5819 24.6159 13.6323C24.494 13.6828 24.3833 13.7568 24.2901 13.85ZM21.0001 7C19.6869 7 18.3865 7.25866 17.1733 7.7612C15.96 8.26375 14.8576 9.00035 13.929 9.92893C12.0537 11.8043 11.0001 14.3478 11.0001 17C10.9914 19.3091 11.7909 21.5485 13.2601 23.33L11.2601 25.33C11.1214 25.4706 11.0274 25.6492 10.99 25.8432C10.9526 26.0372 10.9735 26.2379 11.0501 26.42C11.1332 26.5999 11.2678 26.7511 11.437 26.8544C11.6061 26.9577 11.8021 27.0083 12.0001 27H21.0001C23.6523 27 26.1958 25.9464 28.0712 24.0711C29.9465 22.1957 31.0001 19.6522 31.0001 17C31.0001 14.3478 29.9465 11.8043 28.0712 9.92893C26.1958 8.05357 23.6523 7 21.0001 7ZM21.0001 25H14.4101L15.3401 24.07C15.5264 23.8826 15.6309 23.6292 15.6309 23.365C15.6309 23.1008 15.5264 22.8474 15.3401 22.66C14.0307 21.352 13.2153 19.6305 13.0328 17.7888C12.8503 15.947 13.3121 14.099 14.3393 12.5595C15.3666 11.02 16.8959 9.88436 18.6666 9.34597C20.4374 8.80759 22.34 8.8998 24.0503 9.60691C25.7607 10.314 27.173 11.5923 28.0465 13.2239C28.9201 14.8555 29.201 16.7395 28.8412 18.555C28.4815 20.3705 27.5034 22.005 26.0736 23.1802C24.6439 24.3554 22.8509 24.9985 21.0001 25Z" fill="#40196D"/>
</g>
<defs>
<filter id="filter0_d_11317_3951" x="0" y="0" width="42" height="42" filterUnits="userSpaceOnUse" color-interpolation-filters="sRGB">
<feFlood flood-opacity="0" result="BackgroundImageFix"/>
<feColorMatrix in="SourceAlpha" type="matrix" values="0 0 0 0 0 0 0 0 0 0 0 0 0 0 0 0 0 0 127 0" result="hardAlpha"/>
<feOffset dy="4"/>
<feGaussianBlur stdDeviation="2"/>
<feComposite in2="hardAlpha" operator="out"/>
<feColorMatrix type="matrix" values="0 0 0 0 0 0 0 0 0 0 0 0 0 0 0 0 0 0 0.06 0"/>
<feBlend mode="normal" in2="BackgroundImageFix" result="effect1_dropShadow_11317_3951"/>
<feBlend mode="normal" in="SourceGraphic" in2="effect1_dropShadow_11317_3951" result="shape"/>
</filter>
</defs>
</svg>
