<svg width="42" height="42" viewBox="0 0 42 42" fill="none" xmlns="http://www.w3.org/2000/svg">
<g filter="url(#filter0_d_11320_4047)">
<rect x="4" width="34" height="34" rx="8" fill="white"/>
<g clip-path="url(#clip0_11320_4047)">
<path d="M18.7889 12.3905C15.4974 10.1448 12.4289 11.8591 9.85742 14.4991L15.5489 17.9276M25.6117 19.2133C27.8574 22.5048 26.1431 25.5733 23.5031 28.1448L20.0746 22.4533" stroke="#40196D" stroke-width="1.71429" stroke-linecap="round" stroke-linejoin="round"/>
<path d="M18.0517 13.6043L24.3945 19.9472M15.5488 17.9072L20.0917 22.4501C23.726 20.2729 27.8574 18.1643 29.7431 16.2101C33.8231 12.1301 31.4574 6.54148 31.4574 6.54148C31.4574 6.54148 25.8688 4.17577 21.7888 8.25577C19.8345 10.1415 17.7088 14.2901 15.5488 17.9072Z" stroke="#40196D" stroke-width="1.71429" stroke-linecap="round" stroke-linejoin="round"/>
<path d="M27.0003 11.8549C27.2276 11.8549 27.4456 11.7646 27.6064 11.6039C27.7671 11.4431 27.8574 11.2251 27.8574 10.9978C27.8574 10.7704 27.7671 10.5524 27.6064 10.3917C27.4456 10.2309 27.2276 10.1406 27.0003 10.1406C26.773 10.1406 26.5549 10.2309 26.3942 10.3917C26.2334 10.5524 26.1431 10.7704 26.1431 10.9978C26.1431 11.2251 26.2334 11.4431 26.3942 11.6039C26.5549 11.7646 26.773 11.8549 27.0003 11.8549ZM15.3089 26.3235C14.3146 27.2835 9.85742 28.1406 9.85742 28.1406C9.85742 28.1406 10.7146 23.6835 11.6746 22.6892C12.0296 22.3097 12.4912 22.0465 12.9986 21.9344C13.5061 21.8223 14.0356 21.8665 14.5175 22.0611C14.9993 22.2557 15.411 22.5917 15.6982 23.0248C15.9854 23.4579 16.1347 23.9679 16.1266 24.4875C16.1203 24.8324 16.0447 25.1726 15.9042 25.4878C15.7637 25.8029 15.5612 26.0882 15.3089 26.3235Z" stroke="#40196D" stroke-width="1.71429" stroke-linecap="round" stroke-linejoin="round"/>
</g>
</g>
<defs>
<filter id="filter0_d_11320_4047" x="0" y="0" width="42" height="42" filterUnits="userSpaceOnUse" color-interpolation-filters="sRGB">
<feFlood flood-opacity="0" result="BackgroundImageFix"/>
<feColorMatrix in="SourceAlpha" type="matrix" values="0 0 0 0 0 0 0 0 0 0 0 0 0 0 0 0 0 0 127 0" result="hardAlpha"/>
<feOffset dy="4"/>
<feGaussianBlur stdDeviation="2"/>
<feComposite in2="hardAlpha" operator="out"/>
<feColorMatrix type="matrix" values="0 0 0 0 0 0 0 0 0 0 0 0 0 0 0 0 0 0 0.06 0"/>
<feBlend mode="normal" in2="BackgroundImageFix" result="effect1_dropShadow_11320_4047"/>
<feBlend mode="normal" in="SourceGraphic" in2="effect1_dropShadow_11320_4047" result="shape"/>
</filter>
<clipPath id="clip0_11320_4047">
<rect width="24" height="24" fill="white" transform="translate(9 5)"/>
</clipPath>
</defs>
</svg>
