<svg width="265" height="265" viewBox="0 0 265 265" fill="none" xmlns="http://www.w3.org/2000/svg">
<path d="M183.062 57.3984C183.062 57.3984 189.104 70.8604 188.892 74.6234C188.68 78.3864 174.105 204.738 166.155 215.285C158.205 225.832 153.488 223.712 153.488 223.712L183.062 57.3984Z" fill="#000001"/>
<path d="M153.435 223.712C153.435 223.712 77.7509 226.786 71.6029 222.175C65.4549 217.564 95.3999 61.2665 101.548 57.3975C107.696 53.5285 175.271 55.1185 182.956 57.3975C190.641 59.6765 163.081 223.341 153.435 223.712Z" fill="#469F78"/>
<path d="M153.859 210.356C152.852 212.37 150.838 213.695 148.559 213.748C134.196 214.013 75.472 214.702 74.624 210.462C73.67 205.639 101.018 66.8324 103.138 61.5854C105.258 56.3384 177.232 58.4584 179.511 60.2074C181.578 61.9564 165.996 185.923 153.859 210.356Z" fill="white"/>
<path d="M150.997 64.0241C150.997 64.0241 125.61 63.7061 123.967 64.0241C122.324 64.3421 120.787 70.0131 121.635 70.8611C122.483 71.7091 146.333 71.8681 149.195 70.8611C152.057 69.8541 153.011 64.0241 150.997 64.0241Z" fill="#000001"/>
<path d="M125.61 66.5122C125.61 66.5122 127.253 66.3532 127.094 67.9432C126.935 69.5332 124.762 68.8972 124.762 67.9432C124.762 66.9362 125.239 66.5122 125.61 66.5122Z" fill="#F3CB5C"/>
<path d="M102.555 217.671C102.555 217.671 117.289 216.823 117.448 218.254C117.607 219.685 98.2087 220.321 102.555 217.671Z" fill="#000001"/>
<path d="M158.48 76.3266L158.39 77.3828L168.635 78.2557L168.725 77.1995L158.48 76.3266Z" fill="#F2EBEB"/>
<path d="M158.254 79.9516L158.164 81.0078L168.409 81.8807L168.499 80.8245L158.254 79.9516Z" fill="#F2EBEB"/>
<g opacity="0.38">
<path d="M102.608 118.132C102.608 118.132 106.53 97.3558 107.431 97.0908C108.332 96.8258 130.38 96.1368 131.811 97.0908C133.242 98.0448 129.426 117.867 127.518 118.715C125.61 119.563 102.237 120.358 102.608 118.132Z" fill="#87CCDB"/>
</g>
<g opacity="0.35">
<path d="M136.581 118.132C136.581 118.132 140.503 97.3558 141.404 97.0908C142.305 96.8258 164.353 96.1368 165.784 97.0908C167.215 98.0448 163.77 117.973 161.862 118.821C159.954 119.669 136.157 120.358 136.581 118.132Z" fill="#469F78"/>
</g>
<g opacity="0.35">
<path d="M95.6121 155.288C95.6121 155.288 99.5341 134.512 100.435 134.247C101.336 133.982 123.384 133.293 124.815 134.247C126.246 135.201 122.43 155.023 120.522 155.871C118.614 156.719 95.1881 157.514 95.6121 155.288Z" fill="#EA8383"/>
</g>
<path d="M129.532 155.288C129.532 155.288 133.401 134.512 134.355 134.247C135.309 133.982 157.304 133.293 158.735 134.247C160.166 135.201 156.721 155.129 154.813 155.977C152.905 156.825 129.108 157.514 129.532 155.288Z" fill="#87CCDB"/>
<g opacity="0.38">
<path d="M88.6688 190.483C88.6688 190.483 92.5908 169.707 93.4918 169.442C94.3928 169.177 116.441 168.488 117.872 169.442C119.303 170.396 115.487 190.218 113.579 191.066C111.671 191.914 88.2448 192.709 88.6688 190.483Z" fill="#87CCDB"/>
</g>
<g opacity="0.38">
<path d="M122.642 190.483C122.642 190.483 126.511 169.707 127.465 169.442C128.419 169.177 150.414 168.488 151.845 169.442C153.276 170.396 149.831 190.324 147.923 191.172C146.015 192.02 122.218 192.709 122.642 190.483Z" fill="#F3CB5C"/>
</g>
<path d="M142.252 144.526L138.754 144.314L138.171 148.289L141.563 148.077L139.708 157.299L145.591 156.822L146.757 148.819L150.467 148.766L150.997 144.791L147.181 144.897C147.181 144.897 146.81 138.537 151.845 141.611L152.534 138.166C152.587 138.06 143.365 133.608 142.252 144.526Z" fill="white"/>
<path d="M50.138 55.0625C49.82 55.3805 49.555 55.7515 49.343 56.1225L49.29 56.0695C49.555 55.6985 49.873 55.3275 50.138 55.0625Z" fill="#000001"/>
<path d="M48.0709 58.4046L46.9579 60.8426L46.6929 60.7366L47.9119 58.3516L48.0709 58.4046Z" fill="#000001"/>
<path d="M46.1632 63.3326C45.9512 64.1806 45.7922 65.0286 45.6862 65.9296L45.2622 65.8766C45.3682 64.9756 45.5802 64.0746 45.8452 63.2266L46.1632 63.3326Z" fill="#000001"/>
<path d="M45.739 68.5234C45.845 69.3714 46.057 70.2194 46.428 71.0144L45.898 71.2264C45.527 70.3784 45.315 69.4774 45.209 68.5764L45.739 68.5234Z" fill="#000001"/>
<path d="M47.8061 73.1328C48.3891 73.7688 49.0781 74.2988 49.8201 74.7228L49.4491 75.3058C48.6541 74.8288 47.9651 74.2458 47.3291 73.5568L47.8061 73.1328Z" fill="#000001"/>
<path d="M52.1522 75.8906L53.4242 76.2616L54.0602 76.4206L54.6962 76.5796L54.4842 77.3746L53.8482 77.2156L53.2122 77.0036L51.8872 76.5796L52.1522 75.8906Z" fill="#000001"/>
<path d="M57.293 77.0625C58.141 77.1685 59.042 77.2745 59.89 77.2745V78.1755C58.989 78.1225 58.088 78.0695 57.187 77.9105L57.293 77.0625Z" fill="#000001"/>
<path d="M62.4868 77.1611C63.3348 77.0551 64.1828 76.8961 64.9778 76.5781L65.2958 77.4791C64.3948 77.7441 63.4938 77.9561 62.5928 78.0621L62.4868 77.1611Z" fill="#000001"/>
<path d="M67.2568 75.5241C67.9458 75.0471 68.5818 74.5171 69.1118 73.8281L69.9068 74.4111C69.3238 75.1531 68.6348 75.7891 67.8398 76.3191L67.2568 75.5241Z" fill="#000001"/>
<path d="M70.0128 71.6563C70.0658 71.3913 69.9598 71.0733 69.8008 70.8613C69.6948 70.8083 69.5888 70.7553 69.4828 70.7553C69.4298 70.7553 69.3238 70.7553 69.2708 70.7553C69.2178 70.8083 69.1648 70.8083 69.0588 70.8083L68.6348 69.9073C68.7938 69.8543 68.8998 69.8013 69.0588 69.7483C69.2178 69.6953 69.3768 69.6953 69.4828 69.6953C69.8008 69.6953 70.1718 69.8013 70.4368 70.0133C70.7018 70.2253 70.8608 70.4903 70.9668 70.8083C71.0198 71.0733 71.0728 71.3383 71.0198 71.6563H70.0128Z" fill="#000001"/>
<path d="M67.6811 72.6584C67.3631 73.4534 67.0981 74.2484 66.9921 75.0964L65.9321 74.9374C66.0911 74.0364 66.3561 73.1354 66.7271 72.2344L67.6811 72.6584Z" fill="#000001"/>
<path d="M66.8329 77.6406C66.8859 78.4886 66.992 79.3366 67.204 80.1846L66.197 80.4496C65.932 79.5486 65.8259 78.6476 65.7729 77.6936L66.8329 77.6406Z" fill="#000001"/>
<path d="M68.1581 82.5156C68.5821 83.2576 69.0591 83.9466 69.6951 84.5296L69.0061 85.2186C68.3171 84.5826 67.7871 83.7876 67.3101 82.9926L68.1581 82.5156Z" fill="#000001"/>
<path d="M71.7092 86.125C72.4512 86.549 73.2462 86.92 74.0412 87.185L73.7232 88.086C72.8222 87.821 71.9742 87.45 71.1792 86.973L71.7092 86.125Z" fill="#000001"/>
<path d="M76.532 87.7656C77.38 87.9246 78.281 87.9776 79.129 88.0306L79.076 88.9316C78.175 88.8786 77.274 88.8256 76.373 88.6666L76.532 87.7656Z" fill="#000001"/>
<path d="M81.7788 88.0312L84.4818 88.0842L84.4288 88.9322H81.8318L81.7788 88.0312Z" fill="#000001"/>
<path d="M87.1851 88.3438L89.8351 88.8737L89.6761 89.6158L87.0791 89.1387L87.1851 88.3438Z" fill="#000001"/>
<path d="M92.4322 89.6172L94.9232 90.5712L94.6582 91.2072L92.2202 90.3062L92.4322 89.6172Z" fill="#000001"/>
<path d="M97.3612 91.7891L99.6402 93.1671L99.3752 93.6441L97.0962 92.3191L97.3612 91.7891Z" fill="#000001"/>
<path d="M101.813 94.7578L103.827 96.5598L103.615 96.8248L101.548 95.1288L101.813 94.7578Z" fill="#000001"/>
<path d="M105.735 98.4688L107.484 100.483L107.325 100.589L105.523 98.6278L105.735 98.4688Z" fill="#000001"/>
<path d="M109.021 102.656L109.71 103.822L108.968 102.709L109.021 102.656Z" fill="#000001"/>
<path d="M47.1702 50.2406C47.1702 50.2406 52.7352 55.5406 62.0102 52.3606C71.2852 49.1806 75.9492 42.0786 75.5782 33.1216C75.5782 33.1216 78.9702 30.0476 78.1222 30.0476H76.0022C76.0022 30.0476 77.6982 28.0336 77.1152 28.0336C76.2142 28.1396 75.3132 28.3516 74.4652 28.5636C74.4652 28.5636 72.4512 26.3906 68.4232 26.3906C64.3952 26.3906 62.3812 31.4256 62.9112 34.6056C62.9112 34.6056 60.3672 35.6126 56.1802 33.3336C51.9932 31.0546 50.1382 27.3976 49.2902 28.0336C48.4422 28.6696 47.8062 32.9626 50.8272 36.0896C50.8272 36.0896 47.4352 34.8176 49.1842 37.9976C50.9332 41.1776 52.7352 42.2906 52.7352 42.2906C52.7352 42.2906 50.2442 41.5486 50.5092 42.2906C50.7742 43.0326 52.8942 47.0606 57.1342 47.2196C57.1342 47.2196 54.0072 50.3466 50.8802 50.1346C47.7532 49.9226 46.6402 49.0746 47.1702 50.2406Z" fill="#87CCDB"/>
<path d="M58.1411 122.961C62.4871 124.498 66.8331 126.088 71.1791 127.731C75.5251 129.374 79.8181 131.07 84.1111 132.766C88.4041 134.462 92.6971 136.211 96.9371 138.013C101.177 139.815 105.47 141.67 109.657 143.578C105.311 142.041 100.965 140.451 96.6191 138.808C92.2731 137.165 87.9801 135.469 83.6871 133.773C79.3941 132.077 75.1011 130.275 70.8611 128.526C66.6211 126.777 62.3811 124.869 58.1411 122.961Z" fill="#000001"/>
<path d="M51.728 103.139C49.396 99.429 30.687 99.111 19.504 99.535C15.9 99.641 13.038 101.708 12.826 104.358C12.19 111.407 11.289 125.24 13.25 128.897C14.363 130.964 20.617 132.236 27.825 132.766C29.468 136.052 32.118 140.822 33.072 139.762C33.92 138.808 34.715 135.575 35.245 133.031C42.983 133.031 50.191 132.077 51.781 130.275C55.332 126.035 54.007 106.796 51.728 103.139Z" fill="#EA8383"/>
<path d="M33.6548 127.147C32.3298 127.147 31.0048 127.094 29.6798 126.935C26.9238 126.67 23.5318 125.981 22.8428 124.338C21.9418 122.218 22.2068 115.01 22.6308 109.339C22.8428 107.431 24.3798 106 26.2878 105.947C29.6268 105.788 40.6508 105.523 42.0818 108.438C43.1948 110.717 43.9368 122.483 42.0288 125.239C41.1278 126.67 37.3118 127.147 33.6548 127.147ZM26.3938 107.007C25.0158 107.007 23.9028 108.067 23.7438 109.392C23.2138 117.13 23.2668 122.43 23.9028 123.914C24.1678 124.55 25.9168 125.451 29.8388 125.875C34.8738 126.405 40.4388 125.822 41.2338 124.603C42.7708 122.377 42.2938 111.035 41.1808 108.862C40.4918 107.484 34.2378 106.689 26.3938 107.007Z" fill="white"/>
<path d="M32.9661 122.488C31.4291 122.488 29.8921 121.693 28.6201 120.156C26.8181 118.248 26.6591 115.28 28.1961 113.16C28.9911 111.941 30.2101 111.04 31.6411 110.722C33.4431 110.298 35.4041 110.881 36.6761 112.259C38.1601 113.743 38.7961 115.863 38.3721 117.93C37.8951 120.103 36.2521 121.799 34.0791 122.382C33.6551 122.435 33.3371 122.488 32.9661 122.488ZM32.8071 111.623C32.4891 111.623 32.1711 111.676 31.8531 111.729C30.6871 111.994 29.6801 112.736 29.0971 113.743C27.7721 115.757 27.9311 117.665 29.4681 119.467C31.1641 121.481 32.7541 121.587 33.8671 121.322C35.6161 120.792 36.9411 119.414 37.3651 117.612C37.6831 115.916 37.1531 114.167 35.9341 112.948C35.0331 112.1 33.9201 111.623 32.8071 111.623Z" fill="white"/>
<path d="M38.4247 109.656C38.1597 109.709 37.9477 109.868 37.7887 110.08C37.5237 110.398 37.5237 110.928 37.8947 111.246C38.2127 111.67 38.8487 111.776 39.2727 111.405C39.4317 111.246 39.5907 111.087 39.6437 110.875C39.7497 110.345 39.3787 109.815 38.8487 109.709C38.6897 109.656 38.5837 109.656 38.4247 109.656Z" fill="#F3CB5C"/>
<path d="M101.919 178.93C101.124 180.52 100.117 182.057 98.9506 183.435C97.7846 184.813 96.5126 186.138 95.1876 187.357C92.4846 189.742 89.5166 191.809 86.3366 193.558L83.9516 194.83C83.1566 195.201 82.3086 195.572 81.4606 195.943L80.2416 196.473C79.8176 196.632 79.3936 196.791 78.9696 196.95L76.4256 197.851C74.7296 198.434 72.9806 198.858 71.2316 199.388C69.4826 199.759 67.7336 200.13 65.9316 200.501C67.6276 199.918 69.3766 199.441 71.0726 198.911L73.6166 198.01L74.8886 197.586L75.5246 197.374L76.1606 197.109L78.6516 196.102C79.0756 195.943 79.4996 195.784 79.8706 195.572L81.0896 194.989L83.5276 193.876L85.8596 192.604C88.9866 190.908 91.9546 188.947 94.7106 186.721C96.0886 185.608 97.4136 184.389 98.6326 183.117C99.7986 181.792 100.912 180.414 101.919 178.93Z" fill="#000001"/>
<path d="M31.482 192.29C31.482 192.29 36.464 192.025 36.676 192.29C36.888 192.555 38.054 210.575 37.312 210.84C36.57 211.105 30.793 210.84 30.793 210.84L31.482 192.29Z" fill="#87CCDB"/>
<path d="M33.6549 181.793C33.6549 181.793 30.1569 182.376 30.7399 185.556C31.3229 188.736 34.7679 189.584 37.5239 186.934C40.2799 184.284 36.0399 181.316 33.6549 181.793Z" fill="#87CCDB"/>
<path d="M41.6577 210.999C41.6577 210.999 46.9047 210.84 47.6467 210.575C48.3887 210.31 47.6467 198.279 47.6467 198.279C47.6467 198.279 51.5687 193.615 52.9997 197.802C54.4307 201.989 54.1127 211.317 54.4837 210.999C54.8547 210.681 59.4657 210.575 59.8367 210.469C60.2077 210.363 60.4727 199.498 58.1407 194.622C55.8087 189.746 48.9717 191.601 47.1697 194.039C47.1697 194.039 47.2757 191.495 46.9047 191.548C46.5337 191.601 41.8697 191.654 41.6577 192.131C41.4457 192.608 41.6577 210.999 41.6577 210.999Z" fill="#87CCDB"/>
<path d="M203.043 84.5859C199.386 86.4939 195.729 88.2959 192.019 90.0979C188.309 91.8999 184.599 93.5959 180.836 95.3449C177.073 97.0939 173.363 98.7369 169.6 100.327C165.837 101.917 162.021 103.56 158.205 105.044C161.862 103.136 165.519 101.334 169.229 99.5319C172.939 97.7299 176.649 96.0339 180.412 94.2849C184.175 92.5359 187.885 90.8929 191.648 89.3029C195.411 87.7129 199.227 86.1229 203.043 84.5859Z" fill="#000001"/>
<path d="M228.483 47.8068C223.395 48.9198 219.049 52.2588 216.187 56.6578C212.424 62.4348 209.244 71.7628 217.671 81.7798C215.816 84.8538 213.113 89.8888 214.809 90.3128C216.505 90.7368 222.282 89.7298 225.409 88.2458C237.387 94.5528 249.524 85.4898 252.492 73.7238C255.566 61.2158 244.542 44.2558 228.483 47.8068Z" fill="#469F78"/>
<path d="M230.073 63.9745C230.073 63.9745 227.635 57.7205 226.787 57.6145C225.939 57.5085 224.084 57.6145 223.395 58.1975C222.706 58.7805 219.738 61.3775 223.13 68.5855C226.522 75.7935 234.26 80.0865 239.136 80.1395C244.012 80.1925 245.337 75.9525 244.966 75.2105C244.595 74.4685 239.613 71.5535 238.977 71.8715C238.341 72.1895 235.638 74.6275 235.638 74.6275C235.638 74.6275 229.437 70.2285 228.112 68.3735C226.893 66.5185 230.391 64.8225 230.073 63.9745Z" fill="white"/>
<path d="M179.935 237.543C179.935 237.543 179.14 202.033 179.935 201.185C180.73 200.337 221.593 199.807 221.593 201.821C221.593 203.835 222.388 236.43 221.593 237.967C220.798 239.504 179.935 237.543 179.935 237.543Z" fill="#F3CB5C"/>
<path d="M194.298 217.034C194.298 217.034 193.662 209.932 198.75 207.918C203.838 205.904 207.707 210.568 207.124 217.299C207.124 217.299 209.721 216.027 210.145 216.663C210.569 217.299 208.714 217.723 208.979 218.306C209.244 218.889 207.654 218.995 207.707 220.585C207.76 222.175 213.219 226.362 212.636 226.574C212.053 226.786 209.085 227.104 208.873 228.694C208.661 230.284 206.223 229.224 203.043 230.814C199.863 232.404 198.644 229.436 195.093 229.436C191.542 229.436 194.192 227.952 191.913 227.369C189.634 226.786 187.567 226.521 190.058 225.355C192.549 224.189 194.987 220.373 194.033 219.737C193.079 219.101 190.111 216.875 191.224 216.61C192.337 216.345 194.298 217.034 194.298 217.034Z" fill="white"/>
<path d="M137.376 177.336C137.164 179.88 137.217 182.477 137.641 185.021C138.012 187.565 138.648 190.056 139.549 192.441C141.351 197.211 144.266 201.504 148.029 204.949C151.739 208.394 156.244 211.044 160.961 213.005C165.731 214.966 170.66 216.45 175.695 217.457C170.554 216.874 165.466 215.655 160.643 213.8C159.424 213.323 158.205 212.846 157.039 212.263C156.456 211.998 155.873 211.733 155.29 211.415L153.594 210.461C151.368 209.136 149.248 207.546 147.34 205.797C145.432 203.995 143.736 201.981 142.252 199.808C140.821 197.635 139.655 195.25 138.807 192.812C137.058 187.777 136.581 182.477 137.376 177.336Z" fill="#000001"/>
</svg>
