<svg width="337" height="423" viewBox="0 0 337 423" fill="none" xmlns="http://www.w3.org/2000/svg">
<g clip-path="url(#clip0_10657_4994)">
<rect width="337" height="423" rx="12" fill="white"/>
<path d="M23.8267 92H21.4972L26.7315 77.4545H29.267L34.5014 92H32.1719L28.0597 80.0966H27.946L23.8267 92ZM24.2173 86.304H31.7741V88.1506H24.2173V86.304ZM38.605 85.5227V92H36.4815V81.0909H38.5198V82.8665H38.6548C38.9057 82.2888 39.2987 81.8248 39.8337 81.4744C40.3735 81.1241 41.053 80.9489 41.8721 80.9489C42.6155 80.9489 43.2665 81.1051 43.8252 81.4176C44.3839 81.7254 44.8172 82.1847 45.1249 82.7955C45.4327 83.4062 45.5866 84.1615 45.5866 85.0611V92H43.463V85.3168C43.463 84.526 43.257 83.9081 42.8451 83.4631C42.4332 83.0133 41.8674 82.7884 41.1477 82.7884C40.6552 82.7884 40.2173 82.8949 39.8337 83.108C39.4549 83.321 39.1543 83.6335 38.9317 84.0455C38.7139 84.4527 38.605 84.9451 38.605 85.5227ZM66.633 84.7273C66.633 86.2803 66.3489 87.6155 65.7807 88.733C65.2125 89.8456 64.4336 90.7027 63.444 91.304C62.4592 91.9006 61.3394 92.1989 60.0847 92.1989C58.8252 92.1989 57.7007 91.9006 56.7111 91.304C55.7262 90.7027 54.9497 89.8433 54.3815 88.7259C53.8134 87.6084 53.5293 86.2756 53.5293 84.7273C53.5293 83.1742 53.8134 81.8414 54.3815 80.7287C54.9497 79.6113 55.7262 78.7543 56.7111 78.1577C57.7007 77.5563 58.8252 77.2557 60.0847 77.2557C61.3394 77.2557 62.4592 77.5563 63.444 78.1577C64.4336 78.7543 65.2125 79.6113 65.7807 80.7287C66.3489 81.8414 66.633 83.1742 66.633 84.7273ZM64.4597 84.7273C64.4597 83.5436 64.2679 82.5469 63.8844 81.7372C63.5056 80.9228 62.9848 80.3073 62.3219 79.8906C61.6637 79.4692 60.918 79.2585 60.0847 79.2585C59.2466 79.2585 58.4985 79.4692 57.8403 79.8906C57.1822 80.3073 56.6614 80.9228 56.2778 81.7372C55.8991 82.5469 55.7097 83.5436 55.7097 84.7273C55.7097 85.911 55.8991 86.91 56.2778 87.7244C56.6614 88.5341 57.1822 89.1496 57.8403 89.571C58.4985 89.9877 59.2466 90.196 60.0847 90.196C60.918 90.196 61.6637 89.9877 62.3219 89.571C62.9848 89.1496 63.5056 88.5341 63.8844 87.7244C64.2679 86.91 64.4597 85.911 64.4597 84.7273ZM78.581 81.0909L74.6251 92H72.3523L68.3893 81.0909H70.6691L73.4319 89.4858H73.5455L76.3012 81.0909H78.581ZM84.9574 92.2202C83.8826 92.2202 82.9569 91.9905 82.1804 91.5312C81.4086 91.0672 80.812 90.4162 80.3906 89.5781C79.974 88.7353 79.7656 87.7481 79.7656 86.6165C79.7656 85.4991 79.974 84.5142 80.3906 83.6619C80.812 82.8097 81.3991 82.1444 82.152 81.6662C82.9096 81.188 83.795 80.9489 84.8082 80.9489C85.4238 80.9489 86.0204 81.0507 86.598 81.2543C87.1757 81.4579 87.6941 81.7775 88.1534 82.2131C88.6127 82.6487 88.9749 83.2145 89.2401 83.9105C89.5052 84.6018 89.6378 85.4422 89.6378 86.4318V87.1847H80.9659V85.5938H87.5568C87.5568 85.035 87.4432 84.5402 87.2159 84.1094C86.9886 83.6738 86.669 83.3305 86.2571 83.0795C85.8499 82.8286 85.3717 82.7031 84.8224 82.7031C84.2259 82.7031 83.705 82.8499 83.2599 83.1435C82.8196 83.4323 82.4787 83.8111 82.2372 84.2798C82.0005 84.7438 81.8821 85.2481 81.8821 85.7926V87.0355C81.8821 87.7647 82.0099 88.3849 82.2656 88.8963C82.526 89.4077 82.8883 89.7983 83.3523 90.0682C83.8163 90.3333 84.3584 90.4659 84.9787 90.4659C85.3812 90.4659 85.7481 90.4091 86.0795 90.2955C86.411 90.1771 86.6974 90.0019 86.9389 89.7699C87.1804 89.5379 87.3651 89.2514 87.4929 88.9105L89.5028 89.2727C89.3419 89.8646 89.053 90.383 88.6364 90.8281C88.2244 91.2685 87.706 91.6117 87.081 91.858C86.4607 92.0994 85.7528 92.2202 84.9574 92.2202ZM92.044 92V81.0909H94.0965V82.8239H94.2102C94.409 82.2367 94.7594 81.7751 95.2613 81.4389C95.7679 81.098 96.3408 80.9276 96.98 80.9276C97.1126 80.9276 97.2689 80.9323 97.4488 80.9418C97.6335 80.9512 97.7779 80.9631 97.882 80.9773V83.0085C97.7968 82.9848 97.6453 82.9588 97.4275 82.9304C97.2097 82.8973 96.9919 82.8807 96.7741 82.8807C96.2722 82.8807 95.8247 82.9872 95.4318 83.2003C95.0435 83.4086 94.7357 83.6998 94.5085 84.0739C94.2812 84.4432 94.1675 84.8646 94.1675 85.3381V92H92.044ZM109.434 81.0909L105.478 92H103.205L99.2424 81.0909H101.522L104.285 89.4858H104.399L107.154 81.0909H109.434ZM111.48 92V81.0909H113.603V92H111.48ZM112.552 79.4077C112.183 79.4077 111.866 79.2846 111.601 79.0384C111.34 78.7874 111.21 78.4891 111.21 78.1435C111.21 77.7931 111.34 77.4948 111.601 77.2486C111.866 76.9976 112.183 76.8722 112.552 76.8722C112.922 76.8722 113.237 76.9976 113.497 77.2486C113.762 77.4948 113.895 77.7931 113.895 78.1435C113.895 78.4891 113.762 78.7874 113.497 79.0384C113.237 79.2846 112.922 79.4077 112.552 79.4077ZM121.212 92.2202C120.137 92.2202 119.212 91.9905 118.435 91.5312C117.663 91.0672 117.067 90.4162 116.645 89.5781C116.229 88.7353 116.02 87.7481 116.02 86.6165C116.02 85.4991 116.229 84.5142 116.645 83.6619C117.067 82.8097 117.654 82.1444 118.407 81.6662C119.164 81.188 120.05 80.9489 121.063 80.9489C121.678 80.9489 122.275 81.0507 122.853 81.2543C123.43 81.4579 123.949 81.7775 124.408 82.2131C124.867 82.6487 125.23 83.2145 125.495 83.9105C125.76 84.6018 125.892 85.4422 125.892 86.4318V87.1847H117.221V85.5938H123.812C123.812 85.035 123.698 84.5402 123.471 84.1094C123.243 83.6738 122.924 83.3305 122.512 83.0795C122.105 82.8286 121.626 82.7031 121.077 82.7031C120.481 82.7031 119.96 82.8499 119.515 83.1435C119.074 83.4323 118.733 83.8111 118.492 84.2798C118.255 84.7438 118.137 85.2481 118.137 85.7926V87.0355C118.137 87.7647 118.265 88.3849 118.52 88.8963C118.781 89.4077 119.143 89.7983 119.607 90.0682C120.071 90.3333 120.613 90.4659 121.233 90.4659C121.636 90.4659 122.003 90.4091 122.334 90.2955C122.666 90.1771 122.952 90.0019 123.194 89.7699C123.435 89.5379 123.62 89.2514 123.748 88.9105L125.758 89.2727C125.597 89.8646 125.308 90.383 124.891 90.8281C124.479 91.2685 123.961 91.6117 123.336 91.858C122.715 92.0994 122.008 92.2202 121.212 92.2202ZM130.644 92L127.434 81.0909H129.629L131.766 89.1023H131.873L134.018 81.0909H136.212L138.343 89.0668H138.45L140.573 81.0909H142.768L139.565 92H137.398L135.183 84.1236H135.019L132.803 92H130.644ZM154.771 92.2202C153.748 92.2202 152.856 91.9858 152.094 91.517C151.331 91.0483 150.739 90.3925 150.318 89.5497C149.897 88.7069 149.686 87.7221 149.686 86.5952C149.686 85.4635 149.897 84.474 150.318 83.6264C150.739 82.7789 151.331 82.1207 152.094 81.652C152.856 81.1832 153.748 80.9489 154.771 80.9489C155.794 80.9489 156.686 81.1832 157.449 81.652C158.211 82.1207 158.803 82.7789 159.224 83.6264C159.646 84.474 159.856 85.4635 159.856 86.5952C159.856 87.7221 159.646 88.7069 159.224 89.5497C158.803 90.3925 158.211 91.0483 157.449 91.517C156.686 91.9858 155.794 92.2202 154.771 92.2202ZM154.778 90.4375C155.441 90.4375 155.99 90.2623 156.426 89.9119C156.862 89.5616 157.184 89.0952 157.392 88.5128C157.605 87.9304 157.712 87.2888 157.712 86.5881C157.712 85.892 157.605 85.2528 157.392 84.6705C157.184 84.0833 156.862 83.6122 156.426 83.2571C155.99 82.902 155.441 82.7244 154.778 82.7244C154.111 82.7244 153.557 82.902 153.116 83.2571C152.681 83.6122 152.356 84.0833 152.143 84.6705C151.935 85.2528 151.831 85.892 151.831 86.5881C151.831 87.2888 151.935 87.9304 152.143 88.5128C152.356 89.0952 152.681 89.5616 153.116 89.9119C153.557 90.2623 154.111 90.4375 154.778 90.4375ZM167.469 81.0909V82.7955H161.304V81.0909H167.469ZM162.994 92V79.8267C162.994 79.1449 163.143 78.5791 163.442 78.1293C163.74 77.6747 164.135 77.3362 164.628 77.1136C165.12 76.8864 165.655 76.7727 166.233 76.7727C166.659 76.7727 167.023 76.8082 167.326 76.8793C167.63 76.9455 167.854 77.0071 168.001 77.0639L167.504 78.7827C167.405 78.7543 167.277 78.7211 167.121 78.6832C166.964 78.6406 166.775 78.6193 166.552 78.6193C166.036 78.6193 165.667 78.7472 165.444 79.0028C165.227 79.2585 165.118 79.6278 165.118 80.1108V92H162.994ZM180.145 81.0909V82.7955H174.186V81.0909H180.145ZM175.784 78.4773H177.908V88.7969C177.908 89.2088 177.969 89.5189 178.092 89.7273C178.215 89.9309 178.374 90.0705 178.568 90.1463C178.767 90.2173 178.982 90.2528 179.214 90.2528C179.385 90.2528 179.534 90.241 179.662 90.2173C179.79 90.1937 179.889 90.1747 179.96 90.1605L180.344 91.9148C180.221 91.9621 180.045 92.0095 179.818 92.0568C179.591 92.1089 179.307 92.1373 178.966 92.142C178.407 92.1515 177.886 92.0521 177.403 91.8438C176.92 91.6354 176.53 91.3134 176.232 90.8778C175.933 90.4422 175.784 89.8954 175.784 89.2372V78.4773ZM184.902 85.5227V92H182.778V77.4545H184.874V82.8665H185.008C185.264 82.2794 185.655 81.813 186.18 81.4673C186.706 81.1217 187.392 80.9489 188.24 80.9489C188.988 80.9489 189.642 81.1027 190.2 81.4105C190.764 81.7183 191.199 82.1776 191.507 82.7884C191.82 83.3944 191.976 84.152 191.976 85.0611V92H189.852V85.3168C189.852 84.5166 189.646 83.8963 189.234 83.456C188.822 83.0109 188.249 82.7884 187.516 82.7884C187.014 82.7884 186.564 82.8949 186.166 83.108C185.773 83.321 185.463 83.6335 185.236 84.0455C185.013 84.4527 184.902 84.9451 184.902 85.5227ZM199.561 92.2202C198.486 92.2202 197.561 91.9905 196.784 91.5312C196.013 91.0672 195.416 90.4162 194.995 89.5781C194.578 88.7353 194.37 87.7481 194.37 86.6165C194.37 85.4991 194.578 84.5142 194.995 83.6619C195.416 82.8097 196.003 82.1444 196.756 81.6662C197.513 81.188 198.399 80.9489 199.412 80.9489C200.028 80.9489 200.624 81.0507 201.202 81.2543C201.78 81.4579 202.298 81.7775 202.757 82.2131C203.217 82.6487 203.579 83.2145 203.844 83.9105C204.109 84.6018 204.242 85.4422 204.242 86.4318V87.1847H195.57V85.5938H202.161C202.161 85.035 202.047 84.5402 201.82 84.1094C201.593 83.6738 201.273 83.3305 200.861 83.0795C200.454 82.8286 199.976 82.7031 199.426 82.7031C198.83 82.7031 198.309 82.8499 197.864 83.1435C197.424 83.4323 197.083 83.8111 196.841 84.2798C196.604 84.7438 196.486 85.2481 196.486 85.7926V87.0355C196.486 87.7647 196.614 88.3849 196.87 88.8963C197.13 89.4077 197.492 89.7983 197.956 90.0682C198.42 90.3333 198.962 90.4659 199.583 90.4659C199.985 90.4659 200.352 90.4091 200.683 90.2955C201.015 90.1771 201.301 90.0019 201.543 89.7699C201.784 89.5379 201.969 89.2514 202.097 88.9105L204.107 89.2727C203.946 89.8646 203.657 90.383 203.24 90.8281C202.828 91.2685 202.31 91.6117 201.685 91.858C201.065 92.0994 200.357 92.2202 199.561 92.2202ZM34.679 106.185H32.4631C32.3778 105.711 32.2192 105.295 31.9872 104.935C31.7552 104.575 31.4711 104.269 31.1349 104.018C30.7988 103.768 30.4223 103.578 30.0057 103.45C29.5938 103.322 29.1558 103.259 28.6918 103.259C27.8537 103.259 27.1032 103.469 26.4403 103.891C25.7822 104.312 25.2614 104.93 24.8778 105.744C24.4991 106.559 24.3097 107.553 24.3097 108.727C24.3097 109.911 24.4991 110.91 24.8778 111.724C25.2614 112.539 25.7846 113.154 26.4474 113.571C27.1103 113.988 27.8561 114.196 28.6847 114.196C29.1439 114.196 29.5795 114.134 29.9915 114.011C30.4081 113.884 30.7846 113.696 31.1207 113.45C31.4569 113.204 31.741 112.903 31.973 112.548C32.2098 112.188 32.3731 111.777 32.4631 111.312L34.679 111.32C34.5606 112.035 34.331 112.693 33.9901 113.294C33.6539 113.891 33.2206 114.407 32.6903 114.842C32.1648 115.273 31.5634 115.607 30.8864 115.844C30.2093 116.08 29.4706 116.199 28.6705 116.199C27.411 116.199 26.2888 115.901 25.304 115.304C24.3191 114.703 23.5426 113.843 22.9744 112.726C22.411 111.608 22.1293 110.276 22.1293 108.727C22.1293 107.174 22.4134 105.841 22.9815 104.729C23.5497 103.611 24.3262 102.754 25.3111 102.158C26.2959 101.556 27.4157 101.256 28.6705 101.256C29.4422 101.256 30.1619 101.367 30.8295 101.589C31.5019 101.807 32.1056 102.129 32.6406 102.555C33.1757 102.977 33.6184 103.493 33.9688 104.104C34.3191 104.71 34.5559 105.403 34.679 106.185ZM41.7798 116.22C40.757 116.22 39.8645 115.986 39.1022 115.517C38.3399 115.048 37.748 114.393 37.3266 113.55C36.9052 112.707 36.6945 111.722 36.6945 110.595C36.6945 109.464 36.9052 108.474 37.3266 107.626C37.748 106.779 38.3399 106.121 39.1022 105.652C39.8645 105.183 40.757 104.949 41.7798 104.949C42.8025 104.949 43.695 105.183 44.4573 105.652C45.2196 106.121 45.8115 106.779 46.2329 107.626C46.6543 108.474 46.865 109.464 46.865 110.595C46.865 111.722 46.6543 112.707 46.2329 113.55C45.8115 114.393 45.2196 115.048 44.4573 115.517C43.695 115.986 42.8025 116.22 41.7798 116.22ZM41.7869 114.438C42.4497 114.438 42.999 114.262 43.4346 113.912C43.8702 113.562 44.1922 113.095 44.4005 112.513C44.6136 111.93 44.7201 111.289 44.7201 110.588C44.7201 109.892 44.6136 109.253 44.4005 108.67C44.1922 108.083 43.8702 107.612 43.4346 107.257C42.999 106.902 42.4497 106.724 41.7869 106.724C41.1192 106.724 40.5653 106.902 40.1249 107.257C39.6893 107.612 39.365 108.083 39.1519 108.67C38.9436 109.253 38.8394 109.892 38.8394 110.588C38.8394 111.289 38.9436 111.93 39.1519 112.513C39.365 113.095 39.6893 113.562 40.1249 113.912C40.5653 114.262 41.1192 114.438 41.7869 114.438ZM49.2854 116V105.091H51.3237V106.866H51.4587C51.6859 106.265 52.0576 105.796 52.5737 105.46C53.0898 105.119 53.7077 104.949 54.4274 104.949C55.1566 104.949 55.7674 105.119 56.2598 105.46C56.757 105.801 57.1239 106.27 57.3607 106.866H57.4743C57.7347 106.284 58.149 105.82 58.7172 105.474C59.2854 105.124 59.9625 104.949 60.7484 104.949C61.738 104.949 62.5453 105.259 63.1703 105.879C63.8 106.5 64.1149 107.435 64.1149 108.685V116H61.9913V108.884C61.9913 108.145 61.7901 107.61 61.3876 107.278C60.9852 106.947 60.5046 106.781 59.9459 106.781C59.2546 106.781 58.7172 106.994 58.3337 107.42C57.9501 107.842 57.7584 108.384 57.7584 109.047V116H55.6419V108.749C55.6419 108.157 55.4572 107.681 55.0879 107.321C54.7186 106.961 54.238 106.781 53.6462 106.781C53.2437 106.781 52.872 106.888 52.5311 107.101C52.1949 107.309 51.9227 107.6 51.7143 107.974C51.5107 108.348 51.4089 108.782 51.4089 109.274V116H49.2854ZM67.0112 116V105.091H69.0495V106.866H69.1844C69.4117 106.265 69.7834 105.796 70.2995 105.46C70.8156 105.119 71.4335 104.949 72.1532 104.949C72.8824 104.949 73.4932 105.119 73.9856 105.46C74.4827 105.801 74.8497 106.27 75.0864 106.866H75.2001C75.4605 106.284 75.8748 105.82 76.443 105.474C77.0112 105.124 77.6882 104.949 78.4742 104.949C79.4638 104.949 80.2711 105.259 80.8961 105.879C81.5258 106.5 81.8407 107.435 81.8407 108.685V116H79.7171V108.884C79.7171 108.145 79.5159 107.61 79.1134 107.278C78.711 106.947 78.2304 106.781 77.6717 106.781C76.9804 106.781 76.443 106.994 76.0594 107.42C75.6759 107.842 75.4842 108.384 75.4842 109.047V116H73.3677V108.749C73.3677 108.157 73.183 107.681 72.8137 107.321C72.4444 106.961 71.9638 106.781 71.3719 106.781C70.9695 106.781 70.5978 106.888 70.2569 107.101C69.9207 107.309 69.6485 107.6 69.4401 107.974C69.2365 108.348 69.1347 108.782 69.1347 109.274V116H67.0112ZM91.6474 111.476V105.091H93.7781V116H91.6901V114.111H91.5764C91.3255 114.693 90.923 115.179 90.369 115.567C89.8198 115.95 89.1356 116.142 88.3165 116.142C87.6157 116.142 86.9955 115.988 86.4557 115.68C85.9206 115.368 85.4992 114.906 85.1915 114.295C84.8884 113.685 84.7369 112.929 84.7369 112.03V105.091H86.8605V111.774C86.8605 112.518 87.0665 113.109 87.4784 113.55C87.8903 113.99 88.4254 114.21 89.0835 114.21C89.4813 114.21 89.8766 114.111 90.2696 113.912C90.6673 113.713 90.9964 113.412 91.2568 113.01C91.522 112.607 91.6522 112.096 91.6474 111.476ZM98.805 109.523V116H96.6815V105.091H98.7198V106.866H98.8548C99.1057 106.289 99.4987 105.825 100.034 105.474C100.574 105.124 101.253 104.949 102.072 104.949C102.815 104.949 103.467 105.105 104.025 105.418C104.584 105.725 105.017 106.185 105.325 106.795C105.633 107.406 105.787 108.161 105.787 109.061V116H103.663V109.317C103.663 108.526 103.457 107.908 103.045 107.463C102.633 107.013 102.067 106.788 101.348 106.788C100.855 106.788 100.417 106.895 100.034 107.108C99.6549 107.321 99.3543 107.634 99.1317 108.045C98.9139 108.453 98.805 108.945 98.805 109.523ZM108.685 116V105.091H110.808V116H108.685ZM109.757 103.408C109.388 103.408 109.07 103.285 108.805 103.038C108.545 102.787 108.415 102.489 108.415 102.143C108.415 101.793 108.545 101.495 108.805 101.249C109.07 100.998 109.388 100.872 109.757 100.872C110.126 100.872 110.441 100.998 110.702 101.249C110.967 101.495 111.099 101.793 111.099 102.143C111.099 102.489 110.967 102.787 110.702 103.038C110.441 103.285 110.126 103.408 109.757 103.408ZM118.31 116.22C117.254 116.22 116.345 115.981 115.583 115.503C114.825 115.02 114.243 114.355 113.836 113.507C113.429 112.66 113.225 111.689 113.225 110.595C113.225 109.487 113.433 108.509 113.85 107.662C114.267 106.81 114.854 106.144 115.611 105.666C116.369 105.188 117.261 104.949 118.289 104.949C119.118 104.949 119.856 105.103 120.505 105.411C121.154 105.714 121.677 106.14 122.074 106.689C122.477 107.238 122.716 107.88 122.792 108.614H120.725C120.611 108.102 120.351 107.662 119.944 107.293C119.541 106.923 119.002 106.739 118.324 106.739C117.733 106.739 117.214 106.895 116.769 107.207C116.329 107.515 115.985 107.955 115.739 108.528C115.493 109.097 115.37 109.769 115.37 110.545C115.37 111.341 115.491 112.027 115.732 112.605C115.974 113.183 116.314 113.63 116.755 113.947C117.2 114.265 117.723 114.423 118.324 114.423C118.727 114.423 119.091 114.35 119.418 114.203C119.75 114.052 120.027 113.836 120.249 113.557C120.476 113.277 120.635 112.941 120.725 112.548H122.792C122.716 113.254 122.486 113.884 122.103 114.438C121.719 114.991 121.206 115.427 120.562 115.744C119.922 116.062 119.172 116.22 118.31 116.22ZM128.287 116.241C127.596 116.241 126.971 116.114 126.412 115.858C125.854 115.598 125.411 115.221 125.084 114.729C124.762 114.236 124.601 113.633 124.601 112.918C124.601 112.302 124.72 111.795 124.956 111.398C125.193 111 125.513 110.685 125.915 110.453C126.318 110.221 126.768 110.046 127.265 109.928C127.762 109.809 128.268 109.719 128.785 109.658C129.438 109.582 129.968 109.52 130.375 109.473C130.783 109.421 131.079 109.338 131.263 109.224C131.448 109.111 131.54 108.926 131.54 108.67V108.621C131.54 108 131.365 107.52 131.015 107.179C130.669 106.838 130.153 106.668 129.466 106.668C128.751 106.668 128.188 106.826 127.776 107.143C127.369 107.456 127.087 107.804 126.931 108.188L124.935 107.733C125.172 107.07 125.518 106.535 125.972 106.128C126.431 105.716 126.959 105.418 127.556 105.233C128.152 105.044 128.78 104.949 129.438 104.949C129.874 104.949 130.335 105.001 130.823 105.105C131.315 105.205 131.775 105.389 132.201 105.659C132.632 105.929 132.984 106.315 133.259 106.817C133.534 107.314 133.671 107.96 133.671 108.756V116H131.597V114.509H131.512C131.375 114.783 131.169 115.053 130.894 115.318C130.619 115.583 130.267 115.804 129.836 115.979C129.405 116.154 128.889 116.241 128.287 116.241ZM128.749 114.537C129.336 114.537 129.838 114.421 130.255 114.189C130.676 113.957 130.996 113.654 131.214 113.28C131.436 112.901 131.547 112.496 131.547 112.065V110.659C131.472 110.735 131.325 110.806 131.107 110.872C130.894 110.934 130.65 110.988 130.375 111.036C130.101 111.078 129.833 111.118 129.573 111.156C129.313 111.189 129.095 111.218 128.92 111.241C128.508 111.294 128.131 111.381 127.79 111.504C127.454 111.627 127.184 111.805 126.981 112.037C126.782 112.264 126.682 112.567 126.682 112.946C126.682 113.472 126.876 113.869 127.265 114.139C127.653 114.404 128.148 114.537 128.749 114.537ZM141.642 105.091V106.795H135.683V105.091H141.642ZM137.281 102.477H139.405V112.797C139.405 113.209 139.466 113.519 139.589 113.727C139.712 113.931 139.871 114.071 140.065 114.146C140.264 114.217 140.479 114.253 140.711 114.253C140.882 114.253 141.031 114.241 141.159 114.217C141.287 114.194 141.386 114.175 141.457 114.161L141.841 115.915C141.718 115.962 141.542 116.009 141.315 116.057C141.088 116.109 140.804 116.137 140.463 116.142C139.904 116.152 139.383 116.052 138.9 115.844C138.417 115.635 138.027 115.313 137.728 114.878C137.43 114.442 137.281 113.895 137.281 113.237V102.477ZM144.041 116V105.091H146.164V116H144.041ZM145.113 103.408C144.744 103.408 144.427 103.285 144.162 103.038C143.901 102.787 143.771 102.489 143.771 102.143C143.771 101.793 143.901 101.495 144.162 101.249C144.427 100.998 144.744 100.872 145.113 100.872C145.483 100.872 145.797 100.998 146.058 101.249C146.323 101.495 146.456 101.793 146.456 102.143C146.456 102.489 146.323 102.787 146.058 103.038C145.797 103.285 145.483 103.408 145.113 103.408ZM153.666 116.22C152.644 116.22 151.751 115.986 150.989 115.517C150.227 115.048 149.635 114.393 149.213 113.55C148.792 112.707 148.581 111.722 148.581 110.595C148.581 109.464 148.792 108.474 149.213 107.626C149.635 106.779 150.227 106.121 150.989 105.652C151.751 105.183 152.644 104.949 153.666 104.949C154.689 104.949 155.582 105.183 156.344 105.652C157.106 106.121 157.698 106.779 158.12 107.626C158.541 108.474 158.752 109.464 158.752 110.595C158.752 111.722 158.541 112.707 158.12 113.55C157.698 114.393 157.106 115.048 156.344 115.517C155.582 115.986 154.689 116.22 153.666 116.22ZM153.674 114.438C154.336 114.438 154.886 114.262 155.321 113.912C155.757 113.562 156.079 113.095 156.287 112.513C156.5 111.93 156.607 111.289 156.607 110.588C156.607 109.892 156.5 109.253 156.287 108.67C156.079 108.083 155.757 107.612 155.321 107.257C154.886 106.902 154.336 106.724 153.674 106.724C153.006 106.724 152.452 106.902 152.012 107.257C151.576 107.612 151.252 108.083 151.039 108.67C150.83 109.253 150.726 109.892 150.726 110.588C150.726 111.289 150.83 111.93 151.039 112.513C151.252 113.095 151.576 113.562 152.012 113.912C152.452 114.262 153.006 114.438 153.674 114.438ZM163.296 109.523V116H161.172V105.091H163.21V106.866H163.345C163.596 106.289 163.989 105.825 164.524 105.474C165.064 105.124 165.744 104.949 166.563 104.949C167.306 104.949 167.957 105.105 168.516 105.418C169.075 105.725 169.508 106.185 169.816 106.795C170.123 107.406 170.277 108.161 170.277 109.061V116H168.154V109.317C168.154 108.526 167.948 107.908 167.536 107.463C167.124 107.013 166.558 106.788 165.838 106.788C165.346 106.788 164.908 106.895 164.524 107.108C164.146 107.321 163.845 107.634 163.622 108.045C163.405 108.453 163.296 108.945 163.296 109.523ZM181.35 107.754L179.425 108.095C179.345 107.849 179.217 107.615 179.042 107.392C178.871 107.17 178.639 106.987 178.346 106.845C178.052 106.703 177.685 106.632 177.245 106.632C176.643 106.632 176.142 106.767 175.739 107.037C175.337 107.302 175.135 107.645 175.135 108.067C175.135 108.431 175.27 108.725 175.54 108.947C175.81 109.17 176.246 109.352 176.847 109.494L178.58 109.892C179.584 110.124 180.332 110.482 180.824 110.964C181.317 111.447 181.563 112.075 181.563 112.847C181.563 113.5 181.374 114.082 180.995 114.594C180.621 115.1 180.098 115.498 179.425 115.787C178.758 116.076 177.983 116.22 177.103 116.22C175.881 116.22 174.884 115.96 174.113 115.439C173.341 114.913 172.867 114.168 172.692 113.202L174.745 112.889C174.873 113.424 175.135 113.829 175.533 114.104C175.931 114.374 176.449 114.509 177.089 114.509C177.785 114.509 178.341 114.364 178.758 114.075C179.174 113.782 179.383 113.424 179.383 113.003C179.383 112.662 179.255 112.375 178.999 112.143C178.748 111.911 178.362 111.736 177.841 111.618L175.995 111.213C174.977 110.981 174.224 110.612 173.736 110.105C173.253 109.598 173.012 108.957 173.012 108.18C173.012 107.536 173.192 106.973 173.552 106.49C173.911 106.007 174.409 105.631 175.043 105.361C175.678 105.086 176.404 104.949 177.224 104.949C178.402 104.949 179.331 105.205 180.008 105.716C180.685 106.223 181.132 106.902 181.35 107.754ZM189.461 116V101.455H194.646C195.778 101.455 196.715 101.661 197.458 102.072C198.202 102.484 198.758 103.048 199.127 103.763C199.497 104.473 199.681 105.273 199.681 106.163C199.681 107.058 199.494 107.863 199.12 108.578C198.751 109.288 198.192 109.852 197.444 110.268C196.701 110.68 195.766 110.886 194.639 110.886H191.074V109.026H194.44C195.155 109.026 195.735 108.902 196.18 108.656C196.625 108.405 196.952 108.064 197.16 107.634C197.368 107.203 197.473 106.713 197.473 106.163C197.473 105.614 197.368 105.126 197.16 104.7C196.952 104.274 196.623 103.94 196.173 103.699C195.728 103.457 195.141 103.337 194.412 103.337H191.656V116H189.461ZM205.211 116.241C204.52 116.241 203.895 116.114 203.336 115.858C202.777 115.598 202.334 115.221 202.008 114.729C201.686 114.236 201.525 113.633 201.525 112.918C201.525 112.302 201.643 111.795 201.88 111.398C202.117 111 202.436 110.685 202.839 110.453C203.241 110.221 203.691 110.046 204.188 109.928C204.685 109.809 205.192 109.719 205.708 109.658C206.361 109.582 206.892 109.52 207.299 109.473C207.706 109.421 208.002 109.338 208.187 109.224C208.371 109.111 208.464 108.926 208.464 108.67V108.621C208.464 108 208.289 107.52 207.938 107.179C207.592 106.838 207.076 106.668 206.39 106.668C205.675 106.668 205.111 106.826 204.7 107.143C204.292 107.456 204.011 107.804 203.854 108.188L201.859 107.733C202.095 107.07 202.441 106.535 202.896 106.128C203.355 105.716 203.883 105.418 204.479 105.233C205.076 105.044 205.703 104.949 206.361 104.949C206.797 104.949 207.259 105.001 207.746 105.105C208.239 105.205 208.698 105.389 209.124 105.659C209.555 105.929 209.908 106.315 210.182 106.817C210.457 107.314 210.594 107.96 210.594 108.756V116H208.521V114.509H208.435C208.298 114.783 208.092 115.053 207.817 115.318C207.543 115.583 207.19 115.804 206.759 115.979C206.328 116.154 205.812 116.241 205.211 116.241ZM205.673 114.537C206.26 114.537 206.762 114.421 207.178 114.189C207.6 113.957 207.919 113.654 208.137 113.28C208.36 112.901 208.471 112.496 208.471 112.065V110.659C208.395 110.735 208.248 110.806 208.03 110.872C207.817 110.934 207.574 110.988 207.299 111.036C207.024 111.078 206.757 111.118 206.496 111.156C206.236 111.189 206.018 111.218 205.843 111.241C205.431 111.294 205.055 111.381 204.714 111.504C204.378 111.627 204.108 111.805 203.904 112.037C203.705 112.264 203.606 112.567 203.606 112.946C203.606 113.472 203.8 113.869 204.188 114.139C204.576 114.404 205.071 114.537 205.673 114.537ZM216.648 116.241C215.956 116.241 215.331 116.114 214.773 115.858C214.214 115.598 213.771 115.221 213.444 114.729C213.122 114.236 212.962 113.633 212.962 112.918C212.962 112.302 213.08 111.795 213.317 111.398C213.553 111 213.873 110.685 214.275 110.453C214.678 110.221 215.128 110.046 215.625 109.928C216.122 109.809 216.629 109.719 217.145 109.658C217.798 109.582 218.328 109.52 218.736 109.473C219.143 109.421 219.439 109.338 219.623 109.224C219.808 109.111 219.9 108.926 219.9 108.67V108.621C219.9 108 219.725 107.52 219.375 107.179C219.029 106.838 218.513 106.668 217.827 106.668C217.112 106.668 216.548 106.826 216.136 107.143C215.729 107.456 215.447 107.804 215.291 108.188L213.295 107.733C213.532 107.07 213.878 106.535 214.332 106.128C214.792 105.716 215.319 105.418 215.916 105.233C216.513 105.044 217.14 104.949 217.798 104.949C218.234 104.949 218.695 105.001 219.183 105.105C219.676 105.205 220.135 105.389 220.561 105.659C220.992 105.929 221.345 106.315 221.619 106.817C221.894 107.314 222.031 107.96 222.031 108.756V116H219.957V114.509H219.872C219.735 114.783 219.529 115.053 219.254 115.318C218.98 115.583 218.627 115.804 218.196 115.979C217.765 116.154 217.249 116.241 216.648 116.241ZM217.109 114.537C217.696 114.537 218.198 114.421 218.615 114.189C219.036 113.957 219.356 113.654 219.574 113.28C219.796 112.901 219.908 112.496 219.908 112.065V110.659C219.832 110.735 219.685 110.806 219.467 110.872C219.254 110.934 219.01 110.988 218.736 111.036C218.461 111.078 218.194 111.118 217.933 111.156C217.673 111.189 217.455 111.218 217.28 111.241C216.868 111.294 216.491 111.381 216.15 111.504C215.814 111.627 215.544 111.805 215.341 112.037C215.142 112.264 215.042 112.567 215.042 112.946C215.042 113.472 215.237 113.869 215.625 114.139C216.013 114.404 216.508 114.537 217.109 114.537ZM233.013 105.276C232.938 104.603 232.625 104.082 232.076 103.713C231.527 103.339 230.835 103.152 230.002 103.152C229.405 103.152 228.889 103.247 228.454 103.436C228.018 103.621 227.679 103.876 227.438 104.203C227.201 104.525 227.083 104.892 227.083 105.304C227.083 105.65 227.163 105.948 227.324 106.199C227.49 106.45 227.706 106.661 227.971 106.831C228.241 106.997 228.529 107.136 228.837 107.25C229.145 107.359 229.441 107.449 229.725 107.52L231.145 107.889C231.609 108.003 232.085 108.157 232.573 108.351C233.061 108.545 233.513 108.801 233.929 109.118C234.346 109.435 234.682 109.828 234.938 110.297C235.198 110.766 235.329 111.327 235.329 111.98C235.329 112.804 235.116 113.536 234.689 114.175C234.268 114.814 233.655 115.318 232.85 115.688C232.05 116.057 231.081 116.241 229.945 116.241C228.856 116.241 227.914 116.069 227.118 115.723C226.323 115.377 225.7 114.887 225.25 114.253C224.801 113.614 224.552 112.856 224.505 111.98H226.706C226.749 112.506 226.92 112.944 227.218 113.294C227.521 113.64 227.907 113.898 228.375 114.068C228.849 114.234 229.367 114.317 229.931 114.317C230.551 114.317 231.103 114.22 231.586 114.026C232.073 113.827 232.457 113.552 232.736 113.202C233.016 112.847 233.155 112.432 233.155 111.959C233.155 111.528 233.032 111.175 232.786 110.901C232.545 110.626 232.215 110.399 231.799 110.219C231.387 110.039 230.92 109.88 230.4 109.743L228.681 109.274C227.516 108.957 226.593 108.491 225.911 107.875C225.234 107.259 224.895 106.445 224.895 105.432C224.895 104.594 225.123 103.862 225.577 103.237C226.032 102.612 226.647 102.127 227.424 101.781C228.2 101.431 229.076 101.256 230.052 101.256C231.036 101.256 231.905 101.429 232.658 101.774C233.416 102.12 234.012 102.596 234.448 103.202C234.884 103.803 235.111 104.494 235.13 105.276H233.013ZM24.7926 125.455V140H22.598V125.455H24.7926ZM29.9918 133.523V140H27.8682V129.091H29.9065V130.866H30.0415C30.2924 130.289 30.6854 129.825 31.2205 129.474C31.7602 129.124 32.4397 128.949 33.2588 128.949C34.0022 128.949 34.6532 129.105 35.2119 129.418C35.7706 129.725 36.2039 130.185 36.5116 130.795C36.8194 131.406 36.9733 132.161 36.9733 133.061V140H34.8497V133.317C34.8497 132.526 34.6438 131.908 34.2318 131.463C33.8199 131.013 33.2541 130.788 32.5344 130.788C32.042 130.788 31.604 130.895 31.2205 131.108C30.8417 131.321 30.541 131.634 30.3185 132.045C30.1007 132.453 29.9918 132.945 29.9918 133.523ZM43.9551 140.213C43.0744 140.213 42.2884 139.988 41.5972 139.538C40.9106 139.084 40.3708 138.437 39.9778 137.599C39.5896 136.757 39.3955 135.746 39.3955 134.567C39.3955 133.388 39.592 132.379 39.9849 131.541C40.3827 130.703 40.9272 130.062 41.6185 129.616C42.3098 129.171 43.0934 128.949 43.9693 128.949C44.6464 128.949 45.1909 129.062 45.6028 129.29C46.0195 129.512 46.3415 129.773 46.5688 130.071C46.8008 130.369 46.9807 130.632 47.1085 130.859H47.2364V125.455H49.3599V140H47.2861V138.303H47.1085C46.9807 138.535 46.796 138.8 46.5545 139.098C46.3178 139.396 45.9911 139.657 45.5744 139.879C45.1578 140.102 44.618 140.213 43.9551 140.213ZM44.4239 138.402C45.0347 138.402 45.5508 138.241 45.9722 137.919C46.3983 137.592 46.7203 137.14 46.9381 136.562C47.1606 135.985 47.2719 135.312 47.2719 134.545C47.2719 133.788 47.163 133.125 46.9452 132.557C46.7274 131.989 46.4078 131.546 45.9864 131.229C45.565 130.911 45.0441 130.753 44.4239 130.753C43.7847 130.753 43.252 130.919 42.8259 131.25C42.3997 131.581 42.0777 132.034 41.8599 132.607C41.6469 133.179 41.5403 133.826 41.5403 134.545C41.5403 135.275 41.6492 135.93 41.867 136.513C42.0848 137.095 42.4068 137.557 42.833 137.898C43.2638 138.234 43.7941 138.402 44.4239 138.402ZM59.3513 135.476V129.091H61.482V140H59.394V138.111H59.2803C59.0294 138.693 58.6269 139.179 58.0729 139.567C57.5237 139.95 56.8395 140.142 56.0204 140.142C55.3196 140.142 54.6994 139.988 54.1596 139.68C53.6245 139.368 53.2031 138.906 52.8954 138.295C52.5924 137.685 52.4408 136.929 52.4408 136.03V129.091H54.5644V135.774C54.5644 136.518 54.7704 137.109 55.1823 137.55C55.5942 137.99 56.1293 138.21 56.7874 138.21C57.1852 138.21 57.5805 138.111 57.9735 137.912C58.3712 137.713 58.7003 137.412 58.9607 137.01C59.2259 136.607 59.3561 136.096 59.3513 135.476ZM72.5601 131.754L70.6354 132.095C70.5549 131.849 70.427 131.615 70.2518 131.392C70.0814 131.17 69.8494 130.987 69.5558 130.845C69.2623 130.703 68.8953 130.632 68.455 130.632C67.8536 130.632 67.3518 130.767 66.9493 131.037C66.5468 131.302 66.3456 131.645 66.3456 132.067C66.3456 132.431 66.4805 132.725 66.7504 132.947C67.0203 133.17 67.4559 133.352 68.0572 133.494L69.7902 133.892C70.794 134.124 71.5421 134.482 72.0345 134.964C72.5269 135.447 72.7732 136.075 72.7732 136.847C72.7732 137.5 72.5838 138.082 72.205 138.594C71.8309 139.1 71.3077 139.498 70.6354 139.787C69.9678 140.076 69.1936 140.22 68.3129 140.22C67.0913 140.22 66.0947 139.96 65.3229 139.439C64.5511 138.913 64.0776 138.168 63.9024 137.202L65.955 136.889C66.0828 137.424 66.3456 137.829 66.7433 138.104C67.1411 138.374 67.6595 138.509 68.2987 138.509C68.9947 138.509 69.5511 138.364 69.9678 138.075C70.3844 137.782 70.5928 137.424 70.5928 137.003C70.5928 136.662 70.4649 136.375 70.2092 136.143C69.9583 135.911 69.5724 135.736 69.0516 135.618L67.205 135.213C66.187 134.981 65.4341 134.612 64.9464 134.105C64.4635 133.598 64.222 132.957 64.222 132.18C64.222 131.536 64.4019 130.973 64.7618 130.49C65.1216 130.007 65.6188 129.631 66.2533 129.361C66.8877 129.086 67.6145 128.949 68.4337 128.949C69.6126 128.949 70.5407 129.205 71.2178 129.716C71.8948 130.223 72.3423 130.902 72.5601 131.754ZM80.2504 129.091V130.795H74.2915V129.091H80.2504ZM75.8896 126.477H78.0131V136.797C78.0131 137.209 78.0747 137.519 78.1978 137.727C78.3209 137.931 78.4795 138.071 78.6737 138.146C78.8725 138.217 79.0879 138.253 79.32 138.253C79.4904 138.253 79.6396 138.241 79.7674 138.217C79.8952 138.194 79.9947 138.175 80.0657 138.161L80.4492 139.915C80.3261 139.962 80.1509 140.009 79.9237 140.057C79.6964 140.109 79.4123 140.137 79.0714 140.142C78.5127 140.152 77.9918 140.052 77.5089 139.844C77.0259 139.635 76.6353 139.313 76.337 138.878C76.0387 138.442 75.8896 137.895 75.8896 137.237V126.477ZM82.6494 140V129.091H84.702V130.824H84.8156C85.0145 130.237 85.3649 129.775 85.8668 129.439C86.3734 129.098 86.9463 128.928 87.5855 128.928C87.7181 128.928 87.8743 128.932 88.0543 128.942C88.2389 128.951 88.3833 128.963 88.4875 128.977V131.009C88.4023 130.985 88.2508 130.959 88.033 130.93C87.8152 130.897 87.5973 130.881 87.3795 130.881C86.8777 130.881 86.4302 130.987 86.0372 131.2C85.649 131.409 85.3412 131.7 85.1139 132.074C84.8866 132.443 84.773 132.865 84.773 133.338V140H82.6494ZM92.0496 144.091C91.7323 144.091 91.4435 144.065 91.1831 144.013C90.9227 143.965 90.7285 143.913 90.6007 143.857L91.1121 142.116C91.5003 142.221 91.846 142.266 92.149 142.251C92.452 142.237 92.7196 142.124 92.9516 141.911C93.1883 141.697 93.3966 141.349 93.5766 140.866L93.8393 140.142L89.8479 129.091H92.1206L94.8834 137.557H94.997L97.7598 129.091H100.04L95.5439 141.456C95.3356 142.024 95.0704 142.505 94.7484 142.898C94.4265 143.295 94.0429 143.594 93.5979 143.793C93.1528 143.991 92.6367 144.091 92.0496 144.091Z" fill="white"/>
<rect x="93" y="285" width="163" height="51" rx="24" fill="white"/>
<path d="M131.439 307.71C131.393 307.252 131.198 306.896 130.854 306.642C130.509 306.388 130.041 306.261 129.45 306.261C129.049 306.261 128.71 306.318 128.433 306.432C128.157 306.542 127.945 306.695 127.797 306.892C127.653 307.089 127.581 307.312 127.581 307.562C127.573 307.771 127.617 307.953 127.712 308.108C127.81 308.263 127.945 308.398 128.115 308.511C128.285 308.621 128.482 308.718 128.706 308.801C128.929 308.881 129.168 308.949 129.422 309.006L130.467 309.256C130.975 309.369 131.441 309.521 131.865 309.71C132.289 309.9 132.657 310.133 132.967 310.409C133.278 310.686 133.518 311.011 133.689 311.386C133.863 311.761 133.952 312.191 133.956 312.676C133.952 313.388 133.77 314.006 133.41 314.528C133.054 315.047 132.539 315.451 131.865 315.739C131.195 316.023 130.386 316.165 129.439 316.165C128.499 316.165 127.681 316.021 126.984 315.733C126.291 315.445 125.749 315.019 125.359 314.455C124.973 313.886 124.77 313.184 124.751 312.347H127.132C127.159 312.737 127.27 313.062 127.467 313.324C127.668 313.581 127.935 313.777 128.268 313.909C128.606 314.038 128.986 314.102 129.41 314.102C129.827 314.102 130.189 314.042 130.496 313.92C130.806 313.799 131.047 313.631 131.217 313.415C131.388 313.199 131.473 312.951 131.473 312.67C131.473 312.409 131.395 312.189 131.24 312.011C131.088 311.833 130.865 311.682 130.57 311.557C130.278 311.432 129.92 311.318 129.496 311.216L128.229 310.898C127.248 310.659 126.473 310.286 125.905 309.778C125.337 309.271 125.054 308.587 125.058 307.727C125.054 307.023 125.242 306.407 125.621 305.881C126.003 305.354 126.528 304.943 127.195 304.648C127.861 304.352 128.619 304.205 129.467 304.205C130.331 304.205 131.085 304.352 131.729 304.648C132.376 304.943 132.88 305.354 133.24 305.881C133.6 306.407 133.785 307.017 133.797 307.71H131.439ZM140.247 307.273V309.091H134.992V307.273H140.247ZM136.185 305.182H138.605V313.318C138.605 313.542 138.639 313.716 138.708 313.841C138.776 313.962 138.87 314.047 138.992 314.097C139.117 314.146 139.261 314.17 139.423 314.17C139.537 314.17 139.651 314.161 139.764 314.142C139.878 314.119 139.965 314.102 140.026 314.091L140.406 315.892C140.285 315.93 140.115 315.973 139.895 316.023C139.675 316.076 139.408 316.108 139.094 316.119C138.511 316.142 137.999 316.064 137.56 315.886C137.124 315.708 136.785 315.432 136.543 315.057C136.3 314.682 136.181 314.208 136.185 313.636V305.182ZM144.353 316.165C143.796 316.165 143.3 316.068 142.864 315.875C142.428 315.678 142.084 315.388 141.83 315.006C141.58 314.619 141.455 314.138 141.455 313.562C141.455 313.078 141.544 312.67 141.722 312.341C141.9 312.011 142.142 311.746 142.449 311.545C142.756 311.345 143.105 311.193 143.495 311.091C143.889 310.989 144.302 310.917 144.733 310.875C145.241 310.822 145.65 310.773 145.961 310.727C146.271 310.678 146.497 310.606 146.637 310.511C146.777 310.417 146.847 310.277 146.847 310.091V310.057C146.847 309.697 146.733 309.419 146.506 309.222C146.283 309.025 145.964 308.926 145.552 308.926C145.116 308.926 144.769 309.023 144.512 309.216C144.254 309.405 144.084 309.644 144 309.932L141.762 309.75C141.875 309.22 142.099 308.761 142.432 308.375C142.766 307.985 143.195 307.686 143.722 307.477C144.252 307.265 144.866 307.159 145.563 307.159C146.048 307.159 146.512 307.216 146.955 307.33C147.402 307.443 147.798 307.619 148.142 307.858C148.491 308.097 148.766 308.403 148.966 308.778C149.167 309.15 149.267 309.595 149.267 310.114V316H146.972V314.79H146.904C146.764 315.062 146.576 315.303 146.341 315.511C146.106 315.716 145.824 315.877 145.495 315.994C145.165 316.108 144.784 316.165 144.353 316.165ZM145.046 314.494C145.402 314.494 145.716 314.424 145.989 314.284C146.262 314.14 146.476 313.947 146.631 313.705C146.786 313.462 146.864 313.187 146.864 312.881V311.955C146.788 312.004 146.684 312.049 146.552 312.091C146.423 312.129 146.277 312.165 146.114 312.199C145.951 312.229 145.788 312.258 145.625 312.284C145.463 312.307 145.315 312.328 145.182 312.347C144.898 312.388 144.65 312.455 144.438 312.545C144.226 312.636 144.061 312.759 143.944 312.915C143.826 313.066 143.767 313.256 143.767 313.483C143.767 313.812 143.887 314.064 144.125 314.239C144.368 314.409 144.675 314.494 145.046 314.494ZM151.185 316V307.273H153.532V308.795H153.623C153.782 308.254 154.049 307.845 154.424 307.568C154.799 307.288 155.231 307.148 155.719 307.148C155.841 307.148 155.971 307.155 156.111 307.17C156.252 307.186 156.375 307.206 156.481 307.233V309.381C156.367 309.347 156.21 309.316 156.009 309.29C155.808 309.263 155.625 309.25 155.458 309.25C155.102 309.25 154.784 309.328 154.503 309.483C154.227 309.634 154.007 309.847 153.844 310.119C153.685 310.392 153.606 310.706 153.606 311.062V316H151.185ZM162.852 307.273V309.091H157.596V307.273H162.852ZM158.789 305.182H161.21V313.318C161.21 313.542 161.244 313.716 161.312 313.841C161.38 313.962 161.475 314.047 161.596 314.097C161.721 314.146 161.865 314.17 162.028 314.17C162.141 314.17 162.255 314.161 162.369 314.142C162.482 314.119 162.57 314.102 162.63 314.091L163.011 315.892C162.89 315.93 162.719 315.973 162.499 316.023C162.28 316.076 162.013 316.108 161.698 316.119C161.115 316.142 160.604 316.064 160.164 315.886C159.729 315.708 159.39 315.432 159.147 315.057C158.905 314.682 158.785 314.208 158.789 313.636V305.182ZM172.905 307.273V309.091H167.518V307.273H172.905ZM168.751 316V306.642C168.751 306.009 168.874 305.485 169.121 305.068C169.371 304.652 169.712 304.339 170.143 304.131C170.575 303.922 171.066 303.818 171.615 303.818C171.986 303.818 172.325 303.847 172.632 303.903C172.943 303.96 173.174 304.011 173.325 304.057L172.893 305.875C172.799 305.845 172.681 305.816 172.541 305.79C172.405 305.763 172.265 305.75 172.121 305.75C171.765 305.75 171.516 305.833 171.376 306C171.236 306.163 171.166 306.392 171.166 306.688V316H168.751ZM178.054 316.17C177.172 316.17 176.408 315.983 175.764 315.608C175.124 315.229 174.63 314.703 174.281 314.028C173.933 313.35 173.759 312.564 173.759 311.67C173.759 310.769 173.933 309.981 174.281 309.307C174.63 308.629 175.124 308.102 175.764 307.727C176.408 307.348 177.172 307.159 178.054 307.159C178.937 307.159 179.698 307.348 180.338 307.727C180.982 308.102 181.478 308.629 181.827 309.307C182.175 309.981 182.35 310.769 182.35 311.67C182.35 312.564 182.175 313.35 181.827 314.028C181.478 314.703 180.982 315.229 180.338 315.608C179.698 315.983 178.937 316.17 178.054 316.17ZM178.065 314.295C178.467 314.295 178.802 314.182 179.071 313.955C179.34 313.723 179.543 313.409 179.679 313.011C179.819 312.614 179.889 312.161 179.889 311.653C179.889 311.146 179.819 310.693 179.679 310.295C179.543 309.898 179.34 309.583 179.071 309.352C178.802 309.121 178.467 309.006 178.065 309.006C177.66 309.006 177.319 309.121 177.043 309.352C176.77 309.583 176.564 309.898 176.423 310.295C176.287 310.693 176.219 311.146 176.219 311.653C176.219 312.161 176.287 312.614 176.423 313.011C176.564 313.409 176.77 313.723 177.043 313.955C177.319 314.182 177.66 314.295 178.065 314.295ZM183.963 316V307.273H186.31V308.795H186.401C186.56 308.254 186.827 307.845 187.202 307.568C187.577 307.288 188.009 307.148 188.497 307.148C188.619 307.148 188.749 307.155 188.89 307.17C189.03 307.186 189.153 307.206 189.259 307.233V309.381C189.145 309.347 188.988 309.316 188.787 309.29C188.587 309.263 188.403 309.25 188.236 309.25C187.88 309.25 187.562 309.328 187.282 309.483C187.005 309.634 186.785 309.847 186.622 310.119C186.463 310.392 186.384 310.706 186.384 311.062V316H183.963ZM198.987 307.273V309.091H193.6V307.273H198.987ZM194.833 316V306.642C194.833 306.009 194.956 305.485 195.202 305.068C195.452 304.652 195.793 304.339 196.225 304.131C196.657 303.922 197.148 303.818 197.697 303.818C198.068 303.818 198.407 303.847 198.714 303.903C199.024 303.96 199.256 304.011 199.407 304.057L198.975 305.875C198.881 305.845 198.763 305.816 198.623 305.79C198.487 305.763 198.346 305.75 198.202 305.75C197.846 305.75 197.598 305.833 197.458 306C197.318 306.163 197.248 306.392 197.248 306.688V316H194.833ZM200.505 316V307.273H202.852V308.795H202.943C203.102 308.254 203.369 307.845 203.744 307.568C204.119 307.288 204.551 307.148 205.039 307.148C205.161 307.148 205.291 307.155 205.431 307.17C205.572 307.186 205.695 307.206 205.801 307.233V309.381C205.687 309.347 205.53 309.316 205.329 309.29C205.128 309.263 204.945 309.25 204.778 309.25C204.422 309.25 204.104 309.328 203.823 309.483C203.547 309.634 203.327 309.847 203.164 310.119C203.005 310.392 202.926 310.706 202.926 311.062V316H200.505ZM210.663 316.17C209.765 316.17 208.993 315.989 208.345 315.625C207.701 315.258 207.205 314.739 206.856 314.068C206.508 313.394 206.334 312.597 206.334 311.676C206.334 310.778 206.508 309.991 206.856 309.312C207.205 308.634 207.695 308.106 208.328 307.727C208.964 307.348 209.711 307.159 210.567 307.159C211.142 307.159 211.678 307.252 212.175 307.438C212.675 307.619 213.11 307.894 213.481 308.261C213.856 308.629 214.148 309.091 214.356 309.648C214.565 310.201 214.669 310.848 214.669 311.591V312.256H207.3V310.756H212.39C212.39 310.407 212.315 310.098 212.163 309.83C212.012 309.561 211.801 309.35 211.533 309.199C211.267 309.044 210.959 308.966 210.606 308.966C210.239 308.966 209.913 309.051 209.629 309.222C209.349 309.388 209.129 309.614 208.97 309.898C208.811 310.178 208.729 310.491 208.726 310.835V312.261C208.726 312.693 208.805 313.066 208.964 313.381C209.127 313.695 209.356 313.938 209.652 314.108C209.947 314.278 210.298 314.364 210.703 314.364C210.972 314.364 211.218 314.326 211.442 314.25C211.665 314.174 211.856 314.061 212.015 313.909C212.175 313.758 212.296 313.572 212.379 313.352L214.618 313.5C214.504 314.038 214.271 314.508 213.919 314.909C213.57 315.307 213.12 315.617 212.567 315.841C212.017 316.061 211.383 316.17 210.663 316.17ZM220.266 316.17C219.368 316.17 218.595 315.989 217.947 315.625C217.304 315.258 216.807 314.739 216.459 314.068C216.11 313.394 215.936 312.597 215.936 311.676C215.936 310.778 216.11 309.991 216.459 309.312C216.807 308.634 217.298 308.106 217.93 307.727C218.567 307.348 219.313 307.159 220.169 307.159C220.745 307.159 221.281 307.252 221.777 307.438C222.277 307.619 222.713 307.894 223.084 308.261C223.459 308.629 223.751 309.091 223.959 309.648C224.167 310.201 224.271 310.848 224.271 311.591V312.256H216.902V310.756H221.993C221.993 310.407 221.917 310.098 221.766 309.83C221.614 309.561 221.404 309.35 221.135 309.199C220.87 309.044 220.561 308.966 220.209 308.966C219.841 308.966 219.516 309.051 219.232 309.222C218.951 309.388 218.732 309.614 218.572 309.898C218.413 310.178 218.332 310.491 218.328 310.835V312.261C218.328 312.693 218.408 313.066 218.567 313.381C218.73 313.695 218.959 313.938 219.254 314.108C219.55 314.278 219.9 314.364 220.305 314.364C220.574 314.364 220.821 314.326 221.044 314.25C221.268 314.174 221.459 314.061 221.618 313.909C221.777 313.758 221.898 313.572 221.982 313.352L224.22 313.5C224.107 314.038 223.874 314.508 223.521 314.909C223.173 315.307 222.722 315.617 222.169 315.841C221.62 316.061 220.985 316.17 220.266 316.17Z" fill="#40196D"/>
<g clip-path="url(#clip1_10657_4994)">
<rect x="23" y="34" width="314" height="384" rx="12" fill="white"/>
<path d="M171.25 163.543V142.813C171.25 142.813 202.787 141.929 207.211 144.583V163.606L171.25 163.543Z" fill="#F2EBEB"/>
<path d="M179.908 160.259V156.656H185.343L184.522 160.259H179.908Z" fill="#F3CB5C"/>
<path d="M186.86 160.258V153.938H192.295L191.474 160.258H186.86Z" fill="#F3CB5C"/>
<path d="M193.812 160.261V150.781H199.247L198.426 160.261H193.812Z" fill="#F3CB5C"/>
<path d="M152.732 113.742V193.058C152.732 193.058 43.0801 187.117 17.3577 233.569V145.785C17.3577 145.785 14.0081 117.913 152.732 113.742Z" fill="#F2EBEB"/>
<path d="M86.1825 163.983L85.9297 136.554C85.9297 136.554 105.711 135.1 108.492 135.227V162.339L86.1825 163.983Z" fill="white"/>
<path d="M277.868 149.953C277.868 149.953 301.315 151.091 302.643 168.534V210.183L277.868 211.51V149.953Z" fill="#F2EBEB"/>
<path d="M57.0473 145.535L56.9209 129.862C56.9209 129.862 76.5761 127.713 79.3569 127.902V143.892L57.0473 145.535Z" fill="white"/>
<path d="M59.4489 131.373C59.4489 131.373 57.9321 131.057 57.9321 132.827C57.9321 134.597 60.0177 134.154 60.3969 133.269C60.7761 132.385 60.0809 131.31 59.4489 131.373Z" fill="#469F78"/>
<path d="M89.8481 138.139C89.1529 138.012 88.5209 138.455 88.3313 139.087C88.3313 139.213 88.2681 139.403 88.3313 139.529C88.3313 141.299 90.4169 140.856 90.7961 139.972C91.1753 139.087 90.4801 138.139 89.8481 138.139Z" fill="#469F78"/>
<g opacity="0.65">
<path d="M263.269 186.488C263.269 186.488 290.129 188.637 302.642 168.539V219.099C302.642 219.099 302.895 236.037 263.269 235.784V186.488Z" fill="#EA8383"/>
<path d="M273.95 201.784V225.673C275.656 225.357 277.552 224.915 279.638 224.283V200.141C276.794 200.962 273.95 201.784 273.95 201.784Z" fill="white"/>
<path d="M285.578 206.774V222.448C286.969 221.942 288.486 221.373 290.002 220.741V206.016L285.578 206.774Z" fill="white"/>
<path d="M298.851 209.117L294.427 209.623V218.85C295.88 218.155 297.334 217.46 298.851 216.638V209.117Z" fill="white"/>
</g>
<path d="M215.174 124.609L244.119 128.275L251.387 135.353V174.285L215.174 170.113V124.609Z" fill="#F2EBEB"/>
<path d="M244.119 128.281L251.387 135.36L244.119 134.601V128.281Z" fill="#87CCDB"/>
<path d="M222.505 142.625C224.464 142.625 226.423 142.688 228.382 142.878C230.342 143.067 232.301 143.257 234.197 143.447C236.093 143.636 238.052 143.952 240.011 144.331C241.97 144.711 243.866 145.027 245.762 145.532C243.803 145.532 241.844 145.469 239.885 145.279C237.926 145.09 235.966 144.9 234.07 144.711C232.174 144.521 230.215 144.205 228.319 143.826C226.423 143.447 224.401 143.131 222.505 142.625Z" fill="white"/>
<path d="M222.505 148.562C224.464 148.626 226.423 148.815 228.382 149.068C230.342 149.321 232.301 149.574 234.197 149.827C236.093 150.079 238.052 150.458 240.011 150.838L242.918 151.407L244.372 151.723L245.067 151.849L245.446 151.912H245.636C245.699 151.912 245.762 151.912 245.762 151.849C245.762 151.912 245.699 151.912 245.636 151.975L245.446 152.039L245.067 152.102H244.309C243.803 152.102 243.298 152.102 242.792 152.102C241.781 152.038 240.833 151.975 239.822 151.912C237.862 151.723 235.903 151.47 233.944 151.154C231.985 150.838 230.089 150.522 228.13 150.079C226.17 149.637 224.401 149.131 222.505 148.562Z" fill="white"/>
<path d="M222.505 155.518C223.263 155.391 224.085 155.328 224.906 155.328C225.665 155.328 226.486 155.391 227.245 155.455C228.003 155.581 228.825 155.707 229.583 155.897C230.342 156.087 231.1 156.339 231.858 156.655C231.1 156.782 230.278 156.845 229.457 156.845C227.877 156.845 226.297 156.655 224.78 156.276C223.958 156.087 223.2 155.834 222.505 155.518Z" fill="white"/>
<path d="M268.514 139.844C271.042 139.78 273.507 139.907 275.972 140.286C278.437 140.665 280.902 141.171 283.303 141.866C285.705 142.561 288.043 143.446 290.318 144.584C292.594 145.658 294.679 146.985 296.702 148.565C294.426 147.491 292.278 146.416 289.939 145.532C287.601 144.647 285.326 143.825 282.987 143.13C278.184 141.74 273.381 140.665 268.514 139.844Z" fill="#F3CB5C"/>
<path d="M264.912 131.815C266.429 131.688 267.946 131.688 269.463 131.878C270.979 132.004 272.496 132.194 273.95 132.51C275.467 132.826 276.92 133.142 278.374 133.647C279.827 134.09 281.218 134.722 282.545 135.417C281.028 135.164 279.575 134.911 278.121 134.595L273.697 133.774C272.243 133.458 270.727 133.205 269.273 132.889C267.819 132.573 266.366 132.194 264.912 131.815Z" fill="#F3CB5C"/>
<path d="M160 133.02C161.896 132.704 163.729 132.451 165.625 132.324C167.521 132.198 169.417 132.135 171.313 132.072C173.209 132.008 175.105 132.072 177.001 132.198C178.897 132.324 180.793 132.577 182.626 133.02L176.938 133.209C175.042 133.272 173.146 133.272 171.313 133.336C169.48 133.399 167.521 133.336 165.625 133.336C163.729 133.336 161.896 133.209 160 133.02Z" fill="#F3CB5C"/>
<g opacity="0.72">
<path d="M89.9113 171.132V261.003C89.9113 261.003 25.8265 256.389 17.3577 233.574V145.789C17.3577 145.789 24.1201 165.634 89.9113 171.132Z" fill="#EA8383"/>
<path d="M26.0793 224.602C28.8601 226.308 31.8305 227.635 34.9905 228.52V216.765C31.8305 216.133 28.8601 214.932 26.0793 213.289V224.602Z" fill="white"/>
<path d="M34.9905 186.676C33.0313 185.981 26.0793 182.758 26.0793 182.758V192.491C28.2913 193.818 31.4513 195.651 34.9905 197.547V186.676Z" fill="white"/>
<path d="M26.0793 197.547V208.733C28.8601 210.503 31.8305 211.893 34.9905 212.904V202.792C31.8937 201.339 28.8601 199.569 26.0793 197.547Z" fill="white"/>
<path d="M39.3513 195.784C39.8569 195.278 40.3625 194.773 40.8681 194.33C41.4369 193.825 42.0057 193.446 42.6377 193.066C42.8273 192.94 43.0801 192.877 43.2697 192.877C43.5857 192.814 43.9017 193.066 43.9649 193.446V193.509C43.9649 193.698 43.9649 193.951 43.9017 194.141L43.7753 194.646L43.5857 195.658C43.5225 195.974 43.4593 196.226 43.5225 196.542C43.5225 196.669 43.5857 196.669 43.5225 196.606C43.4593 196.542 43.5225 196.606 43.6489 196.606C43.9649 196.542 44.2177 196.479 44.4705 196.353C45.1025 196.1 45.6713 195.721 46.2401 195.405C46.8089 195.026 47.3777 194.71 48.0729 194.33C48.2625 194.204 48.4521 194.141 48.6417 194.078C48.7681 194.014 48.9577 194.014 49.0841 194.014C49.3369 194.014 49.5897 194.078 49.7793 194.267C49.9057 194.394 50.0321 194.583 50.0953 194.773C50.1585 194.899 50.1585 195.026 50.1585 195.152C50.1585 195.342 50.1585 195.594 50.1585 195.784L50.0953 196.29C50.0953 196.416 50.0321 196.606 50.0321 196.732C50.0321 196.985 50.0321 197.238 50.0953 197.427C50.0953 197.49 50.1585 197.49 50.1585 197.49C50.1585 197.49 50.1585 197.554 50.2217 197.554C50.2849 197.617 50.3481 197.617 50.4745 197.617C50.7273 197.617 51.0433 197.554 51.2961 197.49C51.9281 197.301 52.5601 197.048 53.1289 196.795C53.4449 196.669 53.6977 196.479 53.9505 196.29L54.3929 195.974C54.5193 195.91 54.6457 195.847 54.7721 195.784C54.8985 195.721 55.0881 195.721 55.2145 195.784C55.2777 195.784 55.4041 195.847 55.4673 195.91C55.5305 195.974 55.5305 195.974 55.5937 196.037C55.7201 196.226 55.7833 196.479 55.7833 196.732L55.8465 197.301C55.9097 197.617 55.9097 197.996 55.9729 198.312C55.9729 198.881 56.3521 199.386 56.9209 199.576C57.5529 199.702 58.2481 199.702 58.8801 199.576C59.5753 199.45 60.2073 199.26 60.9025 199.007C60.3337 199.386 59.6385 199.639 59.0065 199.892C58.3113 200.145 57.5529 200.271 56.7945 200.145C56.6049 200.082 56.4153 200.018 56.2257 199.955C56.0993 199.892 56.0361 199.829 55.9729 199.829L55.7201 199.576C55.4041 199.26 55.2145 198.881 55.1513 198.438C55.0249 198.059 55.0249 197.743 54.9617 197.364L54.8353 196.858C54.8353 196.732 54.7721 196.669 54.7089 196.542C54.7089 196.542 54.7089 196.606 54.7721 196.606C54.8353 196.669 54.8353 196.669 54.8985 196.669C54.9617 196.669 55.0249 196.669 55.0881 196.669C55.0881 196.669 55.0249 196.732 54.9617 196.732L54.5825 197.048C54.2665 197.301 53.9505 197.49 53.6345 197.68C53.0025 198.059 52.3073 198.312 51.6121 198.565C51.2329 198.691 50.7905 198.754 50.4113 198.754C50.1585 198.754 49.9057 198.691 49.6529 198.565C49.5265 198.502 49.4001 198.375 49.2737 198.312C49.2105 198.186 49.0841 198.059 49.0209 197.933C48.8313 197.554 48.7681 197.048 48.7681 196.606C48.7681 196.416 48.7681 196.226 48.8313 196.037L48.8945 195.531C48.8945 195.405 48.8945 195.278 48.8945 195.089C48.8945 194.962 48.8313 194.899 48.9577 195.026C49.0209 195.089 49.0841 195.089 49.1473 195.089H49.0841C48.9577 195.152 48.8313 195.215 48.7049 195.278C48.1361 195.594 47.5673 195.974 46.9353 196.29C46.3033 196.669 45.6713 196.985 45.0393 197.238C44.6601 197.364 44.2809 197.49 43.9017 197.554C43.7753 197.554 43.6489 197.554 43.5225 197.554C43.0169 197.49 42.6377 197.048 42.6377 196.542C42.6377 196.163 42.7009 195.721 42.8273 195.342C42.9537 194.962 43.0169 194.646 43.1433 194.33C43.2697 194.078 43.3329 193.762 43.3961 193.446C43.3961 193.382 43.3961 193.382 43.3961 193.446C43.3961 193.509 43.4593 193.446 43.3961 193.446C43.2697 193.446 43.1433 193.509 43.0169 193.509C42.3849 193.762 41.8161 194.078 41.2473 194.457C40.5521 194.962 39.9201 195.342 39.3513 195.784Z" fill="#000001"/>
<path d="M39.3513 209.938C39.8569 209.433 40.3625 208.927 40.8681 208.485C41.4369 207.979 42.0057 207.6 42.6377 207.221C42.8273 207.094 43.0801 207.031 43.2697 207.031C43.4593 207.031 43.5857 207.094 43.7753 207.158C43.9017 207.284 43.9649 207.41 44.0281 207.6C44.0281 207.79 44.0281 208.042 43.9649 208.232L43.8385 208.738L43.6489 209.749C43.5857 210.065 43.5225 210.318 43.5857 210.634C43.5857 210.76 43.6489 210.76 43.5857 210.697C43.5225 210.634 43.5857 210.697 43.7121 210.634C44.0281 210.57 44.2809 210.507 44.5337 210.381C45.1657 210.065 45.7345 209.749 46.3033 209.433C46.8721 209.054 47.4409 208.738 48.1361 208.358C48.3257 208.232 48.5153 208.169 48.7049 208.106C48.8313 208.042 49.0209 208.042 49.1473 208.042C49.4001 208.042 49.6529 208.106 49.8425 208.295C49.9689 208.422 50.0953 208.611 50.1585 208.801C50.2217 208.927 50.2217 209.054 50.2217 209.18C50.2217 209.37 50.2217 209.622 50.2217 209.812L50.1585 210.318C50.1585 210.444 50.0953 210.634 50.0953 210.76C50.0953 211.013 50.0953 211.266 50.1585 211.455C50.1585 211.518 50.2217 211.518 50.2217 211.518C50.2217 211.518 50.2217 211.518 50.2849 211.582C50.3481 211.645 50.4113 211.645 50.5377 211.645C50.7905 211.645 51.1065 211.582 51.3593 211.518C51.9913 211.329 52.6233 211.076 53.1921 210.823C53.5081 210.697 53.7609 210.507 54.0137 210.318L54.4561 210.002C54.5825 209.938 54.7089 209.875 54.8353 209.812C54.9617 209.749 55.1513 209.749 55.2777 209.812C55.3409 209.875 55.4673 209.875 55.5305 209.938C55.5937 210.002 55.5937 210.002 55.6569 210.065C55.7833 210.254 55.8465 210.507 55.8465 210.76L55.9097 211.329C55.9729 211.645 55.9729 212.024 56.0361 212.34C56.0361 212.909 56.4153 213.414 56.9841 213.604C57.6161 213.73 58.3113 213.73 58.9433 213.604C59.6385 213.478 60.2705 213.288 60.9657 213.035C60.3969 213.414 59.7017 213.73 59.0697 213.92C58.3745 214.173 57.6161 214.299 56.8577 214.173C56.6681 214.11 56.4785 214.046 56.2889 213.983C56.1625 213.92 56.0993 213.857 56.0361 213.857L55.7833 213.604C55.5305 213.288 55.2777 212.909 55.2145 212.53C55.0881 212.15 55.0881 211.834 55.0249 211.455L54.8985 210.95C54.8985 210.823 54.8353 210.76 54.7721 210.634C54.7721 210.634 54.7721 210.697 54.8353 210.697C54.8985 210.76 54.8985 210.76 54.9617 210.76C55.0249 210.76 55.0881 210.76 55.1513 210.76C55.1513 210.76 55.0881 210.823 55.0249 210.823L54.6457 211.139C54.3297 211.392 54.0137 211.582 53.6977 211.771C53.0657 212.15 52.3705 212.403 51.6753 212.656C51.2961 212.782 50.8537 212.846 50.4745 212.846C50.2217 212.846 49.9689 212.782 49.7161 212.656C49.5897 212.593 49.4633 212.466 49.3369 212.403C49.2737 212.277 49.1473 212.15 49.0841 212.024C48.8945 211.582 48.8313 211.139 48.8313 210.697C48.8313 210.507 48.8313 210.318 48.8945 210.128L48.9577 209.622C48.9577 209.496 48.9577 209.37 48.9577 209.18C48.9577 209.054 48.8945 208.99 49.0209 209.117C49.0841 209.18 49.1473 209.18 49.2105 209.18H49.1473C49.0209 209.243 48.8945 209.306 48.7681 209.37C48.1993 209.749 47.5673 210.128 46.9353 210.444C46.3033 210.76 45.6713 211.076 45.0393 211.392C44.6601 211.518 44.2809 211.645 43.9017 211.708C43.7753 211.708 43.6489 211.708 43.5225 211.708C43.3329 211.708 43.2065 211.645 43.0801 211.518C42.8273 211.329 42.7009 211.013 42.7009 210.697C42.7009 210.318 42.7641 209.875 42.8905 209.496C43.0169 209.117 43.0801 208.801 43.2065 208.485C43.3329 208.232 43.3961 207.916 43.4593 207.6C43.3329 207.6 43.2065 207.6 43.0801 207.663C42.4481 207.916 41.8793 208.232 41.3105 208.611C40.5521 209.117 39.9201 209.559 39.3513 209.938Z" fill="#000001"/>
<path d="M38.0242 224.345C38.5298 223.839 39.0354 223.334 39.541 222.891C40.1098 222.386 40.6786 222.006 41.3106 221.627C41.5002 221.501 41.753 221.438 41.9426 221.438C42.1322 221.438 42.2586 221.501 42.4482 221.564C42.5746 221.69 42.6378 221.817 42.701 222.006C42.701 222.196 42.701 222.449 42.6378 222.638L42.5114 223.144L42.3218 224.155C42.2586 224.471 42.1954 224.724 42.2586 225.04C42.2586 225.166 42.3218 225.166 42.2586 225.103C42.1954 225.04 42.2586 225.103 42.4482 225.04C42.7642 224.977 43.017 224.914 43.2698 224.787C43.9018 224.534 44.4706 224.218 45.0394 223.902C45.6082 223.523 46.177 223.207 46.8722 222.828C47.0618 222.701 47.2514 222.638 47.441 222.575C47.5674 222.512 47.757 222.512 47.8834 222.512C48.1362 222.512 48.389 222.575 48.5786 222.765C48.705 222.891 48.8314 223.081 48.8946 223.27C48.9578 223.397 48.9578 223.523 48.9578 223.649C48.9578 223.839 48.9578 224.092 48.9578 224.281L48.8946 224.787C48.8946 224.914 48.8314 225.103 48.8314 225.229C48.8314 225.482 48.8314 225.735 48.8946 225.925L48.9578 225.988C48.9578 225.988 48.9578 226.051 49.021 226.051C49.0842 226.114 49.1474 226.114 49.2738 226.114C49.5266 226.114 49.8426 226.051 50.0954 225.988C50.7274 225.798 51.3594 225.545 51.9282 225.293C52.2442 225.166 52.497 224.977 52.7498 224.787L53.1922 224.471C53.3186 224.408 53.445 224.345 53.5714 224.281C53.6978 224.218 53.8874 224.218 54.0138 224.281C54.077 224.281 54.2034 224.345 54.2666 224.408C54.3298 224.471 54.3298 224.534 54.393 224.534C54.5194 224.724 54.5826 224.977 54.5826 225.229L54.6458 225.798C54.709 226.114 54.709 226.493 54.7722 226.809C54.7722 227.378 55.1514 227.884 55.7202 228.073C56.3522 228.2 57.0474 228.2 57.6794 228.073C58.3746 227.947 59.0066 227.757 59.7018 227.505C59.133 227.884 58.4378 228.2 57.8058 228.389C57.1106 228.642 56.3522 228.705 55.5938 228.642C55.4042 228.579 55.2146 228.516 55.025 228.453C54.8986 228.389 54.8354 228.326 54.7722 228.326L54.5194 228.073C54.2666 227.757 54.0138 227.378 53.9506 226.999C53.8242 226.62 53.8242 226.304 53.761 225.925L53.6346 225.419C53.6346 225.293 53.5714 225.166 53.5082 225.103L53.5714 225.166C53.6346 225.166 53.6346 225.229 53.6978 225.229C53.761 225.229 53.8242 225.229 53.8874 225.229C53.8874 225.229 53.8242 225.293 53.761 225.293L53.3818 225.609C53.0658 225.861 52.7498 226.051 52.4338 226.241C51.8018 226.62 51.1066 226.873 50.4114 227.125C50.0322 227.252 49.5898 227.315 49.2106 227.315C48.9578 227.315 48.705 227.252 48.4522 227.125C48.1994 226.999 47.9466 226.746 47.8202 226.493C47.6306 226.051 47.5674 225.609 47.5674 225.166C47.5674 224.977 47.5674 224.787 47.6306 224.597L47.6938 224.092C47.6938 223.965 47.6938 223.776 47.6938 223.649C47.6938 223.523 47.6306 223.46 47.757 223.586C47.8202 223.649 47.8834 223.649 47.9466 223.649H47.8834C47.757 223.713 47.6306 223.713 47.5042 223.776C46.9354 224.092 46.3666 224.471 45.7346 224.787C45.1026 225.166 44.4706 225.482 43.7754 225.735C43.3962 225.862 43.017 225.988 42.6378 226.051C42.5114 226.051 42.385 226.051 42.2586 226.051C42.069 226.051 41.9426 225.988 41.8162 225.861C41.5634 225.672 41.437 225.356 41.437 225.04C41.437 224.661 41.5002 224.218 41.6266 223.839C41.753 223.46 41.8162 223.144 41.9426 222.828C42.069 222.575 42.1322 222.259 42.1954 221.943C42.1954 221.88 42.1954 221.88 42.1954 221.943C42.1954 222.006 42.2586 221.943 42.1954 221.943C42.069 221.943 41.9426 222.006 41.8162 222.006C41.1842 222.259 40.6154 222.575 40.0466 222.954C39.1618 223.523 38.593 223.902 38.0242 224.345Z" fill="#000001"/>
</g>
<path d="M92.4392 163.677C92.4392 163.677 81.6952 161.591 81.8848 173.662C82.0744 185.733 96.3576 182.763 99.1384 176.822C101.919 170.881 96.9264 163.487 92.4392 163.677Z" fill="#469F78"/>
<path d="M87.2568 172.778C87.4464 172.715 87.636 172.651 87.8256 172.715C88.0152 172.778 88.2048 172.841 88.3944 172.904C88.7736 173.031 89.0896 173.22 89.4056 173.41C90.1008 173.789 90.7328 174.231 91.3016 174.737L90.4168 174.863C91.112 173.789 91.8704 172.715 92.692 171.703C93.0712 171.198 93.5136 170.692 93.956 170.25C94.3984 169.744 94.8408 169.302 95.3464 168.859C95.0936 169.491 94.8408 170.06 94.5248 170.692C94.2088 171.261 93.8928 171.83 93.5768 172.399C92.8816 173.536 92.1864 174.547 91.3648 175.622L90.9224 176.191L90.48 175.748L88.9 174.168L88.0784 173.41C87.952 173.283 87.8256 173.157 87.636 173.031C87.4464 172.904 87.4464 172.715 87.2568 172.778Z" fill="white"/>
<path d="M115.128 174.793L105.648 178.333C105.648 178.333 109.25 206.457 115.128 208.605C120.69 210.691 141.23 191.415 141.23 191.415L133.393 165.945L118.414 182.441L115.128 174.793Z" fill="#000001"/>
<path d="M205.504 374.253H183.637C183.637 374.253 183.953 372.547 187.176 372.231C190.399 371.915 194.57 366.985 194.57 366.985L185.533 340.125H198.426L205.504 374.253Z" fill="#000001"/>
<path d="M157.283 374.253H135.479C135.479 374.253 135.795 372.547 139.018 372.231C142.241 371.915 146.412 366.985 146.412 366.985L144.074 340.125H159.242L157.283 374.253Z" fill="#000001"/>
<path d="M166.067 358.709H142.683C142.683 358.709 131.623 231.929 142.683 213.854L175.926 212.211C175.926 212.211 198.11 292.665 209.549 355.043L181.235 357.065L159.494 249.941L166.067 358.709Z" fill="#87CCDB"/>
<path d="M170.112 152.362C170.112 152.362 181.931 151.73 182.563 155.395C183.195 159.061 175.927 212.212 175.927 212.212L142.683 213.855C142.683 213.855 128.59 172.017 132.635 166.771C136.679 161.526 152.416 156.091 152.416 156.091L170.112 152.362Z" fill="#469F78"/>
<path d="M156.082 126.574C156.082 126.574 151.594 137.824 152.037 138.013C152.479 138.203 153.87 137.95 153.87 137.95C153.87 137.95 151.468 145.85 152.542 156.847C152.542 156.847 164.298 156.721 170.112 152.297C170.112 152.297 172.387 124.046 170.112 122.909C167.837 121.771 156.082 126.574 156.082 126.574Z" fill="#A04040"/>
<path d="M168.279 130.618C168.279 130.618 166.383 136.18 166.889 137.254C167.394 138.329 170.997 135.801 170.997 135.801C170.997 135.801 173.082 122.908 171.945 121.201C170.807 119.495 143.442 126.573 145.59 127.837C147.739 129.101 156.082 126.637 156.082 126.637L164.487 126.826C164.487 126.826 166.004 129.86 168.279 130.618Z" fill="#F3CB5C"/>
<path d="M170.807 135.924C170.807 135.924 175.168 134.471 174.283 130.679C173.398 126.887 169.227 133.839 169.227 133.839L170.807 135.924Z" fill="#A04040"/>
<path d="M157.282 156.531L161.517 161.523L170.112 152.359L152.416 156.088L147.739 161.903L157.282 156.531Z" fill="#EA8383"/>
<path d="M163.097 132.955C163.097 132.955 159.368 131.059 157.535 134.219C157.409 134.472 157.472 134.724 157.725 134.851C157.725 134.851 157.788 134.851 157.788 134.914C158.926 135.293 161.896 135.988 163.097 132.955Z" fill="#F2EBEB"/>
<path d="M163.286 132.96C162.718 132.834 162.149 132.77 161.58 132.707C161.011 132.644 160.506 132.707 159.937 132.77C158.862 132.96 157.915 133.655 157.346 134.54C157.409 133.908 157.725 133.402 158.167 132.96C158.61 132.518 159.178 132.202 159.81 132.138C161.074 131.949 162.275 132.202 163.286 132.96Z" fill="#000001"/>
<path d="M159.305 132.642C159.305 132.642 160.379 133.085 159.684 135.297C159.684 135.297 157.03 135.233 157.409 134.475C157.409 134.475 158.357 132.579 159.305 132.642Z" fill="#000001"/>
<path d="M162.086 138.711C162.338 138.964 162.402 139.343 162.275 139.659C162.149 140.038 161.896 140.291 161.58 140.481C161.264 140.607 160.948 140.67 160.632 140.607C160.316 140.544 160.063 140.354 159.874 140.101C160.126 139.912 160.316 139.785 160.569 139.659C160.758 139.533 160.885 139.469 161.011 139.406C161.39 139.153 161.77 138.964 162.086 138.711Z" fill="#000001"/>
<path d="M163.855 131.187C163.35 131.251 162.781 131.251 162.275 131.251C161.77 131.251 161.327 131.187 160.822 131.187C160.316 131.187 159.874 131.124 159.368 131.061C158.863 130.998 158.357 130.871 157.851 130.745C158.736 130.113 159.874 129.86 160.948 129.923C161.517 129.987 162.023 130.113 162.528 130.303C163.034 130.492 163.476 130.808 163.855 131.187Z" fill="#F3CB5C"/>
<path d="M157.282 156.531C156.65 157.669 156.082 158.87 155.576 160.07C155.07 161.271 154.628 162.472 154.186 163.736C153.996 164.368 153.806 164.937 153.617 165.569C153.427 166.201 153.238 166.833 153.048 167.465C152.858 168.097 152.732 168.729 152.542 169.361C152.353 169.993 152.226 170.625 151.974 171.32C151.91 170.625 151.91 169.993 151.91 169.298C151.974 168.602 151.974 167.97 152.1 167.275C152.29 165.948 152.542 164.621 152.985 163.357C153.427 162.093 153.996 160.829 154.691 159.691C155.323 158.427 156.208 157.416 157.282 156.531Z" fill="#000001"/>
<path d="M181.867 154.191C181.867 154.191 221.683 188.445 219.85 198.999C218.018 209.554 180.287 213.851 180.287 213.851V204.435L191.221 195.271C191.221 195.271 174.662 181.493 169.227 171.318C163.792 161.143 177.886 151.22 181.867 154.191Z" fill="#469F78"/>
<path d="M180.287 204.376C181.299 203.175 182.373 202.037 183.574 200.963C184.711 199.889 185.849 198.877 187.05 197.866C188.251 196.855 189.451 195.907 190.715 194.959C191.979 194.011 193.243 193.126 194.634 192.305C193.623 193.505 192.548 194.643 191.347 195.717C190.21 196.792 189.072 197.803 187.871 198.814C186.671 199.825 185.47 200.773 184.206 201.721C182.879 202.733 181.615 203.617 180.287 204.376Z" fill="#000001"/>
<path d="M180.287 213.849C180.287 213.849 169.796 213.154 168.406 212.332C167.015 211.511 173.083 210.184 173.083 210.184C173.083 210.184 166.636 206.644 165.056 204.432C163.476 202.22 167.521 203.421 167.521 203.421C167.521 203.421 166.763 201.588 167.711 200.893C168.659 200.198 176.938 202.789 176.938 202.789L177.696 199.25L180.351 204.432L180.287 213.849Z" fill="#A04040"/>
<path d="M176.242 206.391C175.358 206.202 174.473 206.012 173.651 205.696C172.83 205.443 172.008 205.127 171.186 204.811L168.785 203.863C167.963 203.547 167.142 203.295 166.32 203.105C166.762 202.915 167.205 202.789 167.71 202.789C168.153 202.789 168.658 202.789 169.101 202.915C169.986 203.042 170.87 203.295 171.692 203.674C172.514 203.99 173.335 204.369 174.094 204.875C174.852 205.254 175.547 205.823 176.242 206.391Z" fill="#000001"/>
<path d="M191.158 195.273C189.451 193.946 187.808 192.493 186.228 191.039C184.648 189.585 183.068 188.069 181.551 186.552C180.034 185.035 178.518 183.455 177.064 181.875C175.61 180.295 174.22 178.652 172.83 176.945C174.536 178.273 176.179 179.726 177.759 181.18C179.339 182.633 180.919 184.15 182.436 185.667C183.953 187.184 185.47 188.764 186.923 190.344C188.377 191.924 189.83 193.504 191.158 195.273Z" fill="#000001"/>
<path d="M115.128 174.799C114.306 172.271 114.686 168.1 114.433 165.508C114.18 163.296 114.749 158.936 113.485 158.936C112.221 158.936 111.526 164.118 111.526 164.118C111.526 164.118 105.458 160.326 102.93 158.051C100.402 155.776 98.8224 154.512 100.655 158.051C100.655 158.051 98.1904 155.649 97.5584 155.839C96.9264 156.028 98.8856 159.252 98.8856 159.252C98.5064 161.084 98.5696 162.917 99.0752 164.687C99.8336 167.404 105.269 176.379 105.711 178.275L115.128 174.799Z" fill="#A04040"/>
<path d="M109.25 169.173C109.061 168.668 108.998 168.162 108.998 167.656C108.998 167.151 109.124 166.645 109.25 166.203C109.44 165.697 109.693 165.255 110.009 164.812C110.072 164.686 110.198 164.623 110.325 164.496C110.451 164.37 110.578 164.307 110.704 164.244C110.83 164.18 110.957 164.117 111.083 164.117C111.21 164.117 111.336 164.117 111.526 164.117C111.21 164.433 111.02 164.876 110.894 165.255L110.514 166.519C110.388 166.961 110.198 167.404 110.009 167.783C109.756 168.288 109.566 168.731 109.25 169.173Z" fill="#000001"/>
<path d="M106.09 168.097C105.332 167.528 104.574 166.959 103.878 166.453C103.499 166.201 103.183 165.948 102.741 165.758C102.425 165.569 102.109 165.442 101.73 165.442H101.35L101.224 165L100.592 163.357C100.402 162.788 100.213 162.219 99.96 161.713C99.7704 161.208 99.4544 160.702 99.1384 160.26C99.0752 160.133 98.9488 160.07 98.9488 160.007C98.9488 159.944 99.012 159.944 99.012 159.944C99.012 159.944 98.9488 160.007 98.9488 160.07C98.8224 160.323 98.7592 160.639 98.696 160.892C98.6328 160.576 98.5696 160.26 98.5696 159.944C98.5696 159.817 98.6328 159.754 98.6328 159.628C98.696 159.565 98.7592 159.501 98.8224 159.438C98.8856 159.375 99.012 159.375 99.0752 159.375C99.2648 159.438 99.4544 159.501 99.644 159.628C99.8968 159.817 100.15 160.07 100.339 160.323C100.529 160.576 100.718 160.829 100.908 161.081C101.54 162.156 102.046 163.293 102.425 164.494L101.856 164.052C102.425 164.115 102.93 164.368 103.436 164.684C103.815 164.937 104.194 165.316 104.574 165.632C105.142 166.453 105.648 167.212 106.09 168.097Z" fill="#000001"/>
<path d="M105.395 161.583C104.763 162.025 104.068 162.404 103.373 162.657C103.057 162.784 102.741 162.847 102.425 162.973C102.046 163.1 101.666 163.226 101.35 163.416C101.35 162.91 101.54 162.468 101.856 162.152C102.172 161.836 102.551 161.583 102.93 161.456C103.31 161.33 103.752 161.204 104.194 161.267C104.574 161.267 105.016 161.393 105.395 161.583Z" fill="#000001"/>
<mask id="mask0_10657_4994" style="mask-type:luminance" maskUnits="userSpaceOnUse" x="137" y="212" width="73" height="147">
<path d="M166.067 358.709H142.683C142.683 358.709 131.623 231.929 142.683 213.854L175.926 212.211C175.926 212.211 198.11 292.665 209.549 355.043L181.235 357.065L159.494 249.941L166.067 358.709Z" fill="white"/>
</mask>
<g mask="url(#mask0_10657_4994)">
<path d="M210.686 371.41C210.497 371.41 210.37 371.283 210.37 371.094L203.797 209.871C203.797 209.681 203.924 209.555 204.113 209.555C204.303 209.555 204.429 209.681 204.429 209.871L211.002 371.031C211.002 371.22 210.876 371.347 210.686 371.41Z" fill="white"/>
<path d="M193.117 371.414C192.927 371.414 192.801 371.288 192.801 371.098L190.778 210.191C190.778 210.001 190.905 209.875 191.094 209.875C191.284 209.875 191.41 210.001 191.41 210.191L193.433 371.098C193.433 371.288 193.306 371.414 193.117 371.414Z" fill="white"/>
<path d="M176.748 371.414C176.558 371.414 176.432 371.288 176.432 371.098V210.191C176.432 210.001 176.558 209.875 176.748 209.875C176.937 209.875 177.064 210.001 177.064 210.191V371.098C177.064 371.288 176.937 371.414 176.748 371.414Z" fill="white"/>
<path d="M161.264 371.415C161.074 371.415 160.948 371.288 160.948 371.099L162.465 210.128C162.465 209.939 162.591 209.812 162.781 209.812C162.97 209.812 163.097 209.939 163.097 210.128L161.58 371.099C161.58 371.288 161.453 371.415 161.264 371.415Z" fill="white"/>
<path d="M144.516 371.414C144.326 371.414 144.2 371.288 144.2 371.098L150.709 210.191C150.709 210.001 150.836 209.875 151.025 209.875C151.215 209.875 151.341 210.001 151.341 210.191L144.832 371.098C144.832 371.288 144.705 371.414 144.516 371.414Z" fill="white"/>
<path d="M130.296 371.414C130.106 371.414 129.98 371.225 129.98 371.098L138.069 210.191C138.069 210.001 138.196 209.875 138.385 209.875C138.385 209.875 138.385 209.875 138.449 209.875C138.638 209.875 138.765 210.065 138.765 210.191L130.675 371.098C130.612 371.288 130.485 371.477 130.296 371.414Z" fill="white"/>
<path d="M261.12 260.241H50.5374C50.3478 260.241 50.2214 260.115 50.2214 259.925C50.2214 259.736 50.3478 259.609 50.5374 259.609H261.12C261.309 259.609 261.436 259.736 261.436 259.925C261.436 260.115 261.309 260.241 261.12 260.241Z" fill="white"/>
<path d="M52.939 252.217C52.7494 252.217 52.623 252.091 52.623 251.901C52.623 251.711 52.7494 251.585 52.939 251.585L260.804 249.562C260.993 249.562 261.12 249.689 261.12 249.879C261.12 250.068 260.993 250.195 260.804 250.195L52.939 252.217Z" fill="white"/>
<path d="M260.804 239.265H99.8966C99.707 239.265 99.5806 239.138 99.5806 238.949C99.5806 238.759 99.707 238.633 99.8966 238.633H260.804C260.993 238.633 261.12 238.759 261.12 238.949C261.12 239.138 260.993 239.265 260.804 239.265Z" fill="white"/>
<path d="M260.867 228.583L99.8966 227.382C99.707 227.382 99.5806 227.256 99.5806 227.066C99.5806 226.876 99.707 226.75 99.8966 226.75L260.867 227.951C261.057 227.951 261.183 228.077 261.183 228.267C261.183 228.456 261.057 228.583 260.867 228.583Z" fill="white"/>
<path d="M260.804 219.609L99.8966 214.616C99.707 214.616 99.5806 214.49 99.5806 214.3C99.5806 214.111 99.707 213.984 99.8966 213.984C99.8966 213.984 99.8966 213.984 99.9598 213.984L260.867 218.977C261.057 218.977 261.183 219.104 261.183 219.293C261.12 219.483 260.993 219.609 260.804 219.609Z" fill="white"/>
<path d="M11.5431 340.89C11.3535 340.89 11.2271 340.764 11.2271 340.574C11.2271 340.385 11.3535 340.258 11.5431 340.258L276.541 335.266C276.667 335.266 276.857 335.329 276.857 335.518V335.582C276.857 335.771 276.73 335.898 276.541 335.898L11.5431 340.89Z" fill="white"/>
<path d="M11.5431 327.423C11.3535 327.423 11.2271 327.297 11.2271 327.107C11.2271 326.917 11.3535 326.791 11.5431 326.791L276.035 325.211C276.225 325.211 276.351 325.337 276.351 325.527C276.351 325.717 276.225 325.843 276.035 325.843L11.5431 327.423Z" fill="white"/>
<path d="M276.035 314.913H11.5431C11.3535 314.913 11.2271 314.787 11.2271 314.597C11.2271 314.408 11.3535 314.281 11.5431 314.281H276.035C276.225 314.281 276.351 314.408 276.351 314.597C276.351 314.787 276.161 314.913 276.035 314.913Z" fill="white"/>
<path d="M276.161 304.231L11.6063 303.03C11.4167 303.03 11.2903 302.904 11.2903 302.714C11.2903 302.525 11.4167 302.398 11.6063 302.398L276.161 303.599C276.351 303.599 276.477 303.726 276.477 303.915C276.414 304.105 276.288 304.231 276.161 304.231Z" fill="white"/>
<path d="M276.035 295.258L11.6063 290.265C11.4167 290.265 11.2903 290.138 11.2903 289.949C11.2903 289.759 11.4167 289.633 11.6063 289.633L276.098 294.626C276.288 294.626 276.414 294.752 276.414 294.942C276.351 295.131 276.225 295.258 276.035 295.258Z" fill="white"/>
<path d="M275.972 285.583L11.4798 279.39C11.2902 279.39 11.1638 279.263 11.1638 279.074C11.1638 278.884 11.2902 278.758 11.4798 278.758L275.972 284.951C276.161 284.951 276.288 285.078 276.288 285.267C276.225 285.457 276.098 285.583 275.972 285.583Z" fill="white"/>
<path d="M275.972 279.396L11.4798 272.507C11.2902 272.507 11.1638 272.381 11.1638 272.191C11.1638 272.001 11.2902 271.875 11.4798 271.875L275.972 278.764C276.161 278.764 276.288 278.89 276.288 279.08C276.288 279.269 276.161 279.396 275.972 279.396Z" fill="white"/>
<path d="M275.972 271.554L11.4798 266.562C11.2902 266.562 11.1638 266.435 11.1638 266.246C11.1638 266.056 11.2902 265.93 11.4798 265.93L275.972 270.922C276.161 270.922 276.288 271.049 276.288 271.238C276.225 271.428 276.098 271.554 275.972 271.554Z" fill="white"/>
</g>
<path d="M236.851 345.376C236.851 345.376 226.55 339.624 222.126 324.267C217.702 308.909 219.155 306.887 223.074 307.898C226.992 308.909 244.246 332.736 236.851 345.376Z" fill="#469F78"/>
<path d="M247.026 317.883C247.026 317.883 242.223 304.927 248.227 294.752C254.231 284.577 258.592 286.536 256.949 298.797C255.306 311.058 249.744 319.653 247.026 317.883Z" fill="#469F78"/>
<path d="M254.105 342.088C254.105 342.088 251.198 335.136 257.328 324.328C263.458 313.521 270.347 311.372 268.578 323.064C266.808 334.756 256.949 345.943 254.105 342.088Z" fill="#469F78"/>
<path d="M253.41 290.203C252.651 295.386 251.766 300.505 250.818 305.624C249.87 310.743 248.859 315.862 247.848 320.982C246.837 326.101 245.699 331.22 244.562 336.276C243.993 338.804 243.361 341.332 242.729 343.86L241.718 347.652C241.402 348.916 241.022 350.18 240.517 351.381C240.706 350.749 240.896 350.117 241.022 349.485L241.402 347.589L242.097 343.734L243.55 336.023C244.498 330.904 245.573 325.785 246.584 320.666C248.733 310.554 250.882 300.378 253.41 290.203Z" fill="#000001"/>
<path d="M221.304 309.922C223.074 313.145 224.78 316.431 226.423 319.781C228.067 323.067 229.647 326.417 231.227 329.767C232.807 333.116 234.323 336.466 235.777 339.879C237.231 343.291 238.684 346.704 240.011 350.117C238.242 346.894 236.535 343.607 234.892 340.258C233.249 336.971 231.669 333.622 230.089 330.272C228.509 326.923 226.992 323.573 225.539 320.16C224.085 316.747 222.631 313.398 221.304 309.922Z" fill="#000001"/>
<path d="M247.911 300.57C248.291 300.95 248.67 301.392 248.923 301.898C249.428 302.846 249.807 303.857 250.06 304.868C250.187 305.437 250.187 306.006 250.123 306.511C249.744 306.132 249.365 305.69 249.112 305.184C248.607 304.236 248.227 303.225 247.975 302.214C247.911 301.708 247.911 301.139 247.911 300.57Z" fill="#000001"/>
<path d="M233.628 324.016C233.755 325.596 233.755 327.176 233.439 328.756C233.312 329.514 233.123 330.272 232.933 331.031C232.743 331.789 232.427 332.548 232.111 333.306C231.985 332.484 231.922 331.726 231.985 330.904C232.048 329.324 232.301 327.744 232.743 326.228C232.933 325.469 233.249 324.711 233.628 324.016Z" fill="#000001"/>
<path d="M265.228 319.969C264.217 322.686 263.079 325.404 261.878 328.058C260.678 330.713 259.477 333.367 258.213 336.022C256.949 338.676 255.685 341.267 254.294 343.858C252.904 346.45 251.577 348.978 250.06 351.506C251.071 348.788 252.209 346.07 253.41 343.416C254.61 340.762 255.811 338.107 257.075 335.453C258.339 332.798 259.603 330.207 260.994 327.616C262.384 325.025 263.774 322.497 265.228 319.969Z" fill="#000001"/>
<path d="M262.511 333.305C262.195 333.747 261.878 334.19 261.436 334.506C261.057 334.822 260.615 335.138 260.235 335.454C259.793 335.706 259.35 335.959 258.845 336.149C258.339 336.338 257.834 336.465 257.265 336.528C257.518 336.085 257.897 335.643 258.276 335.327C259.034 334.632 259.919 334.126 260.867 333.747C261.499 333.494 262.005 333.368 262.511 333.305Z" fill="#000001"/>
<path d="M261.12 322.055C261.373 322.56 261.499 323.129 261.626 323.698C261.815 324.772 261.815 325.847 261.626 326.921C261.562 327.49 261.373 327.995 261.12 328.564C260.867 328.059 260.741 327.49 260.614 326.921C260.551 326.415 260.488 325.847 260.488 325.278C260.488 324.709 260.551 324.203 260.614 323.635C260.741 323.129 260.867 322.56 261.12 322.055Z" fill="#000001"/>
<path d="M233.628 349.039H255.306L252.588 353.716C252.588 353.716 257.265 365.345 254.421 368.252C251.577 371.159 236.662 371.981 233.628 368.252C230.595 364.523 236.472 352.894 236.472 352.894L233.628 349.039Z" fill="#000001"/>
<path d="M91.6176 343.732C94.0958 343.732 96.1048 341.723 96.1048 339.245C96.1048 336.767 94.0958 334.758 91.6176 334.758C89.1394 334.758 87.1304 336.767 87.1304 339.245C87.1304 341.723 89.1394 343.732 91.6176 343.732Z" fill="#F2EBEB"/>
<path d="M245.762 351.694C248.45 351.694 250.629 349.515 250.629 346.827C250.629 344.14 248.45 341.961 245.762 341.961C243.075 341.961 240.896 344.14 240.896 346.827C240.896 349.515 243.075 351.694 245.762 351.694Z" fill="#F2EBEB"/>
<path d="M53.6344 301.072C57.1946 301.072 60.0808 298.186 60.0808 294.626C60.0808 291.066 57.1946 288.18 53.6344 288.18C50.0741 288.18 47.188 291.066 47.188 294.626C47.188 298.186 50.0741 301.072 53.6344 301.072Z" fill="#F2EBEB"/>
<path d="M209.612 259.108C212.3 259.108 214.478 256.929 214.478 254.241C214.478 251.554 212.3 249.375 209.612 249.375C206.924 249.375 204.746 251.554 204.746 254.241C204.746 256.929 206.924 259.108 209.612 259.108Z" fill="#F2EBEB"/>
<path d="M268.83 270.607C271.309 270.607 273.318 268.598 273.318 266.12C273.318 263.642 271.309 261.633 268.83 261.633C266.352 261.633 264.343 263.642 264.343 266.12C264.343 268.598 266.352 270.607 268.83 270.607Z" fill="#F2EBEB"/>
</g>
</g>
<defs>
<clipPath id="clip0_10657_4994">
<rect width="337" height="423" rx="12" fill="white"/>
</clipPath>
<clipPath id="clip1_10657_4994">
<rect x="23" y="34" width="314" height="384" rx="12" fill="white"/>
</clipPath>
</defs>
</svg>
