<svg width="598" height="522" viewBox="0 0 598 522" fill="none" xmlns="http://www.w3.org/2000/svg">
<path d="M181 341.398C181 341.398 160 125.798 166 124.598C172 123.398 528.5 115.198 530.5 124.598C532.5 133.998 517.8 336.898 511.1 341.398C504.4 345.898 181.4 346.198 181 341.398Z" fill="#F2EBEB"/>
<path d="M187 146.195H510.1L500.3 322.595L197.8 326.495L187 146.195Z" fill="white"/>
<path d="M352.7 131.402C352.7 131.402 347.8 131.602 350.2 136.802C352.6 142.002 356.6 140.302 357.6 136.802C358.6 133.302 354.5 130.902 352.7 131.402Z" fill="#40196D"/>
<path d="M187 146.195H510.1L509.3 161.195H187.9L187 146.195Z" fill="#EA8383"/>
<path d="M255.9 173.395L248.9 161.195H509.3L508.6 173.395H255.9Z" fill="#F2EBEB"/>
<path d="M205.7 165.2C205.7 165.2 203.2 165.3 204.5 167.9C205.8 170.5 207.7 169.6 208.2 167.9C208.4 166.7 207.6 165.4 206.4 165.2C206.1 165.1 205.9 165.1 205.7 165.2Z" fill="#EA8383"/>
<path d="M216 165.2C216 165.2 213.5 165.3 214.8 167.9C216.1 170.5 218 169.6 218.5 167.9C218.7 166.6 217.9 165.4 216.6 165.2C216.4 165.1 216.2 165.1 216 165.2Z" fill="#F3CB5C"/>
<path d="M225 165.2C225 165.2 222.5 165.3 223.8 167.9C225.1 170.5 227 169.6 227.5 167.9C227.7 166.7 226.9 165.4 225.7 165.2C225.4 165.1 225.2 165.1 225 165.2Z" fill="#469F78"/>
<path d="M187 350.699C187 350.699 141.4 412.699 145.5 413.499C149.6 414.299 549.1 413.499 550.8 408.599C552.5 403.699 512.6 354.399 510.2 350.699C507.8 346.999 187 350.699 187 350.699Z" fill="#F2EBEB"/>
<path d="M150.5 420.702L145.5 413.502L550.8 408.602C550.8 408.602 549.4 418.102 541.3 420.702C533.2 423.302 161.2 426.102 150.5 420.702Z" fill="#000001"/>
<path d="M226.2 364.8C226.2 364.8 228.6 359.5 229.9 359.1C231.2 358.7 246.4 359.1 246.4 359.1C246.4 359.1 245.8 364.8 243.6 364.8C241.4 364.8 226.2 364.8 226.2 364.8Z" fill="#EA8383"/>
<path d="M256.3 364.8C256.3 364.8 258.7 359.5 259.9 359.1C261.1 358.7 276.4 359.1 276.4 359.1C276.4 359.1 275.8 364.8 273.6 364.8C271.4 364.8 256.3 364.8 256.3 364.8Z" fill="#EA8383"/>
<path d="M285.4 364.8C285.4 364.8 287.8 359.5 289 359.1C290.2 358.7 305.5 359.1 305.5 359.1C305.5 359.1 304.9 364.8 302.7 364.8C300.5 364.8 285.4 364.8 285.4 364.8Z" fill="#EA8383"/>
<path d="M315.4 364.8C315.4 364.8 317.8 359.5 319 359.1C320.2 358.7 335.5 359.1 335.5 359.1C335.5 359.1 334.9 364.8 332.7 364.8C330.5 364.8 315.4 364.8 315.4 364.8Z" fill="#EA8383"/>
<path d="M345.7 364.8C345.7 364.8 348.1 359.5 349.4 359.1C350.7 358.7 363.1 359.1 363.1 359.1C363.1 359.1 365.3 364.8 363.1 364.8C360.9 364.8 345.7 364.8 345.7 364.8Z" fill="#EA8383"/>
<path d="M484.2 364.8C484.2 364.8 481.8 359.5 480.5 359.1C479.2 358.7 464 359.1 464 359.1C464 359.1 464.6 364.8 466.8 364.8C469 364.8 484.2 364.8 484.2 364.8Z" fill="#EA8383"/>
<path d="M454.1 364.8C454.1 364.8 451.7 359.5 450.4 359.1C449.1 358.7 434 359.1 434 359.1C434 359.1 434.6 364.8 436.8 364.8C439 364.8 454.1 364.8 454.1 364.8Z" fill="#EA8383"/>
<path d="M425 364.8C425 364.8 422.6 359.5 421.3 359.1C420 358.7 404.8 359.1 404.8 359.1C404.8 359.1 405.4 364.8 407.6 364.8C409.8 364.8 425 364.8 425 364.8Z" fill="#EA8383"/>
<path d="M395 364.8C395 364.8 392.6 359.5 391.3 359.1C390 358.7 374.8 359.1 374.8 359.1C374.8 359.1 375.4 364.8 377.6 364.8C379.8 364.8 395 364.8 395 364.8Z" fill="#EA8383"/>
<path d="M215.8 379.698C215.8 379.698 218.4 374.398 219.7 373.998C221 373.598 237.3 373.998 237.3 373.998C237.3 373.998 236.7 379.698 234.3 379.698C231.9 379.698 215.8 379.698 215.8 379.698Z" fill="#EA8383"/>
<path d="M248.1 379.698C248.1 379.698 250.7 374.398 252 373.998C253.3 373.598 269.7 373.998 269.7 373.998C269.7 373.998 269.1 379.698 266.7 379.698C264.3 379.698 248.1 379.698 248.1 379.698Z" fill="#EA8383"/>
<path d="M279.3 379.698C279.3 379.698 281.9 374.398 283.2 373.998C284.5 373.598 300.9 373.998 300.9 373.998C300.9 373.998 300.3 379.698 297.9 379.698C295.5 379.698 279.3 379.698 279.3 379.698Z" fill="#EA8383"/>
<path d="M311.5 379.698C311.5 379.698 314.1 374.398 315.4 373.998C316.7 373.598 333.1 373.998 333.1 373.998C333.1 373.998 332.5 379.698 330.1 379.698C327.7 379.698 311.5 379.698 311.5 379.698Z" fill="#EA8383"/>
<path d="M344 379.698C344 379.698 346.6 374.398 347.9 373.998C349.2 373.598 362.5 373.998 362.5 373.998C362.5 373.998 364.9 379.698 362.5 379.698C360.1 379.698 344 379.698 344 379.698Z" fill="#EA8383"/>
<path d="M492.6 379.698C492.6 379.698 490 374.398 488.7 373.998C487.4 373.598 471 373.998 471 373.998C471 373.998 471.6 379.698 474 379.698C476.4 379.698 492.6 379.698 492.6 379.698Z" fill="#EA8383"/>
<path d="M460.3 379.698C460.3 379.698 457.7 374.398 456.4 373.998C455.1 373.598 438.7 373.998 438.7 373.998C438.7 373.998 439.3 379.698 441.7 379.698C444.1 379.698 460.3 379.698 460.3 379.698Z" fill="#EA8383"/>
<path d="M429.1 379.698C429.1 379.698 426.5 374.398 425.2 373.998C423.9 373.598 407.5 373.998 407.5 373.998C407.5 373.998 408.1 379.698 410.5 379.698C412.9 379.698 429.1 379.698 429.1 379.698Z" fill="#EA8383"/>
<path d="M396.9 379.698C396.9 379.698 394.3 374.398 393 373.998C391.7 373.598 375.3 373.998 375.3 373.998C375.3 373.998 375.9 379.698 378.3 379.698C380.7 379.698 396.9 379.698 396.9 379.698Z" fill="#EA8383"/>
<path d="M333.3 388.499C333.3 388.499 368.6 387.799 373.3 388.499C378 389.199 383.6 402.099 382.5 402.099C381.4 402.099 328.7 402.799 328.8 400.599C328.9 398.399 333.3 388.499 333.3 388.499Z" fill="#40196D"/>
<mask id="mask0_13406_2534" style="mask-type:luminance" maskUnits="userSpaceOnUse" x="229" y="190" width="256" height="109">
<path d="M229.4 190.5L233.8 298.8H480.5L484.2 190.5H229.4Z" fill="white"/>
</mask>
<g mask="url(#mask0_13406_2534)">
<path d="M451.559 114.248L450.56 114.281L459.412 379.722L460.412 379.689L451.559 114.248Z" fill="#F2EBEB"/>
<path d="M433.897 114.693L432.898 114.703L435.672 379.577L436.671 379.566L433.897 114.693Z" fill="#F2EBEB"/>
<path d="M414.5 114.695H413.5V379.595H414.5V114.695Z" fill="#F2EBEB"/>
<path d="M394.573 114.68L392.491 379.68L393.491 379.688L395.573 114.688L394.573 114.68Z" fill="#F2EBEB"/>
<path d="M377.48 113.734L369.527 378.828L370.527 378.858L378.479 113.764L377.48 113.734Z" fill="#F2EBEB"/>
<path d="M361.498 114.823L350.628 379.711L351.627 379.752L362.497 114.864L361.498 114.823Z" fill="#F2EBEB"/>
<path d="M350.565 114.779L338.396 379.688L339.395 379.733L351.564 114.825L350.565 114.779Z" fill="#F2EBEB"/>
<path d="M335.73 113.851L327.777 378.945L328.777 378.975L336.729 113.881L335.73 113.851Z" fill="#F2EBEB"/>
<path d="M542.153 235.712L183.225 242.891L183.245 243.89L542.173 236.712L542.153 235.712Z" fill="#F2EBEB"/>
<path d="M541.302 222.437L183.102 224.562L183.108 225.562L541.308 223.437L541.302 222.437Z" fill="#F2EBEB"/>
<path d="M541.3 207.602H183.1V208.602H541.3V207.602Z" fill="#F2EBEB"/>
<path d="M183.112 191.562L183.107 192.562L541.407 194.126L541.412 193.126L183.112 191.562Z" fill="#F2EBEB"/>
<path d="M315.473 122.67L314.474 122.711L323.335 341.436L324.334 341.395L315.473 122.67Z" fill="#F2EBEB"/>
<path d="M297.706 123.097L296.706 123.109L299.487 341.388L300.487 341.375L297.706 123.097Z" fill="#F2EBEB"/>
<path d="M278.4 123.102H277.4V341.402H278.4V123.102Z" fill="#F2EBEB"/>
<path d="M258.462 123.006L256.328 341.406L257.328 341.416L259.462 123.016L258.462 123.006Z" fill="#F2EBEB"/>
<path d="M242.63 123.134L233.675 341.359L234.674 341.4L243.629 123.175L242.63 123.134Z" fill="#F2EBEB"/>
<path d="M189.91 281.36L189.891 282.359L548.019 289.111L548.038 288.111L189.91 281.36Z" fill="#F2EBEB"/>
<path d="M189.871 266.696L189.848 267.695L548.04 276.137L548.064 275.137L189.871 266.696Z" fill="#F2EBEB"/>
<path d="M189.853 257.321L189.827 258.32L548.019 267.637L548.045 266.637L189.853 257.321Z" fill="#F2EBEB"/>
<path d="M190.079 249.336L190.059 250.336L548.287 257.501L548.307 256.501L190.079 249.336Z" fill="#F2EBEB"/>
</g>
<path d="M255.9 265.602L257.4 298.802H279.8L278.8 265.602H255.9Z" fill="#87CCDB"/>
<path d="M278.8 265.602L278.3 252.102H255.3L255.9 265.602H278.8Z" fill="#F3CB5C"/>
<path d="M292.5 241L294 298.8H316.4L315.3 241H292.5Z" fill="#87CCDB"/>
<path d="M315.3 241.006L314.9 217.406H291.9L292.5 241.006H315.3Z" fill="#F3CB5C"/>
<path d="M334.3 253L335.8 298.8H358.1L357.1 253H334.3Z" fill="#87CCDB"/>
<path d="M357.1 253.005L356.6 234.305H333.6L334.3 253.005H357.1Z" fill="#F3CB5C"/>
<path d="M376.5 275.102L378 298.502H400.4L399.3 275.102H376.5Z" fill="#87CCDB"/>
<path d="M399.3 275.102L398.9 265.602H375.9L376.5 275.102H399.3Z" fill="#F3CB5C"/>
<path d="M229.4 208L230.8 230.7L232.1 253.4L234.6 298.8L233.8 298L294.6 297.9C314.9 297.8 335.1 297.9 355.4 298L385.8 298.1L416.2 298.3L446.6 298.5L477 298.9L446.6 299.3L416.2 299.5L385.8 299.7L355.4 299.8C335.1 299.8 314.9 299.9 294.6 299.9L233.8 299.8H233V299L231.1 253.6L230.2 230.9L229.4 208Z" fill="#000001"/>
<path d="M417.5 230.305L419 298.805H441.4L440.3 230.305H417.5Z" fill="#87CCDB"/>
<path d="M440.3 230.306L439.9 202.406H416.9L417.5 230.306H440.3Z" fill="#F3CB5C"/>
<path d="M261.9 258.802C262.9 256.402 264 254.102 265.3 251.802C266.6 249.502 267.9 247.302 269.4 245.102C272.4 240.802 275.8 236.802 279.7 233.202C281.7 231.402 283.7 229.802 285.9 228.302C288.1 226.902 290.5 225.602 292.9 224.502C295.3 223.502 297.9 222.702 300.5 222.102L302.5 221.702C303.2 221.602 303.8 221.602 304.5 221.502L305.5 221.402H306.5C307.2 221.402 307.8 221.402 308.5 221.502C311.2 221.802 313.8 222.402 316.2 223.502C318.6 224.502 321 225.702 323.2 227.102C327.6 229.902 331.9 232.902 335.9 236.202C344.1 242.702 351.9 249.602 360.1 255.902C364.2 259.102 368.5 262.002 373 264.502C375.2 265.702 377.5 266.802 379.9 267.702C382.3 268.502 384.7 268.802 387.2 268.702C389.7 268.602 392.1 268.002 394.4 267.102C396.7 266.102 398.8 264.802 400.8 263.202C402.7 261.602 404.5 259.802 406.2 257.802C407.8 255.802 409.4 253.802 410.8 251.702C413.7 247.502 416.3 243.002 418.9 238.502L426.5 225.002C431.7 216.002 437.2 207.102 443.9 199.102L444.1 199.202C438.1 207.602 432.6 216.502 427.9 225.702C422.9 234.802 418.4 244.202 412.5 252.902C411 255.102 409.4 257.202 407.7 259.202C406 261.302 404.1 263.102 402 264.802C399.9 266.502 397.6 267.902 395.1 268.902C392.6 269.902 389.9 270.502 387.2 270.602C384.5 270.702 381.8 270.302 379.2 269.302C376.7 268.402 374.3 267.202 372 265.902C367.5 263.102 363.3 260.102 359.3 256.702C351.3 250.102 343.6 243.102 335.4 236.702C331.3 233.502 327 230.602 322.5 228.102C320.3 226.802 317.9 225.802 315.5 224.902C313.1 224.002 310.7 223.402 308.1 223.202C307.5 223.202 306.9 223.202 306.2 223.202H305.3L304.4 223.302C303.8 223.402 303.1 223.402 302.5 223.502L300.6 223.902C298.1 224.402 295.7 225.202 293.3 226.202C288.6 228.202 284.3 231.002 280.4 234.302C276.5 237.702 273 241.502 269.9 245.602C266.8 249.702 264 254.102 261.7 258.802H261.9Z" fill="#000001"/>
<path d="M437.6 200C438.7 199.3 439.8 198.8 441 198.4C442.1 198 443.3 197.6 444.5 197.3L445.7 197V198.3C445.7 199.6 445.6 200.8 445.5 202.1C445.4 202.7 445.3 203.3 445.2 204C445.1 204.6 444.9 205.3 444.7 205.9C444.5 205.3 444.3 204.7 444.2 204C444.1 203.4 444 202.8 443.9 202.1C443.8 200.9 443.7 199.6 443.7 198.3L444.9 199.3C443.7 199.6 442.5 199.8 441.3 199.9C440 200.1 438.8 200.1 437.6 200Z" fill="#000001"/>
<path d="M455.4 186.406C455.3 187.306 455.1 188.206 454.7 189.106C454.4 189.906 454 190.806 453.5 191.506C453 192.306 452.5 193.006 452 193.706C451.4 194.406 450.7 195.106 450 195.606C450.1 194.706 450.3 193.806 450.7 192.906C451 192.106 451.4 191.206 451.9 190.506C452.3 189.706 452.9 189.006 453.4 188.306C453.9 187.606 454.6 187.006 455.4 186.406Z" fill="#EA8383"/>
<path d="M442.6 176.703C443.1 178.003 443.5 179.403 443.8 180.803C444.1 182.203 444.3 183.603 444.5 185.003C444.6 186.403 444.7 187.803 444.7 189.203C444.7 190.603 444.6 192.103 444.4 193.503C443.9 192.203 443.5 190.803 443.2 189.403C442.6 186.603 442.3 183.803 442.3 181.003C442.2 179.503 442.3 178.103 442.6 176.703Z" fill="#EA8383"/>
<path d="M437.2 193.305C436.6 192.905 436.1 192.305 435.7 191.705C435.3 191.105 435 190.505 434.8 189.905C434.6 189.305 434.4 188.605 434.3 187.905C434.2 187.205 434.2 186.505 434.3 185.805C434.9 186.205 435.4 186.805 435.8 187.405C436.2 188.005 436.5 188.605 436.7 189.205C436.9 189.805 437.1 190.505 437.2 191.205C437.3 191.805 437.3 192.605 437.2 193.305Z" fill="#EA8383"/>
<path d="M203.095 63.6797C203.095 63.6797 209.798 78.6149 209.563 82.7897C209.328 86.9645 193.158 227.144 184.338 238.845C175.518 250.546 170.285 248.194 170.285 248.194L203.095 63.6797Z" fill="#000001"/>
<path d="M170.226 248.192C170.226 248.192 86.2596 251.602 79.4388 246.487C72.618 241.371 105.84 67.9698 112.661 63.6774C119.482 59.385 194.452 61.149 202.978 63.6774C211.504 66.2058 180.928 247.78 170.226 248.192Z" fill="#40196D"/>
<path d="M170.696 233.375C169.579 235.61 167.345 237.08 164.816 237.138C148.882 237.432 83.7312 238.197 82.7904 233.493C81.732 228.142 112.073 74.1449 114.425 68.3237C116.777 62.5025 196.627 64.8545 199.156 66.7949C201.449 68.7353 184.162 206.268 170.696 233.375Z" fill="white"/>
<path d="M167.521 71.024C167.521 71.024 139.356 70.6712 137.533 71.024C135.71 71.3768 134.005 77.6684 134.946 78.6092C135.887 79.55 162.347 79.7264 165.522 78.6092C168.697 77.492 169.756 71.024 167.521 71.024Z" fill="#000001"/>
<path d="M139.356 73.794C139.356 73.794 141.179 73.6176 141.002 75.3816C140.826 77.1456 138.415 76.44 138.415 75.3816C138.415 74.2644 138.944 73.794 139.356 73.794Z" fill="#F3CB5C"/>
<path d="M113.778 241.488C113.778 241.488 130.124 240.547 130.301 242.134C130.477 243.722 108.956 244.428 113.778 241.488Z" fill="#000001"/>
<path d="M175.824 84.6798L175.724 85.8516L187.09 86.82L187.19 85.6482L175.824 84.6798Z" fill="#F2EBEB"/>
<path d="M175.572 88.7032L175.472 89.875L186.839 90.8434L186.938 89.6717L175.572 88.7032Z" fill="#F2EBEB"/>
<g opacity="0.38">
<path d="M113.837 131.058C113.837 131.058 118.188 108.009 119.188 107.715C120.187 107.421 144.648 106.656 146.236 107.715C147.823 108.773 143.59 130.764 141.473 131.705C139.356 132.646 113.425 133.528 113.837 131.058Z" fill="#87CCDB"/>
</g>
<g opacity="0.35">
<path d="M151.528 131.058C151.528 131.058 155.879 108.009 156.878 107.715C157.878 107.421 182.339 106.656 183.926 107.715C185.514 108.773 181.692 130.882 179.575 131.823C177.458 132.763 151.057 133.528 151.528 131.058Z" fill="#40196D"/>
</g>
<g opacity="0.35">
<path d="M106.075 172.285C106.075 172.285 110.426 149.235 111.426 148.941C112.426 148.647 136.886 147.883 138.474 148.941C140.062 150 135.828 171.991 133.711 172.932C131.594 173.872 105.605 174.754 106.075 172.285Z" fill="#EA8383"/>
</g>
<path d="M143.707 172.285C143.707 172.285 148 149.235 149.058 148.941C150.116 148.647 174.518 147.883 176.106 148.941C177.694 150 173.872 172.108 171.755 173.049C169.638 173.99 143.237 174.754 143.707 172.285Z" fill="#87CCDB"/>
<g opacity="0.38">
<path d="M98.3724 211.324C98.3724 211.324 102.724 188.274 103.723 187.98C104.723 187.686 129.184 186.922 130.771 187.98C132.359 189.039 128.125 211.03 126.008 211.971C123.892 212.911 97.902 213.793 98.3724 211.324Z" fill="#87CCDB"/>
</g>
<g opacity="0.38">
<path d="M136.063 211.324C136.063 211.324 140.356 188.274 141.414 187.98C142.472 187.686 166.874 186.922 168.462 187.98C170.05 189.039 166.228 211.147 164.111 212.088C161.994 213.029 135.593 213.793 136.063 211.324Z" fill="#F3CB5C"/>
</g>
<path d="M157.819 160.346L153.938 160.111L153.292 164.521L157.055 164.286L154.997 174.517L161.524 173.988L162.817 165.109L166.933 165.05L167.521 160.64L163.288 160.758C163.288 160.758 162.876 153.702 168.462 157.112L169.226 153.29C169.285 153.172 159.054 148.233 157.819 160.346Z" fill="white"/>
<path d="M55.6248 61.0938C55.272 61.4466 54.978 61.8582 54.7428 62.2697L54.684 62.211C54.978 61.7994 55.3308 61.3877 55.6248 61.0938Z" fill="#000001"/>
<path d="M53.3316 64.7932L52.0968 67.498L51.8028 67.3804L53.1552 64.7344L53.3316 64.7932Z" fill="#000001"/>
<path d="M51.2148 70.266C50.9796 71.2068 50.8032 72.1476 50.6856 73.1472L50.2152 73.0884C50.3328 72.0888 50.568 71.0892 50.862 70.1484L51.2148 70.266Z" fill="#000001"/>
<path d="M50.7444 76.0234C50.862 76.9642 51.0972 77.905 51.5088 78.787L50.9208 79.0222C50.5092 78.0814 50.274 77.0818 50.1564 76.0822L50.7444 76.0234Z" fill="#000001"/>
<path d="M53.0376 81.1406C53.6844 81.8462 54.4488 82.4342 55.272 82.9046L54.8604 83.5514C53.9784 83.0222 53.214 82.3754 52.5084 81.611L53.0376 81.1406Z" fill="#000001"/>
<path d="M57.8592 84.2031L59.2704 84.6147L59.976 84.7911L60.6816 84.9675L60.4464 85.8495L59.7408 85.6731L59.0352 85.4379L57.5652 84.9675L57.8592 84.2031Z" fill="#000001"/>
<path d="M63.5628 85.4922C64.5036 85.6098 65.5032 85.7274 66.444 85.7274V86.727C65.4444 86.6682 64.4448 86.6094 63.4452 86.433L63.5628 85.4922Z" fill="#000001"/>
<path d="M69.3252 85.6156C70.266 85.498 71.2068 85.3216 72.0888 84.9688L72.4416 85.9683C71.442 86.2623 70.4424 86.4976 69.4428 86.6152L69.3252 85.6156Z" fill="#000001"/>
<path d="M74.6172 83.7878C75.3816 83.2586 76.0872 82.6706 76.6752 81.9062L77.5572 82.553C76.9104 83.3762 76.146 84.0818 75.264 84.6698L74.6172 83.7878Z" fill="#000001"/>
<path d="M77.6748 79.4959C77.7336 79.2019 77.616 78.8491 77.4396 78.6139C77.322 78.5551 77.2044 78.4963 77.0868 78.4963C77.028 78.4963 76.9104 78.4963 76.8516 78.4963C76.7928 78.5551 76.734 78.5551 76.6164 78.5551L76.146 77.5555C76.3224 77.4967 76.44 77.4379 76.6164 77.3791C76.7928 77.3203 76.9692 77.3203 77.0868 77.3203C77.4396 77.3203 77.8512 77.4379 78.1452 77.6731C78.4392 77.9083 78.6156 78.2023 78.7332 78.5551C78.792 78.8491 78.8508 79.1431 78.792 79.4959H77.6748Z" fill="#000001"/>
<path d="M75.0876 80.611C74.7348 81.493 74.4408 82.375 74.3232 83.3158L73.1472 83.1394C73.3236 82.1398 73.6176 81.1402 74.0292 80.1406L75.0876 80.611Z" fill="#000001"/>
<path d="M74.1468 86.1406C74.2056 87.0814 74.3232 88.0222 74.5584 88.963L73.4412 89.257C73.1472 88.2574 73.0296 87.2578 72.9708 86.1994L74.1468 86.1406Z" fill="#000001"/>
<path d="M75.6168 91.5469C76.0872 92.3701 76.6164 93.1345 77.322 93.7813L76.5576 94.5457C75.7932 93.8401 75.2052 92.9581 74.676 92.0761L75.6168 91.5469Z" fill="#000001"/>
<path d="M79.5564 95.5469C80.3796 96.0173 81.2616 96.4289 82.1436 96.7229L81.7908 97.7225C80.7912 97.4285 79.8504 97.0169 78.9684 96.4877L79.5564 95.5469Z" fill="#000001"/>
<path d="M84.9072 97.375C85.848 97.5514 86.8476 97.6102 87.7884 97.669L87.7296 98.6686C86.73 98.6098 85.7304 98.551 84.7308 98.3746L84.9072 97.375Z" fill="#000001"/>
<path d="M90.7284 97.6641L93.7272 97.7229L93.6684 98.6637H90.7872L90.7284 97.6641Z" fill="#000001"/>
<path d="M96.726 98.0156L99.666 98.6036L99.4896 99.4268L96.6084 98.8976L96.726 98.0156Z" fill="#000001"/>
<path d="M102.547 99.4297L105.311 100.488L105.017 101.194L102.312 100.194L102.547 99.4297Z" fill="#000001"/>
<path d="M108.016 101.844L110.544 103.373L110.25 103.902L107.722 102.432L108.016 101.844Z" fill="#000001"/>
<path d="M112.955 105.133L115.189 107.132L114.954 107.426L112.661 105.544L112.955 105.133Z" fill="#000001"/>
<path d="M117.306 109.25L119.246 111.484L119.07 111.602L117.071 109.426L117.306 109.25Z" fill="#000001"/>
<path d="M120.952 113.891L121.716 115.184L120.893 113.949L120.952 113.891Z" fill="#000001"/>
<path d="M52.332 55.7413C52.332 55.7413 58.506 61.6213 68.796 58.0933C79.086 54.5653 84.2604 46.6861 83.8488 36.7489C83.8488 36.7489 87.612 33.3385 86.6712 33.3385H84.3192C84.3192 33.3385 86.2008 31.1041 85.554 31.1041C84.5544 31.2217 83.5548 31.4569 82.614 31.6921C82.614 31.6921 80.3796 29.2812 75.9108 29.2812C71.442 29.2812 69.2076 34.8673 69.7956 38.3953C69.7956 38.3953 66.9732 39.5125 62.328 36.9841C57.6828 34.4557 55.6248 30.3985 54.684 31.1041C53.7432 31.8097 53.0376 36.5724 56.3892 40.0416C56.3892 40.0416 52.626 38.6304 54.5664 42.1584C56.5068 45.6864 58.506 46.9213 58.506 46.9213C58.506 46.9213 55.7424 46.0981 56.0364 46.9213C56.3304 47.7445 58.6824 52.2132 63.3864 52.3897C63.3864 52.3897 59.9172 55.8589 56.448 55.6236C52.9788 55.3884 51.744 54.4477 52.332 55.7413Z" fill="#87CCDB"/>
<path d="M64.5036 136.414C69.3252 138.119 74.1468 139.883 78.9684 141.706C83.79 143.529 88.5528 145.41 93.3156 147.292C98.0784 149.174 102.841 151.114 107.545 153.113C112.249 155.112 117.012 157.17 121.657 159.287C116.836 157.582 112.014 155.818 107.192 153.995C102.371 152.172 97.608 150.291 92.8452 148.409C88.0824 146.528 83.3196 144.528 78.6156 142.588C73.9116 140.648 69.2076 138.531 64.5036 136.414Z" fill="#000001"/>
<path d="M57.3888 114.424C54.8016 110.308 34.0452 109.955 21.6384 110.426C17.64 110.543 14.4648 112.837 14.2296 115.777C13.524 123.597 12.5244 138.944 14.7 143.001C15.9348 145.294 22.8732 146.705 30.87 147.293C32.6928 150.939 35.6328 156.231 36.6912 155.055C37.632 153.997 38.514 150.41 39.102 147.587C47.6868 147.587 55.6836 146.529 57.4476 144.53C61.3872 139.826 59.9172 118.481 57.3888 114.424Z" fill="#EA8383"/>
<path d="M37.338 141.063C35.868 141.063 34.398 141.004 32.928 140.828C29.8704 140.534 26.1072 139.769 25.3428 137.946C24.3432 135.594 24.6372 127.598 25.1076 121.306C25.3428 119.189 27.048 117.602 29.1648 117.543C32.8692 117.366 45.0996 117.072 46.6872 120.306C47.922 122.835 48.7452 135.888 46.6284 138.946C45.6288 140.534 41.3952 141.063 37.338 141.063ZM29.2824 118.719C27.7536 118.719 26.5188 119.895 26.3424 121.365C25.7544 129.95 25.8132 135.83 26.5188 137.476C26.8128 138.182 28.7532 139.181 33.1044 139.652C38.6904 140.24 44.8644 139.593 45.7464 138.24C47.4516 135.771 46.9224 123.188 45.6876 120.777C44.9232 119.248 37.9848 118.366 29.2824 118.719Z" fill="white"/>
<path d="M36.5736 135.884C34.8684 135.884 33.1632 135.002 31.752 133.297C29.7528 131.18 29.5764 127.887 31.2816 125.535C32.1636 124.183 33.516 123.183 35.1036 122.831C37.1028 122.36 39.2784 123.007 40.6896 124.536C42.336 126.182 43.0416 128.534 42.5712 130.827C42.042 133.238 40.2192 135.12 37.8084 135.767C37.338 135.825 36.9852 135.884 36.5736 135.884ZM36.3972 123.83C36.0444 123.83 35.6916 123.889 35.3388 123.948C34.0452 124.242 32.928 125.065 32.2812 126.182C30.8112 128.417 30.9876 130.533 32.6928 132.533C34.5744 134.767 36.3384 134.885 37.5732 134.591C39.5136 134.003 40.9836 132.474 41.454 130.475C41.8068 128.593 41.2188 126.653 39.8664 125.3C38.8668 124.359 37.632 123.83 36.3972 123.83Z" fill="white"/>
<path d="M42.63 121.656C42.336 121.715 42.1008 121.891 41.9244 122.127C41.6304 122.479 41.6304 123.067 42.042 123.42C42.3948 123.891 43.1004 124.008 43.5708 123.597C43.7472 123.42 43.9236 123.244 43.9824 123.009C44.1 122.421 43.6884 121.833 43.1004 121.715C42.924 121.656 42.8064 121.656 42.63 121.656Z" fill="#F3CB5C"/>
<path d="M113.072 198.508C112.19 200.272 111.073 201.977 109.78 203.506C108.486 205.035 107.075 206.505 105.605 207.857C102.606 210.503 99.3132 212.796 95.7852 214.737L93.1392 216.148C92.2572 216.559 91.3164 216.971 90.3756 217.383L89.0232 217.971C88.5528 218.147 88.0824 218.323 87.612 218.5L84.7896 219.499C82.908 220.146 80.9676 220.617 79.0272 221.205C77.0868 221.616 75.1464 222.028 73.1472 222.439C75.0288 221.793 76.9692 221.263 78.8508 220.675L81.6732 219.676L83.0844 219.205L83.79 218.97L84.4956 218.676L87.2592 217.559C87.7296 217.383 88.2 217.206 88.6116 216.971L89.964 216.324L92.6688 215.089L95.256 213.678C98.7252 211.797 102.018 209.621 105.076 207.151C106.604 205.917 108.074 204.564 109.427 203.153C110.72 201.683 111.955 200.154 113.072 198.508Z" fill="#000001"/>
<path d="M34.9272 213.326C34.9272 213.326 40.4544 213.032 40.6896 213.326C40.9248 213.62 42.2184 233.612 41.3952 233.906C40.572 234.2 34.1628 233.906 34.1628 233.906L34.9272 213.326Z" fill="#87CCDB"/>
<path d="M37.338 201.681C37.338 201.681 33.4572 202.328 34.104 205.856C34.7508 209.384 38.5728 210.325 41.6304 207.385C44.688 204.445 39.984 201.152 37.338 201.681Z" fill="#87CCDB"/>
<path d="M46.2168 234.081C46.2168 234.081 52.038 233.904 52.8612 233.61C53.6844 233.316 52.8612 219.969 52.8612 219.969C52.8612 219.969 57.2124 214.794 58.8 219.439C60.3876 224.085 60.0348 234.433 60.4464 234.081C60.858 233.728 65.9736 233.61 66.3852 233.493C66.7968 233.375 67.0908 221.321 64.5036 215.911C61.9164 210.502 54.3312 212.56 52.332 215.265C52.332 215.265 52.4496 212.442 52.038 212.501C51.6264 212.56 46.452 212.619 46.2168 213.148C45.9816 213.677 46.2168 234.081 46.2168 234.081Z" fill="#87CCDB"/>
<path d="M225.263 93.8438C221.206 95.9605 217.148 97.9597 213.032 99.9589C208.916 101.958 204.8 103.84 200.626 105.78C196.451 107.721 192.335 109.543 188.16 111.307C183.985 113.071 179.752 114.894 175.518 116.541C179.575 114.424 183.632 112.425 187.748 110.425C191.864 108.426 195.98 106.545 200.155 104.604C204.33 102.664 208.446 100.841 212.621 99.0769C216.796 97.3129 221.029 95.549 225.263 93.8438Z" fill="#000001"/>
<path d="M253.487 53.0389C247.842 54.2737 243.02 57.9781 239.845 62.8585C235.67 69.2677 232.142 79.6165 241.492 90.7297C239.434 94.1401 236.435 99.7261 238.316 100.196C240.198 100.667 246.607 99.5497 250.076 97.9033C263.365 104.901 276.83 94.8457 280.123 81.7921C283.534 67.9153 271.303 49.0993 253.487 53.0389Z" fill="#469F78"/>
<path d="M255.251 70.9713C255.251 70.9713 252.546 64.0329 251.605 63.9153C250.664 63.7977 248.606 63.9153 247.842 64.5621C247.078 65.2089 243.785 68.0901 247.548 76.0869C251.311 84.0837 259.896 88.8465 265.306 88.9053C270.715 88.9641 272.185 84.2601 271.774 83.4369C271.362 82.6137 265.835 79.3797 265.129 79.7325C264.424 80.0853 261.425 82.7901 261.425 82.7901C261.425 82.7901 254.545 77.9097 253.075 75.8517C251.723 73.7937 255.604 71.9121 255.251 70.9713Z" fill="white"/>
<path d="M199.626 263.542C199.626 263.542 198.744 224.146 199.626 223.206C200.508 222.265 245.843 221.677 245.843 223.911C245.843 226.145 246.725 262.307 245.843 264.013C244.961 265.718 199.626 263.542 199.626 263.542Z" fill="#F3CB5C"/>
<path d="M215.561 240.787C215.561 240.787 214.855 232.907 220.5 230.673C226.145 228.439 230.437 233.613 229.79 241.081C229.79 241.081 232.672 239.669 233.142 240.375C233.612 241.081 231.554 241.551 231.848 242.198C232.142 242.845 230.378 242.962 230.437 244.726C230.496 246.49 236.552 251.135 235.906 251.371C235.259 251.606 231.966 251.959 231.731 253.723C231.496 255.487 228.791 254.311 225.263 256.075C221.735 257.839 220.382 254.546 216.443 254.546C212.503 254.546 215.443 252.899 212.915 252.253C210.386 251.606 208.093 251.312 210.857 250.018C213.62 248.725 216.325 244.491 215.267 243.785C214.208 243.08 210.916 240.61 212.15 240.316C213.385 240.022 215.561 240.787 215.561 240.787Z" fill="white"/>
<path d="M152.41 196.742C152.174 199.565 152.233 202.446 152.704 205.268C153.115 208.091 153.821 210.854 154.82 213.5C156.82 218.792 160.054 223.555 164.228 227.377C168.344 231.199 173.342 234.139 178.576 236.315C183.868 238.49 189.336 240.137 194.922 241.254C189.218 240.607 183.574 239.255 178.223 237.197C176.87 236.667 175.518 236.138 174.224 235.491C173.578 235.197 172.931 234.903 172.284 234.551L170.402 233.492C167.933 232.022 165.581 230.258 163.464 228.318C161.347 226.319 159.466 224.084 157.819 221.673C156.232 219.263 154.938 216.617 153.997 213.912C152.057 208.326 151.528 202.446 152.41 196.742Z" fill="#000001"/>
</svg>
