<svg width="463" height="463" viewBox="0 0 463 463" fill="none" xmlns="http://www.w3.org/2000/svg">
<path d="M144.377 85.7324C144.487 81.4142 146.352 77.3733 149.503 74.5171C152.838 71.5264 157.06 68.1032 158.958 67.994C162.344 67.7926 164.853 374.045 164.853 374.045C164.853 374.045 154.797 372.457 150.047 365.244C145.767 358.679 143.531 128.381 144.377 85.7324Z" fill="#000001"/>
<path d="M164.933 374.063C164.933 374.063 299.502 400.962 311.827 394.402C324.152 387.841 314.702 99.6337 304.773 91.0304C294.843 82.4271 173.421 66.0303 159.038 68.0122C144.656 69.9942 147.795 370.702 164.933 374.063Z" fill="#40196D"/>
<path d="M167.984 350.083C169.16 354.031 172.466 356.926 176.523 357.648C202.159 362.106 307.068 379.985 309.77 372.723C312.887 364.38 303.125 108.19 300.861 98.1798C298.598 88.1696 169.178 71.6548 164.604 74.2043C160.306 76.5523 153.196 302.838 167.984 350.083Z" fill="white"/>
<path d="M214.477 88.8718C214.477 88.8718 259.99 95.406 262.922 96.5235C265.854 97.641 266.887 108.193 265.143 109.39C263.4 110.587 220.651 104.162 215.82 101.6C210.99 99.0371 210.873 88.3844 214.477 88.8718Z" fill="#000001"/>
<path d="M259.183 100.516C259.183 100.516 256.281 99.7306 256.146 102.654C256.011 105.578 260.019 105.066 260.296 103.31C260.573 101.554 259.901 100.63 259.183 100.516Z" fill="#F3CB5C"/>
<path d="M274.943 121.407C276.43 121.315 277.984 121.315 279.513 121.475C281.054 121.555 282.491 121.782 284.007 122.021C285.524 122.261 286.948 122.567 288.452 122.887C289.955 123.206 291.354 123.672 292.82 124.231C291.333 124.324 289.791 124.244 288.25 124.164C286.721 124.004 285.272 123.857 283.755 123.617C282.239 123.378 280.815 123.071 279.311 122.752C277.807 122.433 276.409 121.966 274.943 121.407Z" fill="#F2EBEB"/>
<path d="M274.93 126.15C276.417 126.057 277.958 126.137 279.5 126.217C281.042 126.297 282.478 126.524 283.995 126.763C285.511 127.003 286.935 127.31 288.439 127.629C289.943 127.948 291.341 128.415 292.807 128.973C291.32 129.066 289.766 129.066 288.237 128.906C286.708 128.746 285.259 128.599 283.743 128.36C282.226 128.12 280.802 127.813 279.298 127.494C277.807 127.095 276.408 126.629 274.93 126.15Z" fill="#F2EBEB"/>
<path d="M275.627 131.579C277.034 131.474 278.416 131.529 279.798 131.584C281.167 131.718 282.537 131.853 283.894 132.067C285.25 132.281 286.595 132.575 287.939 132.87C289.283 133.164 290.602 133.617 291.908 134.151C290.501 134.256 289.106 134.281 287.737 134.147C286.355 134.092 284.998 133.878 283.642 133.663C282.285 133.449 280.941 133.155 279.596 132.861C278.265 132.487 276.933 132.113 275.627 131.579Z" fill="#F2EBEB"/>
<path d="M175.368 120C175.275 118.513 175.196 116.946 175.183 115.472L175.137 113.174L175.074 112.019L175.082 111.448C175.095 111.368 175.12 111.208 175.133 111.128C175.158 110.969 175.263 110.822 175.368 110.675C175.948 110.112 176.595 109.641 177.242 109.171C177.889 108.7 178.523 108.31 179.09 107.827C180.371 106.966 181.652 106.105 182.921 105.323L183.37 105.067L183.799 105.462L187.201 108.781L190.683 112.112L190.898 112.309L190.927 112.641C191.074 115.855 191.208 119.148 191.355 122.361L191.363 123.344L190.406 123.193L185.63 122.357L184.911 122.244L185.025 121.525C185.319 120.181 185.466 118.732 185.521 117.35C185.542 116.699 185.483 116.035 185.252 115.426C185.021 114.817 184.752 114.447 184.273 114.372C183.702 114.363 183.173 114.607 182.858 115.048C182.45 115.556 182.03 116.144 181.769 116.757C181.156 118.051 180.702 119.37 180.396 120.794L180.37 120.954L180.211 120.929C179.413 120.802 178.547 120.584 177.762 120.378C178.573 120.424 179.451 120.563 180.261 120.609L180.076 120.744C180.224 119.294 180.61 117.883 181.076 116.484C181.349 115.791 181.702 115.111 182.135 114.443C182.437 114.082 182.727 113.8 183.084 113.611C183.454 113.342 183.958 113.258 184.45 113.254C184.928 113.33 185.395 113.485 185.743 113.868C186.025 114.157 186.281 114.607 186.39 114.951C186.596 115.72 186.802 116.489 186.756 117.3C186.768 118.774 186.688 120.316 186.381 121.74L185.777 120.908L190.578 121.584L189.708 122.429C189.561 119.215 189.427 115.922 189.28 112.708L189.524 113.238L186.122 109.919L182.732 106.521L183.53 106.647C182.261 107.428 180.913 108.197 179.644 108.978L177.741 110.15C177.107 110.54 176.553 110.944 175.986 111.427C175.893 111.494 175.88 111.574 175.906 111.414C175.893 111.494 175.88 111.574 175.868 111.653L175.859 112.225L175.763 113.355L175.649 115.627C175.515 116.997 175.435 118.538 175.368 120Z" fill="#F2EBEB"/>
<path d="M239.072 321.068C239.072 321.068 227.94 324.218 227.314 336.471C226.687 348.724 242.137 353.455 251.059 348.238C259.982 343.021 259.743 327.441 253.039 323.274C246.335 319.106 239.072 321.068 239.072 321.068Z" fill="#EA8383"/>
<path d="M241.151 337.426L238.092 338.661C237.298 339.027 236.379 338.636 236.093 337.855C236.026 337.762 236.038 337.682 235.971 337.59C235.505 335.88 235.967 333.99 237.164 332.625C239.824 329.773 244.251 330.227 247.939 331.218C251.627 332.21 253.227 337.616 252.706 338.843C252.185 340.069 250.182 340.325 250.182 340.325L247.069 336.725C247.069 336.725 248.304 335.121 246.679 334.537C245.053 333.953 241.487 333.226 241.222 334.902C241.146 335.381 241.243 335.805 241.512 336.175C241.781 336.544 241.705 337.023 241.335 337.292C241.243 337.359 241.23 337.439 241.151 337.426Z" fill="white"/>
<path d="M189.495 270.863C189.495 270.863 179.728 273.656 179.274 284.301C178.82 294.945 192.153 299.096 199.991 294.526C207.83 289.956 207.595 276.422 201.786 272.805C198.115 270.671 193.725 269.977 189.495 270.863Z" fill="#40196D"/>
<path d="M236.424 278.272C236.424 278.272 226.657 281.065 226.203 291.709C225.749 302.353 239.081 306.504 246.92 301.934C254.758 297.364 254.524 283.83 248.715 280.213C242.905 276.596 236.424 278.272 236.424 278.272Z" fill="#40196D"/>
<path d="M280.719 285.27C280.719 285.27 270.952 288.063 270.498 298.707C270.044 309.351 283.376 313.502 291.215 308.932C299.053 304.362 298.819 290.828 293.009 287.211C289.338 285.077 284.949 284.384 280.719 285.27Z" fill="#40196D"/>
<path d="M186.154 226.246C186.154 226.246 176.387 229.039 175.933 239.683C175.479 250.328 188.811 254.478 196.65 249.909C204.488 245.339 204.254 231.804 198.365 228.175C194.693 226.041 190.384 225.36 186.154 226.246Z" fill="#40196D"/>
<path d="M233.082 233.654C233.082 233.654 223.316 236.447 222.862 247.092C222.407 257.736 235.74 261.887 243.578 257.317C251.417 252.747 251.182 239.213 245.373 235.596C239.564 231.979 233.082 233.654 233.082 233.654Z" fill="#40196D"/>
<path d="M277.377 240.652C277.377 240.652 267.611 243.445 267.157 254.09C266.702 264.734 280.035 268.885 287.873 264.315C295.712 259.745 295.477 246.211 289.668 242.594C285.997 240.46 281.607 239.766 277.377 240.652Z" fill="#40196D"/>
<path d="M193.763 277.51C194.115 278.383 194.296 279.312 194.477 280.24C194.577 281.156 194.678 282.071 194.687 283.054C194.707 283.958 194.636 284.928 194.577 285.818C194.506 286.789 194.275 287.734 193.976 288.587C193.624 287.713 193.443 286.784 193.275 285.776C193.174 284.861 193.073 283.945 193.065 282.962C193.044 282.059 193.116 281.088 193.174 280.198C193.3 279.4 193.452 278.442 193.763 277.51Z" fill="white"/>
<path d="M188.243 282.931C189.184 282.671 190.099 282.57 191.095 282.482C192.994 282.373 194.934 282.516 196.757 282.886C197.715 283.037 198.648 283.348 199.568 283.739C198.627 283.999 197.711 284.1 196.715 284.188C194.817 284.297 192.876 284.154 191.066 283.704C190.015 283.62 189.083 283.31 188.243 282.931Z" fill="white"/>
<path d="M233.999 286.89C234.117 288.218 234.167 289.453 234.205 290.768C234.264 291.431 234.335 292.015 234.407 292.599C234.449 292.851 234.478 293.183 234.6 293.448C234.667 293.54 234.722 293.712 234.722 293.712C234.722 293.712 234.654 293.62 234.575 293.607L234.734 293.632C235.931 293.822 237.221 293.943 238.443 293.973C239.094 293.994 239.666 294.002 240.317 294.023C240.569 293.981 240.901 293.952 241.153 293.91C241.233 293.923 241.233 293.923 241.325 293.855L241.405 293.868C241.405 293.868 241.405 293.868 241.417 293.788C241.653 293.335 241.808 292.868 241.896 292.31C241.985 291.751 242.006 291.1 242.014 290.529C242.022 289.957 241.964 289.294 241.892 288.71C241.85 288.458 241.808 288.206 241.686 287.941C241.619 287.849 241.632 287.769 241.552 287.756C241.472 287.744 241.552 287.756 241.472 287.744L241.325 287.639C240.779 287.471 240.233 287.302 239.582 287.281C238.944 287.181 238.292 287.16 237.654 287.059C236.591 287.054 235.289 287.012 233.999 286.89ZM233.999 286.89C235.272 286.601 236.52 286.471 237.847 286.353C239.187 286.156 240.557 286.29 241.913 286.504L242.22 286.635C242.367 286.74 242.447 286.752 242.594 286.857C242.808 287.055 242.943 287.24 243.077 287.424C243.266 287.781 243.375 288.126 243.405 288.458C243.543 289.134 243.682 289.81 243.661 290.461C243.719 291.125 243.686 291.856 243.585 292.495C243.539 293.305 243.266 293.998 242.913 294.679C242.715 294.893 242.518 295.107 242.253 295.229C242.161 295.296 242.081 295.284 241.989 295.351L241.816 295.405L241.484 295.435C241.153 295.464 240.821 295.494 240.409 295.51C239.758 295.489 239.107 295.468 238.376 295.435C237.086 295.313 235.73 295.099 234.465 294.817L234.146 294.767C234.066 294.754 233.919 294.649 233.852 294.557C233.785 294.464 233.705 294.452 233.718 294.372C233.583 294.187 233.541 293.935 233.487 293.763C233.457 293.431 233.348 293.086 233.411 292.687C233.432 292.036 233.453 291.385 233.474 290.734C233.583 289.524 233.705 288.235 233.999 286.89Z" fill="white"/>
<path d="M246.156 287.089C245.219 287.84 244.362 288.605 243.438 289.277C242.976 289.613 242.514 289.949 242.119 290.377C241.922 290.592 241.737 290.726 241.539 290.94C241.447 291.007 241.355 291.075 241.329 291.234C241.237 291.301 241.304 291.394 241.342 291.154C241.355 291.075 241.287 290.982 241.3 290.902C241.3 290.902 241.313 290.823 241.233 290.81C241.233 290.81 241.233 290.81 241.313 290.823C241.392 290.835 241.46 290.928 241.619 290.953C241.779 290.978 242.073 291.188 242.392 291.239C242.926 291.486 243.472 291.654 243.938 291.81L247.189 292.978L246.252 293.73C246.164 292.734 246.168 291.671 246.173 290.609C246.177 289.546 246.194 288.403 246.156 287.089ZM246.156 287.089C246.416 288.029 246.664 289.05 246.899 290.151C247.135 291.251 247.437 292.444 247.567 293.692L247.735 294.7L246.63 294.444C245.446 294.175 244.366 293.759 243.274 293.423C242.728 293.255 242.195 293.007 241.661 292.759C241.355 292.629 241.128 292.511 240.821 292.381C240.674 292.276 240.527 292.171 240.38 292.066C240.313 291.974 240.153 291.948 240.086 291.856L240.019 291.763L239.952 291.671C239.897 291.499 239.83 291.406 239.855 291.247C239.868 291.167 239.893 291.007 239.905 290.928C239.918 290.848 239.931 290.768 240.023 290.701C240.115 290.634 240.141 290.474 240.233 290.407C240.338 290.26 240.443 290.113 240.615 290.058C240.893 289.856 241.09 289.642 241.355 289.52C241.817 289.184 242.359 288.861 242.888 288.617C243.892 287.958 245.03 287.483 246.156 287.089Z" fill="white"/>
<path d="M278.634 302.612C278.819 300.923 279.323 299.285 280.134 297.777C280.512 296.937 281.037 296.202 281.63 295.559C281.932 295.198 282.394 294.862 282.751 294.673C283.201 294.417 283.797 294.266 284.369 294.274C284.94 294.283 285.473 294.53 285.914 294.846C286.368 295.081 286.717 295.463 286.985 295.833C287.523 296.572 287.968 297.379 288.241 298.24C288.8 299.882 289.106 301.567 289.081 303.28C288.43 301.705 287.846 300.222 287.09 298.794C286.712 298.08 286.322 297.446 285.839 296.879C285.503 296.417 284.902 296.076 284.343 295.988C283.759 296.059 283.15 296.29 282.755 296.719C282.176 297.282 281.676 297.857 281.256 298.445C280.231 299.756 279.433 301.184 278.634 302.612Z" fill="white"/>
<path d="M284.751 297.034C285.587 296.921 286.393 296.475 286.906 295.82C287.418 295.165 287.624 294.379 287.511 293.543C287.246 292.111 285.646 291.367 284.331 291.405C283.68 291.384 283.071 291.615 282.583 292.111C282.084 292.686 281.743 293.287 281.617 294.085C281.411 294.871 281.684 295.732 282.352 296.164C282.995 296.757 283.848 297.055 284.751 297.034ZM284.751 297.034C283.848 297.055 282.982 296.836 282.235 296.391C281.781 296.156 281.499 295.866 281.243 295.417C280.987 294.967 280.89 294.543 280.806 294.039C280.718 293.043 280.962 292.018 281.5 291.203C282.13 290.321 283.201 289.754 284.264 289.759C285.327 289.763 286.339 290.086 287.129 290.784C287.931 291.401 288.418 292.46 288.334 293.51C288.258 293.989 288.103 294.455 287.88 294.829C287.658 295.203 287.355 295.564 287.053 295.925C286.46 296.568 285.587 296.921 284.751 297.034Z" fill="white"/>
<path d="M230.301 239.353C229.784 239.517 229.469 239.958 229.381 240.517C229.322 241.407 230.494 241.756 231.208 241.378C231.763 240.975 231.876 240.256 231.473 239.702C231.406 239.609 231.406 239.609 231.339 239.517C231.032 239.387 230.633 239.324 230.301 239.353Z" fill="white"/>
<path d="M235.649 240.197C235.132 240.361 234.817 240.802 234.729 241.36C234.67 242.251 235.842 242.6 236.556 242.221C237.11 241.818 237.224 241.1 236.82 240.545C236.753 240.453 236.753 240.453 236.686 240.361C236.379 240.23 235.98 240.167 235.649 240.197Z" fill="white"/>
<path d="M241.235 241.08C240.719 241.243 240.403 241.684 240.315 242.243C240.256 243.134 241.428 243.482 242.142 243.104C242.697 242.701 242.81 241.983 242.407 241.428C242.34 241.336 242.34 241.336 242.273 241.243C241.966 241.113 241.567 241.05 241.235 241.08Z" fill="white"/>
<path d="M230.41 244.358C229.893 244.522 229.578 244.963 229.49 245.522C229.431 246.412 230.603 246.761 231.317 246.383C231.872 245.98 231.985 245.261 231.582 244.707C231.515 244.614 231.515 244.614 231.448 244.522C231.154 244.312 230.755 244.249 230.41 244.358Z" fill="white"/>
<path d="M235.757 245.202C235.241 245.366 234.926 245.807 234.838 246.365C234.779 247.256 235.951 247.605 236.665 247.227C237.219 246.823 237.333 246.105 236.929 245.551C236.862 245.458 236.862 245.458 236.795 245.366C236.501 245.156 236.182 245.105 235.757 245.202Z" fill="white"/>
<path d="M241.344 246.085C240.827 246.249 240.512 246.69 240.424 247.248C240.365 248.139 241.537 248.487 242.251 248.109C242.806 247.706 242.919 246.988 242.516 246.433C242.449 246.341 242.449 246.341 242.382 246.249C242.088 246.039 241.689 245.976 241.344 246.085Z" fill="white"/>
<path d="M230.796 249.16C230.28 249.324 229.965 249.765 229.889 250.243C229.83 251.134 231.002 251.483 231.716 251.105C232.271 250.701 232.384 249.983 232.061 249.441C231.993 249.349 231.993 249.349 231.926 249.256C231.54 249.114 231.221 249.063 230.796 249.16Z" fill="white"/>
<path d="M236.144 250.011C235.627 250.175 235.312 250.616 235.236 251.095C235.177 251.986 236.349 252.334 237.064 251.956C237.618 251.553 237.731 250.835 237.328 250.28C237.261 250.188 237.261 250.188 237.194 250.095C236.887 249.965 236.568 249.915 236.144 250.011Z" fill="white"/>
<path d="M241.73 250.886C241.214 251.05 240.899 251.491 240.823 251.97C240.764 252.861 241.936 253.209 242.65 252.831C243.205 252.428 243.318 251.71 242.915 251.155C242.848 251.063 242.848 251.063 242.781 250.97C242.474 250.84 242.155 250.79 241.73 250.886Z" fill="white"/>
<path d="M190.089 232.919C189.61 232.844 189.106 232.928 188.577 233.171C188.207 233.44 187.905 233.801 187.75 234.268C187.518 235.213 187.447 236.183 187.615 237.191C187.703 238.187 187.871 239.195 188.132 240.136C188.228 240.56 188.417 240.917 188.686 241.287C188.888 241.564 189.182 241.774 189.501 241.825C189.66 241.85 189.9 241.888 190.059 241.913C190.139 241.925 190.299 241.951 190.391 241.883L190.551 241.909L190.631 241.921C190.723 241.854 190.816 241.787 190.828 241.707C190.933 241.56 191.038 241.413 191.076 241.173C191.387 240.241 191.538 239.283 191.61 238.313C191.694 237.263 191.606 236.267 191.438 235.259C191.354 234.755 191.27 234.251 191.093 233.814C190.997 233.39 190.673 232.848 190.089 232.919ZM190.089 232.919C190.354 232.797 190.673 232.848 190.9 232.966C191.127 233.083 191.341 233.281 191.543 233.558C191.879 234.02 192.122 234.549 192.286 235.066C192.614 236.099 192.849 237.2 192.924 238.275C192.987 239.43 192.891 240.56 192.555 241.652C192.424 241.959 192.294 242.266 192.084 242.56C191.861 242.934 191.492 243.202 191.068 243.299C190.975 243.366 190.816 243.341 190.723 243.408L190.471 243.45C190.311 243.425 190.139 243.48 189.98 243.454C189.648 243.484 189.329 243.433 189.009 243.383C188.304 243.19 187.716 242.77 187.312 242.215C186.989 241.673 186.665 241.131 186.514 240.535C186.279 239.434 186.204 238.359 186.22 237.216C186.157 236.061 186.414 234.956 186.909 233.889C187.237 233.369 187.712 232.953 188.308 232.802C188.985 232.663 189.556 232.671 190.089 232.919Z" fill="white"/>
<path d="M184.317 239.938C184.922 240.769 185.699 241.546 186.502 242.164C187.316 242.702 188.224 243.172 189.169 243.403C190.101 243.714 190.992 243.773 191.987 243.685C193.008 243.437 193.84 242.832 194.31 241.925C194.361 243.16 193.6 244.349 192.382 244.811C191.244 245.285 189.929 245.323 188.757 244.974C187.585 244.626 186.531 244.05 185.699 243.101C184.855 242.231 184.368 241.172 184.317 239.938Z" fill="white"/>
<path d="M189.706 247.253C189.4 247.123 189.198 246.845 188.996 246.568C188.74 246.119 188.656 245.615 188.824 245.069C188.955 244.762 189.165 244.468 189.362 244.254C189.669 244.384 189.87 244.661 190.072 244.938C190.206 245.123 190.328 245.388 190.29 245.627C190.332 245.879 190.294 246.119 190.177 246.346C190.194 246.757 189.984 247.051 189.706 247.253Z" fill="white"/>
<path d="M275.365 252.355C275.365 252.355 279.187 250.423 279.313 251.179C279.439 251.936 280.12 255.397 279.515 256.119C278.91 256.842 275.524 255.489 275.524 255.489L275.365 252.355Z" fill="white"/>
<path d="M280.846 250.281C281.552 250.475 282.153 250.815 282.636 251.382C283.119 251.949 283.43 252.571 283.556 253.327C283.682 254.083 283.476 254.868 283.135 255.469C282.795 256.07 282.228 256.553 281.527 256.851C281.64 256.133 281.888 255.599 281.896 255.028C281.972 254.549 281.968 254.058 281.884 253.554C281.741 252.386 281.334 251.34 280.846 250.281Z" fill="white"/>
<path d="M283.636 248.672C284.476 249.05 285.198 249.655 285.723 250.474C286.248 251.293 286.589 252.247 286.677 253.242C286.765 254.238 286.441 255.25 285.904 256.065C285.681 256.439 285.379 256.8 284.996 257.149C284.627 257.418 284.257 257.686 283.807 257.943C283.963 257.476 284.186 257.103 284.328 256.716C284.471 256.33 284.614 255.943 284.757 255.557C284.95 254.851 285.076 254.053 285.03 253.309C284.871 251.73 284.392 250.1 283.636 248.672Z" fill="white"/>
<path d="M249.012 138.497C249.012 138.497 270.619 147.227 260.708 173.72C250.798 200.213 215.849 195.674 208.373 174.125C200.897 152.575 213.639 126.284 249.012 138.497Z" fill="#F2EBEB"/>
<path d="M262.449 145.609C262.667 144.744 262.873 143.958 263.319 143.21C263.684 142.45 264.129 141.702 264.722 141.06C264.297 142.711 263.554 144.311 262.449 145.609Z" fill="#40196D"/>
<path d="M264.877 148.365C265.763 147.932 266.729 147.512 267.75 147.264C268.691 147.004 269.779 146.849 270.774 146.76C268.897 147.773 266.935 148.281 264.877 148.365Z" fill="#40196D"/>
<path d="M235.913 160.318C235.913 160.318 239.853 159.714 240.554 162.524C240.554 162.524 236.455 163.103 235.913 160.318Z" fill="#F2EBEB"/>
<path d="M230.374 208.847C228.698 208.582 228.093 207.75 227.875 207.061C227.682 206.213 227.82 205.335 228.346 204.6C222.633 206.07 214.95 207.065 211.896 205.683C210.296 204.939 209.955 203.985 209.909 203.242C209.83 200.121 216.509 196.677 217.912 196.08L218.588 197.496C215.744 198.928 211.463 201.688 211.556 203.175C211.585 203.507 211.934 203.889 212.547 204.149C215.987 205.674 225.019 203.911 230.093 202.34L230.383 202.058C231.147 201.361 233.101 199.87 234.395 200.483C234.861 200.639 235.092 201.248 234.936 201.714C234.936 201.714 234.936 201.714 234.924 201.794C234.663 202.407 233.075 203.138 230.916 203.86C230.811 204.007 230.626 204.142 230.509 204.369C229.509 205.52 229.383 206.318 229.492 206.662C229.601 207.007 230.387 207.212 230.866 207.288C234.31 207.75 238.41 205.617 240.443 204.138C240.502 203.248 241.199 202.458 242.195 202.37C242.607 202.353 242.993 202.496 243.182 202.853C243.371 203.21 243.308 203.609 243.085 203.983C242.783 204.344 242.493 204.626 242.111 204.974C242.249 205.65 242.842 206.562 244.463 206.655C245.354 206.713 246.19 206.6 246.983 206.235C247.215 205.289 248.353 204.815 249.147 204.449L249.504 204.26C249.874 203.992 250.352 204.067 250.714 204.37C250.995 204.66 251.024 204.991 250.882 205.378C250.449 206.046 249.789 206.596 249.075 206.974C249.983 207.445 252.154 208.197 257.384 209.268L257.052 210.852C250.705 209.604 248.319 208.654 247.395 207.772C246.429 208.192 245.341 208.347 244.291 208.263C242.737 208.263 241.321 207.385 240.725 205.982C238.175 207.625 234.138 209.359 230.693 208.897L230.374 208.847Z" fill="#EA8383"/>
<path d="M284.335 201.261C284.335 201.261 278.844 217.899 281.713 217.862C284.582 217.824 303.65 204.312 303.65 204.312C303.65 204.312 370.241 216.711 375.059 208.474C379.878 200.237 392.54 173.933 381.703 166.414C370.866 158.894 296.087 149.128 286.829 153.883C277.57 158.637 275.548 198.891 284.335 201.261Z" fill="#F3CB5C"/>
<path d="M355.612 191.248C355.213 191.185 354.813 191.122 354.507 190.992C352.39 190.412 350.806 188.526 350.588 186.283C350.403 184.863 350.777 183.531 351.684 182.447C352.659 181.456 353.89 180.914 355.217 180.797C359.88 180.797 361.518 182.855 362.06 184.086C362.833 185.926 362.412 188.068 361.03 189.568C359.661 190.988 357.674 191.655 355.612 191.248ZM355.284 182.443C354.369 182.544 353.575 182.91 352.903 183.54C352.298 184.262 352.067 185.207 352.155 186.203C352.314 187.782 353.415 189.101 354.906 189.5C356.771 190.122 358.8 189.706 359.8 188.556C360.774 187.564 361.081 186.14 360.552 184.83C359.981 183.267 358.141 182.486 355.284 182.443Z" fill="white"/>
<path d="M334.542 187.92C334.142 187.857 333.743 187.794 333.437 187.663C331.32 187.084 329.736 185.198 329.518 182.954C329.333 181.535 329.707 180.203 330.614 179.119C331.589 178.128 332.82 177.586 334.147 177.469C338.81 177.469 340.448 179.527 340.99 180.758C341.763 182.598 341.342 184.74 339.96 186.24C338.591 187.66 336.524 188.315 334.542 187.92ZM334.214 179.115C333.299 179.216 332.505 179.581 331.833 180.212C331.228 180.934 330.997 181.879 331.085 182.875C331.244 184.454 332.345 185.773 333.836 186.172C335.621 186.781 337.73 186.378 338.73 185.227C339.704 184.236 340.011 182.812 339.482 181.501C338.911 179.939 336.991 179.145 334.214 179.115Z" fill="white"/>
<path d="M314.11 184.693C313.711 184.63 313.312 184.567 313.005 184.437C310.888 183.857 309.305 181.971 309.086 179.728C308.902 178.308 309.276 176.976 310.183 175.893C311.158 174.901 312.388 174.36 313.716 174.242C318.378 174.242 320.017 176.301 320.558 177.532C321.331 179.371 320.911 181.514 319.529 183.013C318.159 184.433 316.173 185.101 314.11 184.693ZM313.783 175.889C312.867 175.99 312.073 176.355 311.401 176.985C310.796 177.707 310.565 178.653 310.653 179.648C310.813 181.228 311.913 182.547 313.484 182.958C315.27 183.567 317.378 183.164 318.378 182.013C319.353 181.022 319.659 179.598 319.13 178.288C318.479 176.712 316.559 175.918 313.783 175.889Z" fill="white"/>
<path d="M114.957 148.737C118.263 149.259 121.367 147.003 121.889 143.697C122.411 140.391 120.154 137.288 116.848 136.766C113.542 136.244 110.439 138.5 109.917 141.806C109.395 145.112 111.652 148.215 114.957 148.737Z" fill="#F2EBEB"/>
<path d="M118.79 362.193C122.361 362.757 125.712 360.319 126.276 356.749C126.84 353.179 124.403 349.827 120.833 349.263C117.262 348.699 113.911 351.137 113.347 354.707C112.783 358.277 115.22 361.629 118.79 362.193Z" fill="#F2EBEB"/>
<path d="M362.708 332.249C367.468 333.001 371.937 329.751 372.689 324.991C373.441 320.23 370.191 315.762 365.431 315.01C360.67 314.258 356.202 317.508 355.45 322.268C354.698 327.028 357.947 331.497 362.708 332.249Z" fill="#F2EBEB"/>
<path d="M81.0002 226.49C83.6008 226.9 86.042 225.125 86.4527 222.524C86.8635 219.924 85.0882 217.483 82.4876 217.072C79.887 216.661 77.4458 218.436 77.0351 221.037C76.6243 223.638 78.3995 226.079 81.0002 226.49Z" fill="#F2EBEB"/>
<path d="M387.993 129.693C391.563 130.256 394.915 127.819 395.479 124.249C396.042 120.679 393.605 117.327 390.035 116.763C386.465 116.199 383.113 118.637 382.549 122.207C381.985 125.777 384.422 129.129 387.993 129.693Z" fill="#F2EBEB"/>
<path d="M365.156 260.813C369.167 261.447 372.932 258.709 373.566 254.698C374.199 250.687 371.461 246.921 367.45 246.288C363.439 245.654 359.674 248.392 359.04 252.403C358.407 256.414 361.145 260.18 365.156 260.813Z" fill="#F2EBEB"/>
</svg>
