<svg width="424" height="424" viewBox="0 0 424 424" fill="none" xmlns="http://www.w3.org/2000/svg">
<g clip-path="url(#clip0_10555_2690)">
<path d="M366.327 248.373C367.014 227.826 362.367 207.194 364.979 186.809C366.845 172.223 372.399 158.104 372.331 143.399C372.179 112.354 346.637 86.4392 318.161 74.0669C289.685 61.6946 258.038 59.4389 227.595 53.3757C203.91 48.6608 178.258 41.792 156.583 52.426C140.971 60.0919 130.804 75.3898 121.383 90.0178C109.867 107.894 98.3425 125.778 86.8267 143.654C75.243 161.64 63.3964 180.27 59.8094 201.369C55.2048 228.437 65.05 256.378 80.8228 278.859C96.5872 301.339 117.897 319.249 139.047 336.76C150.774 346.47 163.969 356.671 179.191 356.29C192.445 355.959 203.961 347.632 216.325 342.849C236.355 335.115 258.589 336.769 279.899 334.165C300.056 331.706 314.048 323.252 329.77 311.193C341.311 302.34 352.234 292.715 358.924 279.444C363.75 269.887 365.971 259.024 366.327 248.373Z" fill="#E6E7E8"/>
<path d="M250.194 344.818C233.548 345.285 215.68 348.762 204.334 360.947C200.696 364.857 197.779 370.191 199.093 375.363C200.9 382.487 209.871 385.48 217.079 384.038C224.287 382.597 230.478 378.153 237.219 375.228C249.075 370.089 262.354 369.724 275.057 367.358C285.276 365.45 309.952 357.767 308.935 343.453C308.426 336.33 302.948 338.891 298.954 340.884C292.365 344.166 285.293 344.471 278.008 344.708C268.74 345.014 259.471 344.547 250.202 344.81L250.194 344.818Z" fill="#E6E7E8"/>
<path d="M121.001 70.3365C122.833 64.6973 123.545 57.1925 118.491 54.0973C114.836 51.8586 110.045 53.3171 106.348 55.471C98.3086 60.169 92.3472 67.767 87.7002 75.8315C83.0531 83.896 79.5339 92.5625 75.1328 100.763C69.9176 110.481 63.4728 119.512 58.3424 129.272C53.212 139.041 49.3706 149.853 49.9557 160.869C50.1592 164.71 51.3125 169.086 54.8062 170.723C57.5707 172.02 60.9712 171.045 63.3456 169.12C65.72 167.195 67.2803 164.481 68.7898 161.827C78.5672 144.621 88.3531 127.424 98.1306 110.218C105.958 96.4379 115.964 85.8379 121.01 70.3365H121.001Z" fill="#E6E7E8"/>
<rect x="283" y="318" width="121" height="95" rx="32" fill="white"/>
<path d="M164.306 354.485C161.74 357.742 159.137 361.047 157.536 364.872C155.934 368.696 155.426 373.172 157.106 376.962C158.984 381.189 163.299 383.925 167.79 385.049C172.275 386.17 176.974 385.916 181.595 385.646C186.669 385.354 191.886 385.037 196.514 382.94C202.328 380.314 206.574 375.216 210.616 370.284C236.082 339.2 261.537 308.12 287.003 277.036C290.89 272.289 295.035 266.535 293.55 260.576C292.315 255.642 287.601 252.461 283.049 250.185C276.055 246.696 263.387 240.586 255.308 241.944C251.244 242.623 249.026 247.11 246.645 250.132C242.837 254.964 239.026 259.784 235.217 264.616C220.097 283.783 204.97 302.946 189.85 322.114C181.338 332.906 172.818 343.693 164.306 354.485Z" fill="#40196D"/>
<path d="M181.972 379.552C181.972 379.552 181.936 379.531 181.921 379.522C181.74 379.378 181.706 379.114 181.843 378.928L271.829 263.382C271.972 263.201 272.251 263.176 272.422 263.304C272.603 263.448 272.637 263.712 272.5 263.897L182.515 379.444C182.387 379.615 182.149 379.653 181.972 379.552Z" fill="white"/>
<path d="M209.868 109.825C222.572 99.6417 237.807 90.4503 254.01 92.0497C267.399 93.3663 278.863 101.816 289.579 109.951C300.294 118.087 311.01 126.222 321.714 134.36C334.558 144.116 347.5 153.958 358.2 166.02C368.901 178.083 377.351 192.685 379.565 208.661C383.069 233.95 370.876 258.479 359.035 281.106C356.478 285.994 353.391 291.341 348.095 292.915C343.04 294.412 337.752 291.937 333.068 289.517C273.776 258.858 215.272 226.648 157.946 192.464C151.806 188.801 146.402 183.762 151.271 177.075C156.492 169.915 161.597 162.65 166.785 155.394C178.968 138.329 193.492 122.941 209.856 109.828L209.868 109.825Z" fill="#AF93A2"/>
<path d="M89.8374 184.297C80.2487 189.796 70.7051 198.152 70.0922 209.186C69.7506 215.255 72.2978 221.24 76.1771 225.918C80.0565 230.596 85.1812 234.083 90.5358 236.969C115.654 250.482 145.421 251.247 173.933 251.709C194.212 252.029 214.89 252.305 234.262 246.295C237.243 245.372 240.508 244.007 241.689 241.114C242.793 238.422 241.616 235.236 239.611 233.129C237.606 231.022 234.91 229.739 232.318 228.429C210.655 217.478 192.225 201.335 174.973 184.491C170.939 180.556 166.96 175.135 162.281 172.012C158.825 169.704 155.007 169.957 150.949 169.778C140.756 169.338 130.591 170.118 120.625 172.354C109.846 174.777 99.4157 178.782 89.827 184.281L89.8374 184.297Z" fill="#D6B2A4"/>
<path d="M93.8397 231.995C81.7223 224.999 74.0689 213.256 74.1518 201.494C74.1507 201.259 74.344 201.077 74.5796 201.076C74.8153 201.075 75.0048 201.272 74.9985 201.503C74.9234 213.641 83.3165 225.782 96.4231 232.438C108.667 238.656 122.879 239.752 135.239 240.288C168.635 241.738 202.553 239.534 235.346 237.415C235.579 237.402 235.781 237.578 235.793 237.81C235.806 238.043 235.631 238.245 235.398 238.257C202.582 240.383 168.645 242.586 135.2 241.137C122.752 240.599 108.434 239.5 96.0316 233.201C95.2834 232.818 94.5509 232.425 93.8386 232.013L93.8397 231.995Z" fill="white"/>
<path d="M229.129 183.255C225.706 181.093 222.112 178.94 218.104 178.437C210.567 177.483 203.695 182.466 197.732 187.18C195.136 189.235 192.49 191.34 190.672 194.1C188.857 196.871 187.976 200.465 189.216 203.541C190.374 206.403 193.088 208.283 195.652 209.998C207.97 218.207 220.293 226.408 232.611 234.617C235.899 236.808 239.358 239.06 243.284 239.467C251.036 240.27 257.45 233.858 262.582 227.989C265.429 224.737 270.768 219.848 270.058 215.023C269.464 210.998 264.709 208.243 261.786 205.997C251.265 197.915 240.356 190.335 229.132 183.267L229.129 183.255Z" fill="#FFDE91"/>
<path d="M218.807 181.406C220.205 189.636 221.906 197.815 223.913 205.906C224.454 208.089 225.112 210.427 226.838 211.864C229.132 213.776 232.481 213.487 235.437 213.098C243.97 211.973 252.497 210.855 261.03 209.73" fill="#FFDE91"/>
<path d="M227.488 212.74C227.187 212.566 226.899 212.37 226.624 212.133C224.858 210.663 224.174 208.388 223.589 205.994C221.585 197.914 219.865 189.665 218.481 181.464C218.45 181.279 218.575 181.097 218.759 181.066C218.943 181.035 219.119 181.156 219.157 181.345C220.542 189.528 222.259 197.765 224.256 205.821C224.823 208.097 225.464 210.259 227.07 211.598C229.223 213.398 232.375 213.162 235.408 212.759L261.001 209.391C261.188 209.371 261.359 209.499 261.382 209.679C261.401 209.867 261.273 210.038 261.093 210.061L235.501 213.43C232.683 213.8 229.778 214.032 227.501 212.718L227.488 212.74Z" fill="white"/>
<path d="M214.984 135.658C210.682 134.8 206.216 134.003 202.011 135.012C194.12 136.909 189.366 144.466 185.4 151.419C183.672 154.446 181.921 157.548 181.266 160.988C180.618 164.433 181.242 168.357 183.756 170.955C186.1 173.375 189.582 174.23 192.851 174.962C208.515 178.493 224.192 182.022 239.857 185.553C244.04 186.499 248.418 187.431 252.494 186.357C260.539 184.226 264.244 175.418 266.893 167.625C268.36 163.302 271.638 156.421 268.917 151.873C266.648 148.086 260.775 147.133 256.933 146.002C243.107 141.917 229.088 138.484 214.98 135.665L214.984 135.658Z" fill="#3C4368"/>
<path d="M223.277 164.795C221.573 163.811 220.262 162.164 218.98 160.415C213.624 153.122 208.479 145.549 203.669 137.886C203.565 137.728 203.62 137.515 203.774 137.418C203.932 137.313 204.145 137.368 204.242 137.522C209.034 145.165 214.176 152.726 219.522 160.003C221.039 162.074 222.581 163.982 224.752 164.716C227.66 165.7 230.69 164.268 233.548 162.726L257.592 149.709C257.761 149.62 257.963 149.678 258.051 149.847C258.14 150.015 258.082 150.217 257.914 150.306L233.87 163.322C230.877 164.944 227.7 166.428 224.527 165.36C224.084 165.212 223.658 165.016 223.262 164.787L223.277 164.795Z" fill="white"/>
<path d="M262.645 110.672C258.631 108.228 254.424 105.78 249.76 105.26C240.985 104.278 233.094 110.179 226.243 115.752C223.256 118.179 220.223 120.667 218.163 123.914C216.103 127.16 215.14 131.353 216.626 134.904C218.015 138.212 221.196 140.352 224.21 142.289C238.657 151.609 253.101 160.937 267.548 170.257C271.399 172.745 275.455 175.302 280.028 175.71C289.045 176.509 296.389 168.96 302.244 162.059C305.494 158.227 311.619 152.47 310.708 146.873C309.955 142.208 304.383 139.088 300.954 136.531C288.601 127.313 275.798 118.707 262.645 110.672Z" fill="#FFDE91"/>
<path d="M250.625 108.695C252.385 118.231 254.499 127.696 256.968 137.072C257.633 139.601 258.436 142.297 260.473 143.943C263.168 146.126 267.055 145.736 270.486 145.239C280.378 143.793 290.263 142.342 300.156 140.896" fill="#FFDE91"/>
<path d="M261.171 144.834C260.855 144.652 260.545 144.443 260.252 144.205C258.19 142.535 257.363 139.913 256.636 137.153C254.177 127.812 252.038 118.254 250.287 108.753C250.256 108.569 250.377 108.394 250.565 108.356C250.749 108.325 250.924 108.446 250.967 108.627C252.715 118.116 254.847 127.651 257.304 136.981C258 139.625 258.784 142.134 260.686 143.673C263.245 145.737 266.9 145.41 270.43 144.892L300.101 140.549C300.285 140.518 300.463 140.65 300.489 140.842C300.52 141.026 300.388 141.204 300.196 141.231L270.526 145.574C267.234 146.053 263.826 146.376 261.167 144.841L261.171 144.834Z" fill="white"/>
<path d="M268.196 163.132C263.615 157.991 257.949 153.133 251.099 152.38C243.672 151.558 236.702 155.71 230.376 159.696C226.25 162.298 221.621 165.804 221.792 170.681C221.908 173.871 224.122 176.55 226.223 178.948C235.321 189.341 244.423 199.747 253.521 210.14C256.34 213.364 259.434 216.756 263.594 217.777C269.641 219.261 275.588 215.253 280.207 211.085C284.846 206.899 289.272 202.032 290.888 195.994C292.745 189.046 289.761 182.359 284.282 178.197C278.126 173.526 273.396 168.965 268.193 163.121L268.196 163.132Z" fill="#BCBEC0"/>
<path d="M252.464 189.583C252.038 189.337 251.653 189.037 251.304 188.659C249.766 186.998 249.703 184.562 249.768 182.211L250.485 156.412C250.489 156.218 250.649 156.076 250.835 156.076C251.017 156.083 251.171 156.24 251.164 156.422L250.448 182.221C250.387 184.429 250.44 186.711 251.799 188.191C253.269 189.784 255.738 189.917 258.178 189.828C266.871 189.51 275.59 188.434 284.091 186.634C284.279 186.596 284.454 186.717 284.496 186.898C284.535 187.086 284.421 187.265 284.233 187.304C275.686 189.116 266.929 190.19 258.202 190.517C256.142 190.591 254.053 190.511 252.452 189.587L252.464 189.583Z" fill="white"/>
<path d="M153.652 169.88C150.171 173.432 161.423 178.332 163.43 174.771C178.179 148.682 199.054 119.208 223.907 102.467C231.762 97.1713 238.028 95.5793 247.383 94.0969C256.741 92.626 269.404 98.6936 275.588 105.877C280.986 112.146 282.371 120.907 282.585 129.187C283.131 150.085 277.595 170.85 268.676 189.758C259.756 208.667 247.522 225.839 234.233 241.97C266.884 259.362 299.866 276.113 333.164 292.234C338.015 294.584 343.213 296.978 348.566 296.338C357.991 295.209 363.639 285.545 367.637 276.925C374.703 261.685 381.33 246.085 384.542 229.599C387.762 213.117 387.388 195.55 380.785 180.105C374.215 164.738 362.002 152.498 349.103 141.868C331.383 127.261 311.879 114.962 291.985 103.476C282.438 97.9638 272.704 92.5888 262.161 89.3611C251.618 86.1335 240.111 85.1692 229.606 88.5241C217.374 92.4287 207.716 101.677 198.52 110.635C189.364 119.557 157.501 165.943 153.636 169.89L153.652 169.88Z" fill="#D6B2A4"/>
<path d="M245.447 240.216C245.447 240.216 245.388 240.182 245.36 240.146C245.191 239.98 245.188 239.714 245.354 239.545C262.154 222.523 271.994 200.17 279.414 180.552C284.093 168.174 288.581 154.804 289.762 140.886C290.659 130.31 289.896 114.908 281.213 101.591C281.08 101.397 281.138 101.127 281.335 101.006C281.529 100.873 281.795 100.938 281.921 101.128C290.744 114.643 291.517 130.248 290.612 140.956C289.421 154.976 284.914 168.413 280.213 180.847C272.766 200.547 262.877 222.999 245.965 240.133C245.823 240.276 245.617 240.294 245.455 240.201L245.447 240.216Z" fill="white"/>
<path d="M336.13 93.5493C340.48 94.8383 344.475 97.2805 348.943 98.0692C356.974 99.4938 364.843 95.381 371.967 91.4039C372.857 90.912 373.832 90.3015 374.061 89.3093C374.333 88.1391 373.366 86.9773 372.238 86.5533C371.11 86.1293 369.864 86.2565 368.668 86.2989C363.385 86.4855 358.059 85.0524 353.582 82.237C347.824 78.6161 343.406 72.7818 336.97 70.5685C333.383 69.3389 328.668 69.7714 326.785 73.0701C325.963 74.5117 325.844 76.2417 325.742 77.9037C325.581 80.541 323.359 91.0647 325.166 92.9472C326.565 94.4058 333.383 92.7692 336.122 93.5409L336.13 93.5493Z" fill="#FFDE91"/>
<path d="M300.048 145.828C295.748 149.958 294.366 156.852 296.766 162.305C299.174 167.757 305.229 171.387 311.165 170.886C317.11 170.386 322.486 165.764 323.826 159.956C326.997 146.243 310.512 135.762 300.039 145.836L300.048 145.828Z" fill="#292E54"/>
<path d="M309.545 143.019C308.994 145.622 309.206 149.396 311.971 149.557C313.54 149.65 314.913 148.514 315.337 146.996C322.036 122.904 327.854 96.9132 329.151 71.5665C329.304 68.5731 324.928 68.0304 324.368 70.9729C323.902 73.4491 323.715 76.0355 323.308 77.9604C321.782 85.1939 320.256 92.4188 318.721 99.6523C315.668 114.111 312.607 128.569 309.554 143.027L309.545 143.019Z" fill="#40196D"/>
<path d="M170.77 242.318C167.073 240.919 163.223 239.554 159.348 239.834C152.055 240.359 146.729 246.372 142.184 251.96C140.208 254.394 138.19 256.887 137.105 259.846C136.019 262.814 136.002 266.385 137.851 269.056C139.572 271.549 142.54 272.812 145.339 273.949C158.737 279.393 172.127 284.829 185.525 290.273C189.104 291.723 192.852 293.207 196.626 292.851C204.08 292.147 208.667 284.862 212.17 278.341C214.111 274.72 218.029 269.09 216.282 264.655C214.832 260.957 209.753 259.244 206.505 257.676C194.828 252.011 182.888 246.897 170.779 242.318H170.77Z" fill="#3C4368"/>
<path d="M178.046 270.896C176.952 270.896 175.884 270.684 174.866 270.142C172.882 269.082 171.737 267.063 170.643 264.909C166.954 257.642 163.503 250.154 160.365 242.649C160.289 242.471 160.374 242.276 160.552 242.2C160.73 242.124 160.925 242.208 161.001 242.387C164.13 249.874 167.582 257.345 171.262 264.596C172.305 266.648 173.382 268.573 175.197 269.54C177.622 270.837 180.514 270.014 183.278 269.065L206.547 261.043C206.725 260.983 206.92 261.076 206.98 261.255C207.039 261.433 206.946 261.628 206.768 261.687L183.499 269.709C181.701 270.328 179.844 270.896 178.055 270.896H178.046Z" fill="white"/>
<path d="M125.004 152.723C122.044 152.604 118.974 152.554 116.244 153.698C111.113 155.852 108.586 161.525 106.526 166.698C105.627 168.954 104.719 171.252 104.584 173.669C104.448 176.086 105.203 178.697 107.119 180.19C108.9 181.581 111.308 181.784 113.564 181.928C124.376 182.624 135.188 183.311 146.009 184.006C148.892 184.192 151.911 184.354 154.556 183.175C159.763 180.843 161.485 174.432 162.587 168.835C163.198 165.732 164.8 160.677 162.587 157.879C160.738 155.547 156.719 155.539 154.039 155.182C144.414 153.91 134.713 153.096 125.012 152.723H125.004Z" fill="#FFDE91"/>
<path d="M117.787 155.328C121.679 160.035 125.758 164.597 129.998 168.998C131.143 170.185 132.407 171.423 134.035 171.703C136.189 172.076 138.207 170.668 139.945 169.337C144.94 165.504 149.943 161.671 154.938 157.83" fill="#FFDE91"/>
<path d="M134.756 172.108C134.493 172.108 134.238 172.082 133.967 172.04C132.279 171.752 131.007 170.547 129.744 169.233C125.512 164.84 121.4 160.236 117.516 155.546C117.397 155.402 117.414 155.19 117.558 155.063C117.702 154.944 117.914 154.961 118.042 155.105C121.917 159.786 126.013 164.374 130.236 168.75C131.414 169.979 132.602 171.099 134.086 171.353C136.078 171.701 137.961 170.403 139.725 169.055L154.718 157.548C154.87 157.437 155.082 157.463 155.192 157.607C155.303 157.76 155.277 157.972 155.133 158.082L140.14 169.589C138.478 170.861 136.706 172.091 134.756 172.091V172.108Z" fill="white"/>
<path d="M139.233 173.797C132.347 173.967 124.978 175.146 119.975 179.886C114.548 185.025 113.208 193.022 112.156 200.425C111.478 205.258 111.156 211.059 114.989 214.077C117.499 216.053 120.976 216.096 124.164 216.045C137.978 215.824 151.8 215.604 165.614 215.383C169.897 215.316 174.484 215.154 177.953 212.636C182.99 208.981 183.779 201.858 183.583 195.633C183.388 189.384 182.54 182.871 178.979 177.732C174.883 171.822 167.853 169.778 161.128 171.262C153.581 172.941 147.052 173.602 139.225 173.789L139.233 173.797Z" fill="#BCBEC0"/>
<path d="M147.586 203.198C145.415 203.198 143.575 201.714 141.879 200.196L122.663 182.974C122.519 182.846 122.511 182.634 122.638 182.49C122.765 182.346 122.977 182.337 123.121 182.465L142.337 199.688C143.982 201.163 145.763 202.579 147.764 202.511C149.926 202.418 151.622 200.629 153.14 198.695C158.517 191.861 163.333 184.508 167.455 176.859C167.548 176.69 167.751 176.63 167.921 176.724C168.091 176.817 168.15 177.021 168.057 177.19C163.91 184.881 159.076 192.259 153.675 199.128C152.063 201.18 150.232 203.097 147.789 203.198C147.722 203.198 147.654 203.198 147.586 203.198Z" fill="white"/>
<path d="M100.013 307.163C94.942 309.885 89.888 313.54 87.946 318.95C85.8345 324.827 87.8443 331.297 89.854 337.208C91.1684 341.066 93.1104 345.518 97.1044 346.324C99.7163 346.849 102.328 345.577 104.686 344.331C114.904 338.963 125.131 333.604 135.349 328.236C138.521 326.574 141.879 324.725 143.515 321.537C145.898 316.915 143.804 311.301 141.311 306.739C138.809 302.151 135.722 297.615 131.135 295.121C125.852 292.255 119.839 293.375 115.387 297.021C110.393 301.108 105.771 304.059 100.005 307.155L100.013 307.163Z" fill="#BCBEC0"/>
<path d="M115.184 326.467C114.115 326.467 112.996 326.205 111.911 325.908L91.0922 320.294C90.9141 320.243 90.8039 320.056 90.8547 319.878C90.9056 319.7 91.0922 319.59 91.2702 319.641L112.089 325.255C113.861 325.73 115.71 326.128 117.16 325.323C118.712 324.449 119.305 322.49 119.704 320.497C121.137 313.383 121.959 306.09 122.154 298.831C122.154 298.645 122.324 298.492 122.502 298.5C122.689 298.5 122.841 298.661 122.833 298.848C122.638 306.149 121.807 313.476 120.365 320.633C119.933 322.787 119.28 324.916 117.482 325.925C116.761 326.323 115.981 326.476 115.175 326.476L115.184 326.467Z" fill="white"/>
<path d="M95.407 39.8314C94.1435 38.6951 92.7951 37.5334 91.1076 36.8634C89.4201 36.1935 87.3255 36.2105 86.6217 37.245C85.6465 38.6866 87.775 40.7812 89.6915 42.2652C92.422 44.3937 106.634 56.9695 108.67 55.1294C110.968 53.0518 97.8747 42.0362 95.407 39.8314Z" fill="#40196D"/>
<path d="M76.8527 73.9859C75.0804 73.9519 73.2657 73.9095 71.4509 73.5449C69.6277 73.1803 67.7621 72.4425 66.7954 71.4334C65.1588 69.7289 66.8124 67.9481 69.4666 67.4987C72.1209 67.0492 75.3857 67.5665 78.4554 68.1431C84.7052 69.3219 92.1591 70.6956 97.917 73.0191C96.7468 75.8345 81.4065 74.0791 76.8612 73.9859H76.8527Z" fill="#40196D"/>
<path d="M69.7804 108.923C66.7785 107.837 66.2358 105.896 67.6604 104.657C69.085 103.419 71.9258 102.707 74.6734 102.046C78.7014 101.07 98.4343 94.7868 95.7122 101.07C94.0332 104.946 77.3276 107.846 69.7804 108.923Z" fill="#40196D"/>
<path d="M149.102 22.3236C148.797 20.5767 148.492 18.7874 148.492 16.9388C148.492 15.0816 148.856 13.1058 149.662 11.961C151.019 10.0276 153.088 11.2996 154.038 13.8181C154.996 16.3367 155.115 19.6354 155.14 22.7645C155.191 29.1245 155.276 36.6972 154.114 42.8028C151.129 42.2007 149.882 26.8095 149.102 22.332V22.3236Z" fill="#40196D"/>
<path d="M114.741 20.8152C115.225 17.6606 117.022 16.7533 118.515 17.915C120.007 19.0683 121.254 21.731 122.433 24.292C124.163 28.0486 134.144 46.2043 127.453 44.7458C123.323 43.8469 117.251 28.0232 114.741 20.8152Z" fill="#40196D"/>
</g>
<defs>
<clipPath id="clip0_10555_2690">
<rect width="424" height="424" fill="white"/>
</clipPath>
</defs>
</svg>
