<svg width="42" height="42" viewBox="0 0 42 42" fill="none" xmlns="http://www.w3.org/2000/svg">
<g filter="url(#filter0_d_11322_4418)">
<rect x="4" width="34" height="34" rx="8" fill="white"/>
<path d="M16.8998 19.1001L16.9898 19.0101C17.2598 18.7401 17.3098 18.3001 17.0698 18.0001C16.3598 17.0901 15.9998 16.0101 15.9998 15.0001C15.9998 13.9201 16.3498 12.8401 17.0398 11.9901C17.2898 11.6901 17.2498 11.2401 16.9698 10.9701L16.8998 10.9001C16.5598 10.5601 15.9998 10.6001 15.6998 10.9801C14.7898 12.1601 14.2998 13.5801 14.2998 15.0001C14.2998 16.4201 14.7898 17.8401 15.6998 19.0201C15.9998 19.4001 16.5598 19.4401 16.8998 19.1001ZM27.5098 8.49005L27.4298 8.57005C27.1298 8.87005 27.1398 9.33005 27.3998 9.65005C28.6598 11.1801 29.2998 13.1301 29.2998 15.0001C29.2998 16.8701 28.6698 18.8101 27.3998 20.3501C27.1198 20.6801 27.1698 21.18 27.4798 21.4901C27.8298 21.8401 28.4098 21.8001 28.7198 21.4201C30.2898 19.5401 30.9998 17.3101 30.9998 15.0001C30.9998 12.6801 30.2098 10.4501 28.6898 8.57005C28.3898 8.20005 27.8398 8.16005 27.5098 8.49005Z" fill="#40196D"/>
<path d="M12.7 15.0007C12.7 15.9174 12.8543 16.83 13.163 17.7387C13.4717 18.6474 13.9257 19.4847 14.525 20.2507C14.675 20.434 14.75 20.6467 14.75 20.8887C14.75 21.1307 14.6667 21.3347 14.5 21.5007C14.3333 21.6667 14.1293 21.7417 13.888 21.7257C13.6467 21.7097 13.4507 21.6097 13.3 21.4257C12.5333 20.4757 11.9583 19.459 11.575 18.3757C11.1917 17.2924 11 16.1674 11 15.0007C11 13.834 11.1917 12.709 11.575 11.6257C11.9583 10.5424 12.5333 9.52571 13.3 8.57571C13.45 8.39238 13.646 8.29238 13.888 8.27571C14.13 8.25904 14.334 8.33404 14.5 8.50071C14.666 8.66738 14.7493 8.87138 14.75 9.11271C14.7507 9.35404 14.6757 9.56671 14.525 9.75071C13.925 10.5174 13.471 11.355 13.163 12.2637C12.855 13.1724 12.7007 14.0847 12.7 15.0007ZM16 15.0007C16 15.484 16.075 15.9757 16.225 16.4757C16.375 16.9757 16.6167 17.4424 16.95 17.8757C17.0833 18.059 17.15 18.2674 17.15 18.5007C17.15 18.734 17.0667 18.934 16.9 19.1007C16.7333 19.2674 16.5333 19.3467 16.3 19.3387C16.0667 19.3307 15.875 19.2347 15.725 19.0507C15.2583 18.4507 14.904 17.805 14.662 17.1137C14.42 16.4224 14.2993 15.718 14.3 15.0007C14.3007 14.2834 14.4217 13.579 14.663 12.8877C14.9043 12.1964 15.2583 11.5507 15.725 10.9507C15.875 10.7674 16.0667 10.6714 16.3 10.6627C16.5333 10.654 16.7333 10.7334 16.9 10.9007C17.0667 11.068 17.146 11.268 17.138 11.5007C17.13 11.7334 17.059 11.9417 16.925 12.1257C16.6083 12.5424 16.375 12.9967 16.225 13.4887C16.075 13.9807 16 14.4847 16 15.0007ZM18.675 25.0007L18.225 26.3507C18.1583 26.534 18.0417 26.6884 17.875 26.8137C17.7083 26.939 17.525 27.0014 17.325 27.0007C16.9917 27.0007 16.7333 26.8717 16.55 26.6137C16.3667 26.3557 16.325 26.068 16.425 25.7507L19.375 16.8757C19.1083 16.6424 18.8957 16.3674 18.737 16.0507C18.5783 15.734 18.4993 15.384 18.5 15.0007C18.5 14.3007 18.7417 13.709 19.225 13.2257C19.7083 12.7424 20.3 12.5007 21 12.5007C21.7 12.5007 22.2917 12.7424 22.775 13.2257C23.2583 13.709 23.5 14.3007 23.5 15.0007C23.5 15.384 23.4207 15.734 23.262 16.0507C23.1033 16.3674 22.891 16.6424 22.625 16.8757L25.575 25.7507C25.675 26.0507 25.6377 26.334 25.463 26.6007C25.2883 26.8674 25.034 27.0007 24.7 27.0007C24.5 27.0007 24.3127 26.9424 24.138 26.8257C23.9633 26.709 23.8423 26.5507 23.775 26.3507L23.35 25.0007H18.675ZM19.325 23.0007H22.675L21 18.0007L19.325 23.0007ZM26 15.0007C26 14.5174 25.925 14.0257 25.775 13.5257C25.625 13.0257 25.3833 12.559 25.05 12.1257C24.9167 11.9424 24.85 11.734 24.85 11.5007C24.85 11.2674 24.9333 11.0674 25.1 10.9007C25.2667 10.734 25.4707 10.6547 25.712 10.6627C25.9533 10.6707 26.141 10.7667 26.275 10.9507C26.725 11.5507 27.0667 12.1967 27.3 12.8887C27.5333 13.5807 27.6667 14.2847 27.7 15.0007C27.7 15.7174 27.579 16.4217 27.337 17.1137C27.095 17.8057 26.741 18.4514 26.275 19.0507C26.125 19.234 25.9333 19.33 25.7 19.3387C25.4667 19.3474 25.2667 19.268 25.1 19.1007C24.9333 18.9334 24.854 18.7334 24.862 18.5007C24.87 18.268 24.941 18.0597 25.075 17.8757C25.3917 17.459 25.625 17.005 25.775 16.5137C25.925 16.0224 26 15.518 26 15.0007ZM29.3 15.0007C29.3 14.084 29.146 13.1714 28.838 12.2627C28.53 11.354 28.0757 10.5167 27.475 9.75071C27.325 9.56738 27.25 9.35471 27.25 9.11271C27.25 8.87071 27.3333 8.66671 27.5 8.50071C27.6667 8.33471 27.871 8.25971 28.113 8.27571C28.355 8.29171 28.5507 8.39171 28.7 8.57571C29.4667 9.52571 30.0417 10.5424 30.425 11.6257C30.8083 12.709 31 13.834 31 15.0007C31 16.1674 30.821 17.2924 30.463 18.3757C30.105 19.459 29.5257 20.4757 28.725 21.4257C28.5583 21.609 28.3583 21.7134 28.125 21.7387C27.8917 21.764 27.6833 21.6847 27.5 21.5007C27.3333 21.334 27.25 21.13 27.25 20.8887C27.25 20.6474 27.325 20.4347 27.475 20.2507C28.075 19.484 28.5293 18.6467 28.838 17.7387C29.1467 16.8307 29.3007 15.918 29.3 15.0007Z" fill="#40196D"/>
<path d="M14.57 8.57005L14.49 8.49005C14.16 8.16005 13.61 8.20005 13.31 8.57005C11.79 10.4501 11 12.6801 11 15.0001C11 17.3201 11.79 19.5501 13.31 21.4301C13.61 21.8001 14.16 21.8501 14.49 21.5101L14.57 21.4301C14.87 21.1301 14.86 20.6701 14.6 20.3501C13.33 18.8101 12.7 16.8701 12.7 15.0001C12.7 13.1301 13.33 11.1901 14.6 9.65005C14.86 9.33005 14.87 8.87005 14.57 8.57005ZM25.07 19.0701C25.43 19.43 26.02 19.39 26.33 18.9801C27.23 17.8 27.7 16.4001 27.7 15.0001C27.62 13.5901 27.19 12.1701 26.3 10.9901C26.2318 10.8986 26.1448 10.8228 26.0449 10.7678C25.9449 10.7129 25.8343 10.68 25.7205 10.6715C25.6068 10.663 25.4925 10.6789 25.3854 10.7184C25.2784 10.7578 25.181 10.8198 25.1 10.9001L25.02 10.9801C24.75 11.2501 24.7 11.6901 24.94 11.9901C25.64 12.9101 26 13.9901 26 15.0001C26 16.0701 25.66 17.13 24.99 17.9801C24.73 18.3 24.77 18.7701 25.07 19.0701ZM23.5 15.0001C23.5 13.4001 21.99 12.1501 20.32 12.5901C19.52 12.8001 18.86 13.4401 18.62 14.2401C18.3 15.3001 18.68 16.2801 19.38 16.8801L16.42 25.75C16.21 26.3701 16.67 27 17.32 27C17.73 27 18.09 26.74 18.22 26.35L18.67 25H23.34L23.79 26.35C23.8269 26.4712 23.8878 26.5838 23.9689 26.6811C24.05 26.7784 24.1498 26.8584 24.2624 26.9166C24.375 26.9747 24.4981 27.0097 24.6244 27.0195C24.7507 27.0293 24.8777 27.0137 24.9979 26.9736C25.118 26.9335 25.229 26.8698 25.3242 26.7862C25.4193 26.7026 25.4968 26.6007 25.552 26.4867C25.6072 26.3727 25.639 26.2487 25.6455 26.1222C25.652 25.9957 25.6332 25.8692 25.59 25.75L22.63 16.8801C23.16 16.4201 23.5 15.7601 23.5 15.0001ZM19.33 23.0001L21 18.0001L22.67 23.0001H19.33Z" fill="#40196D"/>
</g>
<defs>
<filter id="filter0_d_11322_4418" x="0" y="0" width="42" height="42" filterUnits="userSpaceOnUse" color-interpolation-filters="sRGB">
<feFlood flood-opacity="0" result="BackgroundImageFix"/>
<feColorMatrix in="SourceAlpha" type="matrix" values="0 0 0 0 0 0 0 0 0 0 0 0 0 0 0 0 0 0 127 0" result="hardAlpha"/>
<feOffset dy="4"/>
<feGaussianBlur stdDeviation="2"/>
<feComposite in2="hardAlpha" operator="out"/>
<feColorMatrix type="matrix" values="0 0 0 0 0 0 0 0 0 0 0 0 0 0 0 0 0 0 0.06 0"/>
<feBlend mode="normal" in2="BackgroundImageFix" result="effect1_dropShadow_11322_4418"/>
<feBlend mode="normal" in="SourceGraphic" in2="effect1_dropShadow_11322_4418" result="shape"/>
</filter>
</defs>
</svg>
